M48
; DRILL file {KiCad 7.0.6-7.0.6~ubuntu22.04.1} date Sun 06 Aug 2023 19:07:09
; FORMAT={-:-/ absolute / inch / decimal}
; #@! TF.CreationDate,2023-08-06T19:07:09+12:00
; #@! TF.GenerationSoftware,Kicad,Pcbnew,7.0.6-7.0.6~ubuntu22.04.1
; #@! TF.FileFunction,Plated,1,2,PTH
FMAT,2
INCH
; #@! TA.AperFunction,Plated,PTH,ViaDrill
T1C0.0118
; #@! TA.AperFunction,Plated,PTH,ComponentDrill
T2C0.0394
; #@! TA.AperFunction,Plated,PTH,ComponentDrill
T3C0.0945
%
G90
G05
T1
X5.6Y-3.1
X5.6Y-3.2
X5.6Y-3.3
X5.6Y-3.4
X5.6Y-3.5
X5.6Y-3.6
X5.6Y-3.7
X5.6Y-3.8
X5.6Y-3.9
X5.6Y-4.0
X5.6Y-4.1
X5.6Y-4.2
X5.6Y-4.3
X5.6Y-4.4
X5.6Y-4.6
X5.7Y-3.1
X5.7Y-3.2
X5.7Y-3.3
X5.7Y-3.4
X5.7Y-3.5
X5.7Y-3.6
X5.7Y-3.7
X5.7Y-3.8
X5.7Y-3.9
X5.7Y-4.0
X5.7Y-4.1
X5.7Y-4.3
X5.7Y-4.4
X5.7Y-4.5
X5.7Y-4.6
X5.8Y-3.1
X5.8Y-3.2
X5.8Y-3.3
X5.8Y-3.4
X5.8Y-3.5
X5.8Y-3.8
X5.8Y-3.9
X5.8Y-4.0
X5.8Y-4.1
X5.8Y-4.4
X5.8Y-4.5
X5.9Y-3.1
X5.9Y-3.2
X5.9Y-3.3
X5.9Y-3.4
X5.9Y-3.5
X5.9Y-3.6
X5.9Y-3.8
X5.9Y-3.9
X5.9Y-4.0
X5.9Y-4.1
X5.9Y-4.4
X5.9Y-4.5
X6.0Y-3.1
X6.0Y-3.2
X6.0Y-3.3
X6.0Y-3.4
X6.0Y-3.5
X6.0Y-3.6
X6.0Y-3.7
X6.0Y-3.8
X6.0Y-3.9
X6.0Y-4.0
X6.0Y-4.1
X6.0Y-4.2
X6.0Y-4.4
X6.0Y-4.6
X6.1Y-3.1
X6.1Y-3.2
X6.1Y-3.3
X6.1Y-3.4
X6.1Y-3.5
X6.1Y-3.6
X6.1Y-3.7
X6.1Y-3.8
X6.1Y-3.9
X6.1Y-4.0
X6.1Y-4.1
X6.1Y-4.2
X6.1Y-4.3
X6.1Y-4.4
X6.1Y-4.5
X6.1Y-4.6
X6.2Y-3.1
X6.2Y-3.2
X6.2Y-3.3
X6.2Y-3.3
X6.2Y-3.4
X6.2Y-3.5
X6.2Y-3.6
X6.2Y-3.7
X6.2Y-3.8
X6.2Y-3.9
X6.2Y-4.0
X6.2Y-4.0
X6.2Y-4.1
X6.2Y-4.1
X6.2Y-4.2
X6.2Y-4.2
X6.2Y-4.3
X6.2Y-4.3
X6.2Y-4.4
X6.2Y-4.4
X6.2Y-4.6
X6.2Y-4.6
X6.3Y-3.1
X6.3Y-3.2
X6.3Y-3.3
X6.3Y-3.4
X6.3Y-3.5
X6.3Y-3.6
X6.3Y-3.7
X6.3Y-3.8
X6.3Y-3.9
X6.3Y-4.0
X6.3Y-4.1
X6.3Y-4.3
X6.3Y-4.4
X6.3Y-4.5
X6.4Y-3.1
X6.4Y-3.2
X6.4Y-3.3
X6.4Y-4.0
X6.4Y-4.1
X6.4Y-4.2
X6.4Y-4.4
X6.5Y-3.1
X6.5Y-3.2
X6.5Y-3.3
X6.5Y-4.0
X6.5Y-4.1
X6.5Y-4.4
X6.5Y-4.5
X6.6Y-3.1
X6.6Y-3.2
X6.6Y-3.3
X6.6Y-4.0
X6.6Y-4.1
X6.6Y-4.2
X6.6Y-4.3
X6.6Y-4.4
X6.6Y-4.6
X6.7Y-3.1
X6.7Y-3.2
X6.7Y-3.3
X6.7Y-4.0
X6.7Y-4.1
X6.7Y-4.2
X6.7Y-4.3
X6.7Y-4.4
X6.7Y-4.5
X6.7Y-4.6
X6.8Y-3.1
X6.8Y-3.2
X6.8Y-3.3
X6.8Y-4.0
X6.8Y-4.1
X6.8Y-4.2
X6.8Y-4.3
X6.8Y-4.4
X6.8Y-4.5
X6.8Y-4.6
X6.9Y-3.1
X6.9Y-3.2
X6.9Y-3.3
X6.9Y-4.0
X6.9Y-4.1
X6.9Y-4.3
X6.9Y-4.4
X6.9Y-4.5
X7.0Y-3.1
X7.0Y-3.2
X7.0Y-3.3
X7.0Y-4.0
X7.0Y-4.1
X7.0Y-4.4
X7.1Y-3.1
X7.1Y-3.2
X7.1Y-3.3
X7.1Y-4.0
X7.1Y-4.1
X7.1Y-4.4
X7.1Y-4.5
X7.1Y-4.6
X7.2Y-3.1
X7.2Y-3.2
X7.2Y-3.2
X7.2Y-3.3
X7.2Y-3.3
X7.2Y-3.4
X7.2Y-3.5
X7.2Y-3.6
X7.2Y-3.7
X7.2Y-3.8
X7.2Y-3.9
X7.2Y-4.0
X7.2Y-4.1
X7.2Y-4.2
X7.2Y-4.4
X7.2Y-4.6
X7.3Y-3.1
X7.3Y-3.2
X7.3Y-3.3
X7.3Y-3.4
X7.3Y-3.5
X7.3Y-3.6
X7.3Y-3.7
X7.3Y-3.8
X7.3Y-3.9
X7.3Y-4.0
X7.3Y-4.1
X7.3Y-4.2
X7.3Y-4.3
X7.3Y-4.4
X7.3Y-4.5
X7.3Y-4.6
X7.4Y-3.1
X7.4Y-3.2
X7.4Y-3.3
X7.4Y-3.4
X7.4Y-3.5
X7.4Y-3.6
X7.4Y-3.7
X7.4Y-3.8
X7.4Y-3.9
X7.4Y-4.0
X7.4Y-4.1
X7.4Y-4.2
X7.4Y-4.3
X7.4Y-4.4
X7.4Y-4.6
X7.5Y-3.1
X7.5Y-3.2
X7.5Y-3.3
X7.5Y-3.4
X7.5Y-3.5
X7.5Y-3.6
X7.5Y-3.7
X7.5Y-3.8
X7.5Y-3.9
X7.5Y-4.0
X7.5Y-4.1
X7.5Y-4.3
X7.5Y-4.4
X7.5Y-4.5
X7.6Y-3.1
X7.6Y-3.2
X7.6Y-3.3
X7.6Y-3.4
X7.6Y-3.5
X7.6Y-3.6
X7.6Y-3.7
X7.6Y-3.8
X7.6Y-3.9
X7.6Y-4.0
X7.6Y-4.1
X7.6Y-4.3
X7.6Y-4.4
X7.6Y-4.5
X7.7Y-3.1
X7.7Y-3.2
X7.7Y-3.3
X7.7Y-3.4
X7.7Y-3.5
X7.7Y-3.6
X7.7Y-3.7
X7.7Y-3.8
X7.7Y-3.9
X7.7Y-4.0
X7.7Y-4.1
X7.7Y-4.2
X7.7Y-4.4
X7.7Y-4.5
X7.7Y-4.6
X7.8Y-3.1
X7.8Y-3.2
X7.8Y-3.3
X7.8Y-3.4
X7.8Y-3.5
X7.8Y-3.6
X7.8Y-3.7
X7.8Y-3.8
X7.8Y-3.9
X7.8Y-4.0
X7.8Y-4.1
X7.8Y-4.2
X7.8Y-4.3
X7.8Y-4.4
X7.8Y-4.6
T2
X5.6181Y-4.5276
X5.7441Y-4.2087
X5.8701Y-4.2087
X5.9488Y-4.3307
X5.9843Y-4.5276
X6.2087Y-4.5276
X6.3346Y-4.2087
X6.4606Y-4.2087
X6.5394Y-4.3307
X6.5748Y-4.5276
X6.7992Y-4.5276
X6.9252Y-4.2087
X7.0512Y-4.2087
X7.1299Y-4.3307
X7.1654Y-4.5276
X7.3898Y-4.5276
X7.5157Y-4.2087
X7.6417Y-4.2087
X7.7205Y-4.3307
X7.7559Y-4.5276
T3
X6.3976Y-3.4724
X6.3976Y-3.6614
X6.3976Y-3.8504
X6.5945Y-3.4724
X6.5945Y-3.6614
X6.5945Y-3.8504
X6.7913Y-3.4724
X6.7913Y-3.6614
X6.7913Y-3.8504
X6.9882Y-3.4724
X6.9882Y-3.6614
X6.9882Y-3.8504
T0
M30
