%TF.GenerationSoftware,KiCad,Pcbnew,7.0.6-7.0.6~ubuntu22.04.1*%
%TF.CreationDate,2023-08-06T19:07:11+12:00*%
%TF.ProjectId,AUX_SWITCH,4155585f-5357-4495-9443-482e6b696361,v1.0*%
%TF.SameCoordinates,Original*%
%TF.FileFunction,Copper,L2,Bot*%
%TF.FilePolarity,Positive*%
%FSLAX46Y46*%
G04 Gerber Fmt 4.6, Leading zero omitted, Abs format (unit mm)*
G04 Created by KiCad (PCBNEW 7.0.6-7.0.6~ubuntu22.04.1) date 2023-08-06 19:07:11*
%MOMM*%
%LPD*%
G01*
G04 APERTURE LIST*
G04 Aperture macros list*
%AMRoundRect*
0 Rectangle with rounded corners*
0 $1 Rounding radius*
0 $2 $3 $4 $5 $6 $7 $8 $9 X,Y pos of 4 corners*
0 Add a 4 corners polygon primitive as box body*
4,1,4,$2,$3,$4,$5,$6,$7,$8,$9,$2,$3,0*
0 Add four circle primitives for the rounded corners*
1,1,$1+$1,$2,$3*
1,1,$1+$1,$4,$5*
1,1,$1+$1,$6,$7*
1,1,$1+$1,$8,$9*
0 Add four rect primitives between the rounded corners*
20,1,$1+$1,$2,$3,$4,$5,0*
20,1,$1+$1,$4,$5,$6,$7,0*
20,1,$1+$1,$6,$7,$8,$9,0*
20,1,$1+$1,$8,$9,$2,$3,0*%
G04 Aperture macros list end*
%TA.AperFunction,ComponentPad*%
%ADD10C,1.800000*%
%TD*%
%TA.AperFunction,ComponentPad*%
%ADD11RoundRect,0.800000X0.800000X-0.800000X0.800000X0.800000X-0.800000X0.800000X-0.800000X-0.800000X0*%
%TD*%
%TA.AperFunction,ViaPad*%
%ADD12C,0.600000*%
%TD*%
%TA.AperFunction,Conductor*%
%ADD13C,0.400000*%
%TD*%
G04 APERTURE END LIST*
D10*
%TO.P,J4,1,M*%
%TO.N,/M_OUT1*%
X157700000Y-115000000D03*
%TO.P,J4,2,L*%
%TO.N,/L_OUT1*%
X166100000Y-110000000D03*
%TO.P,J4,3,R*%
%TO.N,/R_OUT1*%
X160900000Y-106900000D03*
%TO.P,J4,4,G*%
%TO.N,Net-(J4-G)*%
X167000000Y-115000000D03*
%TO.P,J4,7*%
%TO.N,N/C*%
X164100000Y-106900000D03*
%TD*%
%TO.P,J6,1,M*%
%TO.N,/M_IN*%
X142700000Y-115000000D03*
%TO.P,J6,2,L*%
%TO.N,/L_IN*%
X151100000Y-110000000D03*
%TO.P,J6,3,R*%
%TO.N,/R_IN*%
X145900000Y-106900000D03*
%TO.P,J6,4,G*%
%TO.N,Net-(J4-G)*%
X152000000Y-115000000D03*
%TO.P,J6,7*%
%TO.N,N/C*%
X149100000Y-106900000D03*
%TD*%
D11*
%TO.P,J1,1,1*%
%TO.N,/M_IN_SW*%
X162500000Y-93000000D03*
%TO.P,J1,2,2*%
%TO.N,Net-(J4-G)*%
X167500000Y-93000000D03*
%TO.P,J1,3,3*%
%TO.N,/L_IN*%
X172500000Y-93000000D03*
%TO.P,J1,4,4*%
%TO.N,/R_IN*%
X177500000Y-93000000D03*
%TD*%
D10*
%TO.P,J7,1,M*%
%TO.N,/M_OUT2*%
X172700000Y-115000000D03*
%TO.P,J7,2,L*%
%TO.N,/L_OUT2*%
X181100000Y-110000000D03*
%TO.P,J7,3,R*%
%TO.N,/R_OUT2*%
X175900000Y-106900000D03*
%TO.P,J7,4,G*%
%TO.N,Net-(J4-G)*%
X182000000Y-115000000D03*
%TO.P,J7,7*%
%TO.N,N/C*%
X179100000Y-106900000D03*
%TD*%
%TO.P,J5,1,M*%
%TO.N,/M_MIC*%
X187700000Y-115000000D03*
%TO.P,J5,2,L*%
%TO.N,unconnected-(J5-L-Pad2)*%
X196100000Y-110000000D03*
%TO.P,J5,3,R*%
%TO.N,unconnected-(J5-R-Pad3)*%
X190900000Y-106900000D03*
%TO.P,J5,4,G*%
%TO.N,Net-(J4-G)*%
X197000000Y-115000000D03*
%TO.P,J5,7*%
%TO.N,N/C*%
X194100000Y-106900000D03*
%TD*%
D11*
%TO.P,J3,1,1*%
%TO.N,/M_OUT2*%
X162500000Y-88200000D03*
%TO.P,J3,2,2*%
%TO.N,Net-(J4-G)*%
X167500000Y-88200000D03*
%TO.P,J3,3,3*%
%TO.N,/L_OUT2*%
X172500000Y-88200000D03*
%TO.P,J3,4,4*%
%TO.N,/R_OUT2*%
X177500000Y-88200000D03*
%TD*%
%TO.P,J2,1,1*%
%TO.N,/M_OUT1*%
X162500000Y-97800000D03*
%TO.P,J2,2,2*%
%TO.N,Net-(J4-G)*%
X167500000Y-97800000D03*
%TO.P,J2,3,3*%
%TO.N,/L_OUT1*%
X172500000Y-97800000D03*
%TO.P,J2,4,4*%
%TO.N,/R_OUT1*%
X177500000Y-97800000D03*
%TD*%
D12*
%TO.N,Net-(J4-G)*%
X147320000Y-104140000D03*
X147320000Y-96520000D03*
X147320000Y-99060000D03*
X147320000Y-101600000D03*
X142240000Y-111760000D03*
X144780000Y-109220000D03*
X144780000Y-111760000D03*
X149860000Y-111760000D03*
X182880000Y-116840000D03*
X182880000Y-111760000D03*
X182880000Y-106680000D03*
X182880000Y-104140000D03*
X182880000Y-101600000D03*
X160020000Y-99060000D03*
X160020000Y-96520000D03*
X160020000Y-93980000D03*
X160020000Y-91440000D03*
X160020000Y-88900000D03*
X160020000Y-86360000D03*
X182880000Y-83820000D03*
X182880000Y-86360000D03*
X182880000Y-81280000D03*
X182880000Y-99060000D03*
X182880000Y-88900000D03*
X182880000Y-91440000D03*
X182880000Y-96520000D03*
X182880000Y-93980000D03*
X167640000Y-83820000D03*
X175260000Y-83820000D03*
X170180000Y-83820000D03*
X160020000Y-83820000D03*
X165100000Y-83820000D03*
X177800000Y-83820000D03*
X157480000Y-83820000D03*
X172720000Y-83820000D03*
X180340000Y-83820000D03*
X162560000Y-83820000D03*
X167640000Y-116840000D03*
X170180000Y-116840000D03*
X157480000Y-116840000D03*
X172720000Y-116840000D03*
X180340000Y-116840000D03*
X175260000Y-114300000D03*
X170180000Y-114300000D03*
X160020000Y-114300000D03*
X165100000Y-114300000D03*
X172720000Y-114300000D03*
X180340000Y-114300000D03*
X167640000Y-111760000D03*
X175260000Y-111760000D03*
X170180000Y-111760000D03*
X160020000Y-111760000D03*
X165100000Y-111760000D03*
X177800000Y-111760000D03*
X157480000Y-111760000D03*
X172720000Y-111760000D03*
X180340000Y-111760000D03*
X162560000Y-111760000D03*
X167640000Y-109220000D03*
X175260000Y-109220000D03*
X170180000Y-109220000D03*
X160020000Y-109220000D03*
X157480000Y-109220000D03*
X172720000Y-109220000D03*
X167640000Y-106680000D03*
X170180000Y-106680000D03*
X157480000Y-106680000D03*
X172720000Y-106680000D03*
X162560000Y-106680000D03*
X167640000Y-104140000D03*
X175260000Y-104140000D03*
X170180000Y-104140000D03*
X160020000Y-104140000D03*
X165100000Y-104140000D03*
X177800000Y-104140000D03*
X157480000Y-104140000D03*
X172720000Y-104140000D03*
X180340000Y-104140000D03*
X162560000Y-104140000D03*
X167640000Y-101600000D03*
X175260000Y-101600000D03*
X170180000Y-101600000D03*
X160020000Y-101600000D03*
X165100000Y-101600000D03*
X177800000Y-101600000D03*
X157480000Y-101600000D03*
X172720000Y-101600000D03*
X180340000Y-101600000D03*
X162560000Y-101600000D03*
X142240000Y-116840000D03*
X144780000Y-116840000D03*
X154940000Y-116840000D03*
X157480000Y-116840000D03*
X152400000Y-116840000D03*
X144780000Y-114300000D03*
X154940000Y-114300000D03*
X147320000Y-114300000D03*
X149860000Y-114300000D03*
X154940000Y-111760000D03*
X147320000Y-111760000D03*
X157480000Y-111760000D03*
X152400000Y-111760000D03*
X142240000Y-109220000D03*
X154940000Y-109220000D03*
X157480000Y-109220000D03*
X142240000Y-106680000D03*
X154940000Y-106680000D03*
X157480000Y-106680000D03*
X152400000Y-106680000D03*
X142240000Y-104140000D03*
X144780000Y-104140000D03*
X154940000Y-104140000D03*
X149860000Y-104140000D03*
X157480000Y-104140000D03*
X152400000Y-104140000D03*
X142240000Y-101600000D03*
X144780000Y-101600000D03*
X154940000Y-101600000D03*
X149860000Y-101600000D03*
X157480000Y-101600000D03*
X152400000Y-101600000D03*
X142240000Y-99060000D03*
X144780000Y-99060000D03*
X154940000Y-99060000D03*
X149860000Y-99060000D03*
X157480000Y-99060000D03*
X152400000Y-99060000D03*
X142240000Y-96520000D03*
X144780000Y-96520000D03*
X154940000Y-96520000D03*
X149860000Y-96520000D03*
X157480000Y-96520000D03*
X152400000Y-96520000D03*
X142240000Y-93980000D03*
X144780000Y-93980000D03*
X154940000Y-93980000D03*
X157480000Y-93980000D03*
X152400000Y-93980000D03*
X142240000Y-91440000D03*
X144780000Y-91440000D03*
X154940000Y-91440000D03*
X149860000Y-91440000D03*
X157480000Y-91440000D03*
X152400000Y-91440000D03*
X142240000Y-88900000D03*
X144780000Y-88900000D03*
X154940000Y-88900000D03*
X147320000Y-88900000D03*
X149860000Y-88900000D03*
X157480000Y-88900000D03*
X152400000Y-88900000D03*
X142240000Y-86360000D03*
X144780000Y-86360000D03*
X154940000Y-86360000D03*
X147320000Y-86360000D03*
X149860000Y-86360000D03*
X157480000Y-86360000D03*
X152400000Y-86360000D03*
X142240000Y-83820000D03*
X144780000Y-83820000D03*
X154940000Y-83820000D03*
X147320000Y-83820000D03*
X149860000Y-83820000D03*
X157480000Y-83820000D03*
X152400000Y-83820000D03*
X185420000Y-116840000D03*
X195580000Y-116840000D03*
X198120000Y-116840000D03*
X187960000Y-116840000D03*
X185420000Y-114300000D03*
X193040000Y-114300000D03*
X195580000Y-114300000D03*
X190500000Y-114300000D03*
X185420000Y-111760000D03*
X193040000Y-111760000D03*
X195580000Y-111760000D03*
X198120000Y-111760000D03*
X187960000Y-111760000D03*
X190500000Y-111760000D03*
X185420000Y-109220000D03*
X193040000Y-109220000D03*
X198120000Y-109220000D03*
X187960000Y-109220000D03*
X190500000Y-109220000D03*
X185420000Y-106680000D03*
X195580000Y-106680000D03*
X198120000Y-106680000D03*
X187960000Y-106680000D03*
X185420000Y-104140000D03*
X193040000Y-104140000D03*
X195580000Y-104140000D03*
X198120000Y-104140000D03*
X187960000Y-104140000D03*
X190500000Y-104140000D03*
X185420000Y-101600000D03*
X193040000Y-101600000D03*
X195580000Y-101600000D03*
X198120000Y-101600000D03*
X187960000Y-101600000D03*
X190500000Y-101600000D03*
X185420000Y-99060000D03*
X193040000Y-99060000D03*
X195580000Y-99060000D03*
X198120000Y-99060000D03*
X187960000Y-99060000D03*
X190500000Y-99060000D03*
X185420000Y-96520000D03*
X193040000Y-96520000D03*
X195580000Y-96520000D03*
X198120000Y-96520000D03*
X187960000Y-96520000D03*
X190500000Y-96520000D03*
X185420000Y-93980000D03*
X193040000Y-93980000D03*
X195580000Y-93980000D03*
X198120000Y-93980000D03*
X187960000Y-93980000D03*
X190500000Y-93980000D03*
X185420000Y-91440000D03*
X193040000Y-91440000D03*
X195580000Y-91440000D03*
X198120000Y-91440000D03*
X187960000Y-91440000D03*
X190500000Y-91440000D03*
X185420000Y-88900000D03*
X193040000Y-88900000D03*
X195580000Y-88900000D03*
X198120000Y-88900000D03*
X187960000Y-88900000D03*
X190500000Y-88900000D03*
X185420000Y-86360000D03*
X193040000Y-86360000D03*
X195580000Y-86360000D03*
X198120000Y-86360000D03*
X187960000Y-86360000D03*
X190500000Y-86360000D03*
X190500000Y-83820000D03*
X198120000Y-83820000D03*
X185420000Y-83820000D03*
X187960000Y-83820000D03*
X193040000Y-83820000D03*
X182880000Y-83820000D03*
X195580000Y-83820000D03*
X170180000Y-78740000D03*
X177800000Y-78740000D03*
X142240000Y-78740000D03*
X172720000Y-78740000D03*
X190500000Y-78740000D03*
X198120000Y-78740000D03*
X144780000Y-78740000D03*
X162560000Y-78740000D03*
X167640000Y-78740000D03*
X154940000Y-78740000D03*
X147320000Y-78740000D03*
X180340000Y-78740000D03*
X185420000Y-78740000D03*
X187960000Y-78740000D03*
X149860000Y-78740000D03*
X157480000Y-78740000D03*
X160020000Y-78740000D03*
X152400000Y-78740000D03*
X193040000Y-78740000D03*
X175260000Y-78740000D03*
X182880000Y-78740000D03*
X165100000Y-78740000D03*
X195580000Y-78740000D03*
X142240000Y-81280000D03*
X144780000Y-81280000D03*
X147320000Y-81280000D03*
X149860000Y-81280000D03*
X154940000Y-81280000D03*
X152400000Y-81280000D03*
X157480000Y-81280000D03*
X160020000Y-81280000D03*
X162560000Y-81280000D03*
X165100000Y-81280000D03*
X167640000Y-81280000D03*
X170180000Y-81280000D03*
X172720000Y-81280000D03*
X175260000Y-81280000D03*
X198120000Y-81280000D03*
X195580000Y-81280000D03*
X193040000Y-81280000D03*
X190500000Y-81280000D03*
X187960000Y-81280000D03*
X185420000Y-81280000D03*
X182880000Y-81280000D03*
X180340000Y-81280000D03*
X177800000Y-81280000D03*
%TD*%
D13*
%TO.N,/M_OUT1*%
X157700000Y-115000000D02*
X158648400Y-114051600D01*
X158648400Y-114051600D02*
X158648400Y-101651600D01*
X158648400Y-101651600D02*
X162500000Y-97800000D01*
%TO.N,/R_OUT2*%
X175900000Y-105232200D02*
X175900000Y-106900000D01*
X177500000Y-88200000D02*
X177500000Y-86110800D01*
X177500000Y-86110800D02*
X177495200Y-86106000D01*
X177870000Y-85731200D02*
X179548472Y-85731200D01*
X177495200Y-86106000D02*
X177870000Y-85731200D01*
X179548472Y-85731200D02*
X180500000Y-86682728D01*
X180500000Y-86682728D02*
X180500000Y-100195400D01*
X180500000Y-100195400D02*
X175900000Y-104795400D01*
X175900000Y-104795400D02*
X175900000Y-105232200D01*
%TO.N,/M_OUT2*%
X172700000Y-115000000D02*
X173009950Y-115000000D01*
X182400000Y-109461522D02*
X181700000Y-108761522D01*
X173009950Y-115000000D02*
X175549950Y-112460000D01*
X180086000Y-84531200D02*
X166168800Y-84531200D01*
X175549950Y-112460000D02*
X180629950Y-112460000D01*
X180629950Y-112460000D02*
X182400000Y-110689950D01*
X182400000Y-110689950D02*
X182400000Y-109461522D01*
X181700000Y-108761522D02*
X181700000Y-86145200D01*
X166168800Y-84531200D02*
X162500000Y-88200000D01*
X181700000Y-86145200D02*
X180086000Y-84531200D01*
%TO.N,/L_OUT2*%
X181100000Y-110000000D02*
X181100000Y-86434200D01*
X181100000Y-86434200D02*
X179797000Y-85131200D01*
X179797000Y-85131200D02*
X175568800Y-85131200D01*
X175568800Y-85131200D02*
X172500000Y-88200000D01*
%TO.N,/R_OUT1*%
X177500000Y-97800000D02*
X175026200Y-95326200D01*
X163863200Y-103936800D02*
X160900000Y-106900000D01*
X175026200Y-95326200D02*
X170942000Y-95326200D01*
X170942000Y-95326200D02*
X170078400Y-96189800D01*
X170078400Y-96189800D02*
X170078400Y-99373072D01*
X170078400Y-99373072D02*
X165500000Y-103951472D01*
X165500000Y-103951472D02*
X165485328Y-103936800D01*
X165485328Y-103936800D02*
X163863200Y-103936800D01*
%TO.N,/L_OUT1*%
X166100000Y-110000000D02*
X166100000Y-104200000D01*
X166100000Y-104200000D02*
X172500000Y-97800000D01*
%TD*%
%TA.AperFunction,Conductor*%
%TO.N,Net-(J4-G)*%
G36*
X199002692Y-77900735D02*
G01*
X199045551Y-77904485D01*
X199171760Y-77916915D01*
X199191677Y-77920539D01*
X199258392Y-77938415D01*
X199319827Y-77957051D01*
X199351556Y-77966677D01*
X199367965Y-77972955D01*
X199435390Y-78004397D01*
X199438414Y-78005908D01*
X199487048Y-78031902D01*
X199522327Y-78050759D01*
X199528649Y-78054643D01*
X199594855Y-78101001D01*
X199598616Y-78103855D01*
X199670801Y-78163096D01*
X199675301Y-78167174D01*
X199732819Y-78224692D01*
X199736899Y-78229194D01*
X199796150Y-78301394D01*
X199799012Y-78305165D01*
X199845342Y-78371331D01*
X199849238Y-78377672D01*
X199894093Y-78461590D01*
X199895605Y-78464615D01*
X199927041Y-78532028D01*
X199933320Y-78548438D01*
X199961598Y-78641659D01*
X199979454Y-78708301D01*
X199983082Y-78728239D01*
X199995523Y-78854552D01*
X199999264Y-78897302D01*
X199999500Y-78902709D01*
X199999500Y-116897292D01*
X199999264Y-116902698D01*
X199995520Y-116945490D01*
X199983085Y-117071746D01*
X199979457Y-117091684D01*
X199961583Y-117158396D01*
X199933324Y-117251550D01*
X199927046Y-117267959D01*
X199895592Y-117335411D01*
X199894080Y-117338437D01*
X199849249Y-117422308D01*
X199845354Y-117428649D01*
X199798994Y-117494858D01*
X199796132Y-117498630D01*
X199736906Y-117570797D01*
X199732818Y-117575308D01*
X199675309Y-117632817D01*
X199670798Y-117636905D01*
X199598618Y-117696142D01*
X199594846Y-117699004D01*
X199528663Y-117745345D01*
X199522322Y-117749241D01*
X199438403Y-117794095D01*
X199435380Y-117795606D01*
X199367971Y-117827041D01*
X199351560Y-117833321D01*
X199258359Y-117861593D01*
X199191692Y-117879455D01*
X199171754Y-117883083D01*
X199045468Y-117895521D01*
X199004815Y-117899078D01*
X199002696Y-117899264D01*
X198997290Y-117899500D01*
X194874500Y-117899500D01*
X194807461Y-117879815D01*
X194761706Y-117827011D01*
X194750500Y-117775500D01*
X194750500Y-116624759D01*
X194750528Y-116624616D01*
X194750524Y-116624616D01*
X194750539Y-116600002D01*
X194750541Y-116600000D01*
X194750462Y-116599808D01*
X194750384Y-116599618D01*
X194750382Y-116599616D01*
X194750099Y-116599500D01*
X194750000Y-116599459D01*
X194725446Y-116599459D01*
X194725240Y-116599500D01*
X190274760Y-116599500D01*
X190274554Y-116599459D01*
X190250000Y-116599459D01*
X190249901Y-116599500D01*
X190249617Y-116599616D01*
X190249615Y-116599618D01*
X190249459Y-116599999D01*
X190249476Y-116624616D01*
X190249471Y-116624616D01*
X190249500Y-116624759D01*
X190249500Y-117775500D01*
X190229815Y-117842539D01*
X190177011Y-117888294D01*
X190125500Y-117899500D01*
X179874500Y-117899500D01*
X179807461Y-117879815D01*
X179761706Y-117827011D01*
X179750500Y-117775500D01*
X179750500Y-116624759D01*
X179750528Y-116624616D01*
X179750524Y-116624616D01*
X179750539Y-116600002D01*
X179750541Y-116600000D01*
X179750462Y-116599808D01*
X179750384Y-116599618D01*
X179750382Y-116599616D01*
X179750099Y-116599500D01*
X179750000Y-116599459D01*
X179725446Y-116599459D01*
X179725240Y-116599500D01*
X175274760Y-116599500D01*
X175274554Y-116599459D01*
X175250000Y-116599459D01*
X175249901Y-116599500D01*
X175249617Y-116599616D01*
X175249615Y-116599618D01*
X175249459Y-116599999D01*
X175249476Y-116624616D01*
X175249471Y-116624616D01*
X175249500Y-116624759D01*
X175249500Y-117775500D01*
X175229815Y-117842539D01*
X175177011Y-117888294D01*
X175125500Y-117899500D01*
X164874500Y-117899500D01*
X164807461Y-117879815D01*
X164761706Y-117827011D01*
X164750500Y-117775500D01*
X164750500Y-116624759D01*
X164750528Y-116624616D01*
X164750524Y-116624616D01*
X164750539Y-116600002D01*
X164750541Y-116600000D01*
X164750462Y-116599808D01*
X164750384Y-116599618D01*
X164750382Y-116599616D01*
X164750099Y-116599500D01*
X164750000Y-116599459D01*
X164725446Y-116599459D01*
X164725240Y-116599500D01*
X160274760Y-116599500D01*
X160274554Y-116599459D01*
X160250000Y-116599459D01*
X160249901Y-116599500D01*
X160249617Y-116599616D01*
X160249615Y-116599618D01*
X160249459Y-116599999D01*
X160249476Y-116624616D01*
X160249471Y-116624616D01*
X160249500Y-116624759D01*
X160249500Y-117775500D01*
X160229815Y-117842539D01*
X160177011Y-117888294D01*
X160125500Y-117899500D01*
X149874500Y-117899500D01*
X149807461Y-117879815D01*
X149761706Y-117827011D01*
X149750500Y-117775500D01*
X149750500Y-116624759D01*
X149750528Y-116624616D01*
X149750524Y-116624616D01*
X149750539Y-116600002D01*
X149750541Y-116600000D01*
X149750462Y-116599808D01*
X149750384Y-116599618D01*
X149750382Y-116599616D01*
X149750099Y-116599500D01*
X149750000Y-116599459D01*
X149725446Y-116599459D01*
X149725240Y-116599500D01*
X145274760Y-116599500D01*
X145274554Y-116599459D01*
X145250000Y-116599459D01*
X145249901Y-116599500D01*
X145249617Y-116599616D01*
X145249615Y-116599618D01*
X145249459Y-116599999D01*
X145249476Y-116624616D01*
X145249471Y-116624616D01*
X145249500Y-116624759D01*
X145249500Y-117775500D01*
X145229815Y-117842539D01*
X145177011Y-117888294D01*
X145125500Y-117899500D01*
X141002706Y-117899500D01*
X140997305Y-117899264D01*
X140981659Y-117897895D01*
X140954514Y-117895520D01*
X140944843Y-117894568D01*
X140828250Y-117883085D01*
X140808312Y-117879457D01*
X140741612Y-117861586D01*
X140648441Y-117833322D01*
X140632031Y-117827043D01*
X140564616Y-117795606D01*
X140561592Y-117794094D01*
X140477677Y-117749242D01*
X140471341Y-117745349D01*
X140405153Y-117699004D01*
X140401382Y-117696143D01*
X140329197Y-117636902D01*
X140324696Y-117632823D01*
X140267178Y-117575305D01*
X140263099Y-117570804D01*
X140203848Y-117498604D01*
X140200986Y-117494833D01*
X140187837Y-117476055D01*
X140154648Y-117428656D01*
X140150760Y-117422325D01*
X140105909Y-117338414D01*
X140104397Y-117335391D01*
X140093223Y-117311429D01*
X140072953Y-117267961D01*
X140066681Y-117251568D01*
X140038404Y-117158352D01*
X140020541Y-117091684D01*
X140016916Y-117071759D01*
X140004483Y-116945535D01*
X140000735Y-116902695D01*
X140000500Y-116897293D01*
X140000500Y-115000000D01*
X141594785Y-115000000D01*
X141613602Y-115203082D01*
X141669417Y-115399247D01*
X141669422Y-115399260D01*
X141760327Y-115581821D01*
X141883237Y-115744581D01*
X142033958Y-115881980D01*
X142033960Y-115881982D01*
X142133141Y-115943392D01*
X142207363Y-115989348D01*
X142397544Y-116063024D01*
X142598024Y-116100500D01*
X142598026Y-116100500D01*
X142801974Y-116100500D01*
X142801976Y-116100500D01*
X143002456Y-116063024D01*
X143192637Y-115989348D01*
X143366041Y-115881981D01*
X143516764Y-115744579D01*
X143639673Y-115581821D01*
X143730582Y-115399250D01*
X143786397Y-115203083D01*
X143801144Y-115043933D01*
X146745668Y-115043933D01*
X146761058Y-115131210D01*
X146776135Y-115216711D01*
X146845623Y-115377804D01*
X146845624Y-115377806D01*
X146845626Y-115377809D01*
X146936595Y-115500000D01*
X146950390Y-115518530D01*
X147084786Y-115631302D01*
X147159065Y-115668606D01*
X147241562Y-115710038D01*
X147241563Y-115710038D01*
X147241567Y-115710040D01*
X147412279Y-115750500D01*
X147412282Y-115750500D01*
X147543701Y-115750500D01*
X147543709Y-115750500D01*
X147674255Y-115735241D01*
X147839117Y-115675237D01*
X147985696Y-115578830D01*
X148106092Y-115451218D01*
X148193812Y-115299281D01*
X148244130Y-115131210D01*
X148251772Y-115000005D01*
X150595202Y-115000005D01*
X150614361Y-115231218D01*
X150671317Y-115456135D01*
X150764516Y-115668609D01*
X150848811Y-115797633D01*
X151516922Y-115129523D01*
X151540507Y-115209844D01*
X151618239Y-115330798D01*
X151726900Y-115424952D01*
X151857685Y-115484680D01*
X151867466Y-115486086D01*
X151201199Y-116152351D01*
X151231650Y-116176050D01*
X151435697Y-116286476D01*
X151435706Y-116286479D01*
X151655139Y-116361811D01*
X151883993Y-116400000D01*
X152116007Y-116400000D01*
X152344860Y-116361811D01*
X152564293Y-116286479D01*
X152564302Y-116286476D01*
X152768350Y-116176050D01*
X152798798Y-116152351D01*
X152132533Y-115486086D01*
X152142315Y-115484680D01*
X152273100Y-115424952D01*
X152381761Y-115330798D01*
X152459493Y-115209844D01*
X152483076Y-115129524D01*
X153151186Y-115797634D01*
X153235484Y-115668606D01*
X153328682Y-115456135D01*
X153385638Y-115231218D01*
X153404798Y-115000005D01*
X153404798Y-115000000D01*
X156594785Y-115000000D01*
X156613602Y-115203082D01*
X156669417Y-115399247D01*
X156669422Y-115399260D01*
X156760327Y-115581821D01*
X156883237Y-115744581D01*
X157033958Y-115881980D01*
X157033960Y-115881982D01*
X157133141Y-115943392D01*
X157207363Y-115989348D01*
X157397544Y-116063024D01*
X157598024Y-116100500D01*
X157598026Y-116100500D01*
X157801974Y-116100500D01*
X157801976Y-116100500D01*
X158002456Y-116063024D01*
X158192637Y-115989348D01*
X158366041Y-115881981D01*
X158516764Y-115744579D01*
X158639673Y-115581821D01*
X158730582Y-115399250D01*
X158786397Y-115203083D01*
X158801144Y-115043933D01*
X161745668Y-115043933D01*
X161761058Y-115131210D01*
X161776135Y-115216711D01*
X161845623Y-115377804D01*
X161845624Y-115377806D01*
X161845626Y-115377809D01*
X161936595Y-115500000D01*
X161950390Y-115518530D01*
X162084786Y-115631302D01*
X162159065Y-115668606D01*
X162241562Y-115710038D01*
X162241563Y-115710038D01*
X162241567Y-115710040D01*
X162412279Y-115750500D01*
X162412282Y-115750500D01*
X162543701Y-115750500D01*
X162543709Y-115750500D01*
X162674255Y-115735241D01*
X162839117Y-115675237D01*
X162985696Y-115578830D01*
X163106092Y-115451218D01*
X163193812Y-115299281D01*
X163244130Y-115131210D01*
X163251772Y-115000005D01*
X165595202Y-115000005D01*
X165614361Y-115231218D01*
X165671317Y-115456135D01*
X165764516Y-115668609D01*
X165848811Y-115797633D01*
X166516922Y-115129522D01*
X166540507Y-115209844D01*
X166618239Y-115330798D01*
X166726900Y-115424952D01*
X166857685Y-115484680D01*
X166867466Y-115486086D01*
X166201199Y-116152351D01*
X166231650Y-116176050D01*
X166435697Y-116286476D01*
X166435706Y-116286479D01*
X166655139Y-116361811D01*
X166883993Y-116400000D01*
X167116007Y-116400000D01*
X167344860Y-116361811D01*
X167564293Y-116286479D01*
X167564302Y-116286476D01*
X167768350Y-116176050D01*
X167798798Y-116152351D01*
X167132533Y-115486086D01*
X167142315Y-115484680D01*
X167273100Y-115424952D01*
X167381761Y-115330798D01*
X167459493Y-115209844D01*
X167483076Y-115129524D01*
X168151186Y-115797634D01*
X168235484Y-115668606D01*
X168328682Y-115456135D01*
X168385638Y-115231218D01*
X168404798Y-115000005D01*
X168404798Y-114999994D01*
X168385638Y-114768781D01*
X168328682Y-114543864D01*
X168235483Y-114331390D01*
X168151186Y-114202364D01*
X167483076Y-114870474D01*
X167459493Y-114790156D01*
X167381761Y-114669202D01*
X167273100Y-114575048D01*
X167142315Y-114515320D01*
X167132532Y-114513913D01*
X167798799Y-113847647D01*
X167768349Y-113823949D01*
X167564302Y-113713523D01*
X167564293Y-113713520D01*
X167344860Y-113638188D01*
X167116007Y-113600000D01*
X166883993Y-113600000D01*
X166655139Y-113638188D01*
X166435706Y-113713520D01*
X166435698Y-113713523D01*
X166231644Y-113823952D01*
X166201200Y-113847646D01*
X166201200Y-113847647D01*
X166867465Y-114513913D01*
X166857685Y-114515320D01*
X166726900Y-114575048D01*
X166618239Y-114669202D01*
X166540507Y-114790156D01*
X166516923Y-114870476D01*
X165848812Y-114202365D01*
X165764516Y-114331391D01*
X165764514Y-114331395D01*
X165671317Y-114543864D01*
X165614361Y-114768781D01*
X165595202Y-114999994D01*
X165595202Y-115000005D01*
X163251772Y-115000005D01*
X163254331Y-114956065D01*
X163223865Y-114783289D01*
X163154377Y-114622196D01*
X163138412Y-114600752D01*
X163049609Y-114481469D01*
X162915214Y-114368698D01*
X162915212Y-114368697D01*
X162758437Y-114289961D01*
X162758344Y-114289939D01*
X162587721Y-114249500D01*
X162456291Y-114249500D01*
X162353567Y-114261507D01*
X162325743Y-114264759D01*
X162325740Y-114264760D01*
X162160884Y-114324762D01*
X162160880Y-114324764D01*
X162014306Y-114421167D01*
X162014305Y-114421168D01*
X161893910Y-114548778D01*
X161806188Y-114700718D01*
X161755870Y-114868789D01*
X161755869Y-114868794D01*
X161745668Y-115043933D01*
X158801144Y-115043933D01*
X158805215Y-115000000D01*
X158805214Y-114999994D01*
X158786397Y-114796918D01*
X158786397Y-114796917D01*
X158736139Y-114620280D01*
X158736725Y-114550416D01*
X158767722Y-114498669D01*
X158953883Y-114312509D01*
X158953882Y-114312508D01*
X158976450Y-114289942D01*
X158986506Y-114270203D01*
X158996670Y-114253616D01*
X159009696Y-114235690D01*
X159016542Y-114214616D01*
X159023985Y-114196647D01*
X159034046Y-114176904D01*
X159037512Y-114155017D01*
X159042055Y-114136098D01*
X159048900Y-114115033D01*
X159048900Y-113988167D01*
X159048900Y-113988166D01*
X159048900Y-110043933D01*
X161745668Y-110043933D01*
X161761058Y-110131210D01*
X161776135Y-110216711D01*
X161845623Y-110377804D01*
X161845624Y-110377806D01*
X161845626Y-110377809D01*
X161861596Y-110399260D01*
X161950390Y-110518530D01*
X162084786Y-110631302D01*
X162162488Y-110670325D01*
X162241562Y-110710038D01*
X162241563Y-110710038D01*
X162241567Y-110710040D01*
X162412279Y-110750500D01*
X162412282Y-110750500D01*
X162543701Y-110750500D01*
X162543709Y-110750500D01*
X162674255Y-110735241D01*
X162839117Y-110675237D01*
X162985696Y-110578830D01*
X163106092Y-110451218D01*
X163193812Y-110299281D01*
X163244130Y-110131210D01*
X163254331Y-109956065D01*
X163223865Y-109783289D01*
X163154377Y-109622196D01*
X163138412Y-109600752D01*
X163049609Y-109481469D01*
X162915214Y-109368698D01*
X162915212Y-109368697D01*
X162758437Y-109289961D01*
X162758433Y-109289960D01*
X162587721Y-109249500D01*
X162456291Y-109249500D01*
X162351854Y-109261707D01*
X162325743Y-109264759D01*
X162325740Y-109264760D01*
X162160884Y-109324762D01*
X162160880Y-109324764D01*
X162014306Y-109421167D01*
X162014305Y-109421168D01*
X161893910Y-109548778D01*
X161806188Y-109700718D01*
X161755870Y-109868789D01*
X161755869Y-109868794D01*
X161745668Y-110043933D01*
X159048900Y-110043933D01*
X159048900Y-106900000D01*
X159794785Y-106900000D01*
X159813602Y-107103082D01*
X159869417Y-107299247D01*
X159869422Y-107299260D01*
X159960327Y-107481821D01*
X160083237Y-107644581D01*
X160233958Y-107781980D01*
X160233960Y-107781982D01*
X160333141Y-107843392D01*
X160407363Y-107889348D01*
X160597544Y-107963024D01*
X160798024Y-108000500D01*
X160798026Y-108000500D01*
X161001974Y-108000500D01*
X161001976Y-108000500D01*
X161202456Y-107963024D01*
X161392637Y-107889348D01*
X161566041Y-107781981D01*
X161716764Y-107644579D01*
X161839673Y-107481821D01*
X161930582Y-107299250D01*
X161986397Y-107103083D01*
X162005215Y-106900000D01*
X162994785Y-106900000D01*
X163013602Y-107103082D01*
X163069417Y-107299247D01*
X163069422Y-107299260D01*
X163160327Y-107481821D01*
X163283237Y-107644581D01*
X163433958Y-107781980D01*
X163433960Y-107781982D01*
X163533141Y-107843392D01*
X163607363Y-107889348D01*
X163797544Y-107963024D01*
X163998024Y-108000500D01*
X163998026Y-108000500D01*
X164201974Y-108000500D01*
X164201976Y-108000500D01*
X164402456Y-107963024D01*
X164592637Y-107889348D01*
X164766041Y-107781981D01*
X164916764Y-107644579D01*
X165039673Y-107481821D01*
X165130582Y-107299250D01*
X165186397Y-107103083D01*
X165205215Y-106900000D01*
X165186397Y-106696917D01*
X165130582Y-106500750D01*
X165039673Y-106318179D01*
X164916764Y-106155421D01*
X164916762Y-106155418D01*
X164766041Y-106018019D01*
X164766039Y-106018017D01*
X164592642Y-105910655D01*
X164592639Y-105910653D01*
X164592637Y-105910652D01*
X164592636Y-105910651D01*
X164592635Y-105910651D01*
X164469805Y-105863067D01*
X164402456Y-105836976D01*
X164201976Y-105799500D01*
X163998024Y-105799500D01*
X163797544Y-105836976D01*
X163797541Y-105836976D01*
X163797541Y-105836977D01*
X163607364Y-105910651D01*
X163607357Y-105910655D01*
X163433960Y-106018017D01*
X163433958Y-106018019D01*
X163283237Y-106155418D01*
X163160327Y-106318178D01*
X163069422Y-106500739D01*
X163069417Y-106500752D01*
X163013602Y-106696917D01*
X162994785Y-106899999D01*
X162994785Y-106900000D01*
X162005215Y-106900000D01*
X161986397Y-106696917D01*
X161936139Y-106520280D01*
X161936725Y-106450416D01*
X161967722Y-106398669D01*
X163992773Y-104373619D01*
X164054097Y-104340134D01*
X164080455Y-104337300D01*
X165371771Y-104337300D01*
X165410089Y-104343368D01*
X165436567Y-104351972D01*
X165436568Y-104351972D01*
X165573192Y-104351972D01*
X165573192Y-104355344D01*
X165625374Y-104362078D01*
X165678835Y-104407064D01*
X165699487Y-104473812D01*
X165699500Y-104475606D01*
X165699500Y-108890015D01*
X165679815Y-108957054D01*
X165627011Y-109002809D01*
X165620296Y-109005641D01*
X165607368Y-109010649D01*
X165607359Y-109010653D01*
X165433960Y-109118017D01*
X165433958Y-109118019D01*
X165283237Y-109255418D01*
X165160327Y-109418178D01*
X165069422Y-109600739D01*
X165069417Y-109600752D01*
X165013602Y-109796917D01*
X164994785Y-109999999D01*
X164994785Y-110000000D01*
X165013602Y-110203082D01*
X165069417Y-110399247D01*
X165069422Y-110399260D01*
X165160327Y-110581821D01*
X165283237Y-110744581D01*
X165433958Y-110881980D01*
X165433960Y-110881982D01*
X165476879Y-110908556D01*
X165607363Y-110989348D01*
X165797544Y-111063024D01*
X165998024Y-111100500D01*
X165998026Y-111100500D01*
X166201974Y-111100500D01*
X166201976Y-111100500D01*
X166402456Y-111063024D01*
X166592637Y-110989348D01*
X166766041Y-110881981D01*
X166894122Y-110765219D01*
X166916762Y-110744581D01*
X166916764Y-110744579D01*
X167039673Y-110581821D01*
X167130582Y-110399250D01*
X167186397Y-110203083D01*
X167201144Y-110043933D01*
X176745668Y-110043933D01*
X176761058Y-110131210D01*
X176776135Y-110216711D01*
X176845623Y-110377804D01*
X176845624Y-110377806D01*
X176845626Y-110377809D01*
X176861596Y-110399260D01*
X176950390Y-110518530D01*
X177084786Y-110631302D01*
X177162488Y-110670325D01*
X177241562Y-110710038D01*
X177241563Y-110710038D01*
X177241567Y-110710040D01*
X177412279Y-110750500D01*
X177412282Y-110750500D01*
X177543701Y-110750500D01*
X177543709Y-110750500D01*
X177674255Y-110735241D01*
X177839117Y-110675237D01*
X177985696Y-110578830D01*
X178106092Y-110451218D01*
X178193812Y-110299281D01*
X178244130Y-110131210D01*
X178254331Y-109956065D01*
X178223865Y-109783289D01*
X178154377Y-109622196D01*
X178138412Y-109600752D01*
X178049609Y-109481469D01*
X177915214Y-109368698D01*
X177915212Y-109368697D01*
X177758437Y-109289961D01*
X177758433Y-109289960D01*
X177587721Y-109249500D01*
X177456291Y-109249500D01*
X177351854Y-109261707D01*
X177325743Y-109264759D01*
X177325740Y-109264760D01*
X177160884Y-109324762D01*
X177160880Y-109324764D01*
X177014306Y-109421167D01*
X177014305Y-109421168D01*
X176893910Y-109548778D01*
X176806188Y-109700718D01*
X176755870Y-109868789D01*
X176755869Y-109868794D01*
X176745668Y-110043933D01*
X167201144Y-110043933D01*
X167205215Y-110000000D01*
X167186397Y-109796917D01*
X167130582Y-109600750D01*
X167039673Y-109418179D01*
X166949293Y-109298496D01*
X166916762Y-109255418D01*
X166766041Y-109118019D01*
X166766039Y-109118017D01*
X166592640Y-109010653D01*
X166592631Y-109010649D01*
X166579704Y-109005641D01*
X166524303Y-108963067D01*
X166500714Y-108897299D01*
X166500500Y-108890015D01*
X166500500Y-104417254D01*
X166520185Y-104350215D01*
X166536814Y-104329578D01*
X171279639Y-99586752D01*
X171340960Y-99553269D01*
X171401428Y-99555218D01*
X171522582Y-99589886D01*
X171641963Y-99600500D01*
X171641964Y-99600499D01*
X171641965Y-99600500D01*
X171641966Y-99600500D01*
X172378404Y-99600499D01*
X173358036Y-99600499D01*
X173477418Y-99589886D01*
X173673049Y-99533909D01*
X173853407Y-99439698D01*
X174011109Y-99311109D01*
X174139698Y-99153407D01*
X174233909Y-98973049D01*
X174289886Y-98777418D01*
X174300500Y-98658037D01*
X174300499Y-96941964D01*
X174289886Y-96822582D01*
X174245012Y-96665756D01*
X174233910Y-96626954D01*
X174233909Y-96626953D01*
X174233909Y-96626951D01*
X174139698Y-96446593D01*
X174035964Y-96319373D01*
X174011109Y-96288890D01*
X173895933Y-96194977D01*
X173853407Y-96160302D01*
X173673049Y-96066091D01*
X173673048Y-96066090D01*
X173673045Y-96066089D01*
X173535691Y-96026788D01*
X173477418Y-96010114D01*
X173477415Y-96010113D01*
X173477413Y-96010113D01*
X173386983Y-96002073D01*
X173358037Y-95999500D01*
X173358035Y-95999500D01*
X173358034Y-95999500D01*
X172621824Y-95999500D01*
X171641964Y-95999501D01*
X171612727Y-96002100D01*
X171522584Y-96010113D01*
X171326954Y-96066089D01*
X171269664Y-96096015D01*
X171146593Y-96160302D01*
X171146591Y-96160303D01*
X171146590Y-96160304D01*
X170988890Y-96288890D01*
X170860304Y-96446590D01*
X170766089Y-96626954D01*
X170722116Y-96780638D01*
X170684749Y-96839676D01*
X170621395Y-96869140D01*
X170552170Y-96859675D01*
X170499051Y-96814286D01*
X170478903Y-96747384D01*
X170478900Y-96746527D01*
X170478900Y-96407054D01*
X170498585Y-96340015D01*
X170515219Y-96319373D01*
X171071574Y-95763019D01*
X171132897Y-95729534D01*
X171159255Y-95726700D01*
X174808945Y-95726700D01*
X174875984Y-95746385D01*
X174896626Y-95763019D01*
X175713244Y-96579637D01*
X175746729Y-96640960D01*
X175744779Y-96701428D01*
X175710114Y-96822579D01*
X175710113Y-96822586D01*
X175699500Y-96941965D01*
X175699500Y-96941966D01*
X175699501Y-98658032D01*
X175699501Y-98658033D01*
X175710113Y-98777415D01*
X175766089Y-98973045D01*
X175766090Y-98973048D01*
X175766091Y-98973049D01*
X175860302Y-99153407D01*
X175860304Y-99153409D01*
X175988890Y-99311109D01*
X176082803Y-99387684D01*
X176146593Y-99439698D01*
X176326951Y-99533909D01*
X176326953Y-99533909D01*
X176326954Y-99533910D01*
X176346355Y-99539461D01*
X176522582Y-99589886D01*
X176641963Y-99600500D01*
X176641964Y-99600499D01*
X176641965Y-99600500D01*
X176641966Y-99600500D01*
X177377865Y-99600499D01*
X178358036Y-99600499D01*
X178477418Y-99589886D01*
X178673049Y-99533909D01*
X178853407Y-99439698D01*
X179011109Y-99311109D01*
X179139698Y-99153407D01*
X179233909Y-98973049D01*
X179289886Y-98777418D01*
X179300500Y-98658037D01*
X179300499Y-96941964D01*
X179289886Y-96822582D01*
X179245012Y-96665756D01*
X179233910Y-96626954D01*
X179233909Y-96626953D01*
X179233909Y-96626951D01*
X179139698Y-96446593D01*
X179035964Y-96319373D01*
X179011109Y-96288890D01*
X178895933Y-96194977D01*
X178853407Y-96160302D01*
X178673049Y-96066091D01*
X178673048Y-96066090D01*
X178673045Y-96066089D01*
X178535691Y-96026788D01*
X178477418Y-96010114D01*
X178477415Y-96010113D01*
X178477413Y-96010113D01*
X178386983Y-96002073D01*
X178358037Y-95999500D01*
X178358035Y-95999500D01*
X178358034Y-95999500D01*
X177621284Y-95999500D01*
X176641964Y-95999501D01*
X176614933Y-96001903D01*
X176522583Y-96010113D01*
X176522582Y-96010114D01*
X176401428Y-96044779D01*
X176331560Y-96044295D01*
X176279637Y-96013244D01*
X175285487Y-95019093D01*
X175285456Y-95019064D01*
X175264542Y-94998150D01*
X175264541Y-94998149D01*
X175244800Y-94988090D01*
X175228214Y-94977926D01*
X175210290Y-94964904D01*
X175210291Y-94964904D01*
X175189218Y-94958057D01*
X175171245Y-94950612D01*
X175151507Y-94940555D01*
X175151504Y-94940554D01*
X175129618Y-94937087D01*
X175110707Y-94932546D01*
X175089639Y-94925701D01*
X175089634Y-94925700D01*
X175089633Y-94925700D01*
X175057719Y-94925700D01*
X173811090Y-94925700D01*
X173744051Y-94906015D01*
X173698296Y-94853211D01*
X173688352Y-94784053D01*
X173717377Y-94720497D01*
X173753677Y-94691792D01*
X173853407Y-94639698D01*
X174011109Y-94511109D01*
X174139698Y-94353407D01*
X174233909Y-94173049D01*
X174289886Y-93977418D01*
X174300500Y-93858037D01*
X174300499Y-92141966D01*
X175699500Y-92141966D01*
X175699501Y-93858032D01*
X175699501Y-93858033D01*
X175710113Y-93977415D01*
X175766089Y-94173045D01*
X175766090Y-94173048D01*
X175766091Y-94173049D01*
X175860302Y-94353407D01*
X175860304Y-94353409D01*
X175988890Y-94511109D01*
X176082803Y-94587684D01*
X176146593Y-94639698D01*
X176326951Y-94733909D01*
X176522582Y-94789886D01*
X176641963Y-94800500D01*
X176641964Y-94800499D01*
X176641965Y-94800500D01*
X176641966Y-94800500D01*
X177377865Y-94800499D01*
X178358036Y-94800499D01*
X178477418Y-94789886D01*
X178673049Y-94733909D01*
X178853407Y-94639698D01*
X179011109Y-94511109D01*
X179139698Y-94353407D01*
X179233909Y-94173049D01*
X179289886Y-93977418D01*
X179300500Y-93858037D01*
X179300499Y-92141964D01*
X179289886Y-92022582D01*
X179233909Y-91826951D01*
X179139698Y-91646593D01*
X179058912Y-91547517D01*
X179011109Y-91488890D01*
X178895933Y-91394977D01*
X178853407Y-91360302D01*
X178673049Y-91266091D01*
X178673048Y-91266090D01*
X178673045Y-91266089D01*
X178555829Y-91232550D01*
X178477418Y-91210114D01*
X178477415Y-91210113D01*
X178477413Y-91210113D01*
X178386983Y-91202073D01*
X178358037Y-91199500D01*
X178358035Y-91199500D01*
X178358034Y-91199500D01*
X177621284Y-91199500D01*
X176641964Y-91199501D01*
X176612727Y-91202100D01*
X176522584Y-91210113D01*
X176326954Y-91266089D01*
X176236771Y-91313196D01*
X176146593Y-91360302D01*
X176146591Y-91360303D01*
X176146590Y-91360304D01*
X175988890Y-91488890D01*
X175860304Y-91646590D01*
X175766089Y-91826954D01*
X175710114Y-92022583D01*
X175710113Y-92022586D01*
X175699500Y-92141965D01*
X175699500Y-92141966D01*
X174300499Y-92141966D01*
X174300499Y-92141964D01*
X174289886Y-92022582D01*
X174233909Y-91826951D01*
X174139698Y-91646593D01*
X174058912Y-91547517D01*
X174011109Y-91488890D01*
X173895933Y-91394977D01*
X173853407Y-91360302D01*
X173673049Y-91266091D01*
X173673048Y-91266090D01*
X173673045Y-91266089D01*
X173555829Y-91232550D01*
X173477418Y-91210114D01*
X173477415Y-91210113D01*
X173477413Y-91210113D01*
X173386983Y-91202073D01*
X173358037Y-91199500D01*
X173358035Y-91199500D01*
X173358034Y-91199500D01*
X172621824Y-91199500D01*
X171641964Y-91199501D01*
X171612727Y-91202100D01*
X171522584Y-91210113D01*
X171326954Y-91266089D01*
X171236771Y-91313196D01*
X171146593Y-91360302D01*
X171146591Y-91360303D01*
X171146590Y-91360304D01*
X170988890Y-91488890D01*
X170860304Y-91646590D01*
X170766089Y-91826954D01*
X170710114Y-92022583D01*
X170710113Y-92022586D01*
X170699500Y-92141965D01*
X170699500Y-92141966D01*
X170699501Y-93858032D01*
X170699501Y-93858033D01*
X170710113Y-93977415D01*
X170766089Y-94173045D01*
X170766090Y-94173048D01*
X170766091Y-94173049D01*
X170860302Y-94353407D01*
X170860304Y-94353409D01*
X170988890Y-94511109D01*
X171117479Y-94615958D01*
X171146593Y-94639698D01*
X171246322Y-94691792D01*
X171296629Y-94740278D01*
X171312736Y-94808265D01*
X171289530Y-94874169D01*
X171234377Y-94917064D01*
X171188910Y-94925700D01*
X171005433Y-94925700D01*
X170878567Y-94925700D01*
X170878564Y-94925700D01*
X170878562Y-94925701D01*
X170857490Y-94932547D01*
X170838582Y-94937086D01*
X170816698Y-94940553D01*
X170816694Y-94940554D01*
X170796951Y-94950613D01*
X170778987Y-94958054D01*
X170757911Y-94964903D01*
X170739985Y-94977927D01*
X170723400Y-94988090D01*
X170703659Y-94998148D01*
X170703659Y-94998149D01*
X170681094Y-95020713D01*
X169772913Y-95928894D01*
X169750349Y-95951459D01*
X169750348Y-95951460D01*
X169740291Y-95971197D01*
X169730131Y-95987777D01*
X169717106Y-96005705D01*
X169717103Y-96005710D01*
X169710254Y-96026788D01*
X169702813Y-96044752D01*
X169692754Y-96064495D01*
X169689287Y-96086382D01*
X169684747Y-96105291D01*
X169677900Y-96126367D01*
X169677900Y-96319525D01*
X169658215Y-96386564D01*
X169605411Y-96432319D01*
X169536253Y-96442263D01*
X169472697Y-96413238D01*
X169441518Y-96371931D01*
X169430132Y-96347515D01*
X169299657Y-96161179D01*
X169138820Y-96000342D01*
X168952482Y-95869865D01*
X168746326Y-95773734D01*
X168746317Y-95773730D01*
X168526610Y-95714860D01*
X168526599Y-95714858D01*
X168356763Y-95700000D01*
X167750000Y-95700000D01*
X167750000Y-96623503D01*
X167721444Y-96615379D01*
X167555480Y-96600000D01*
X167444520Y-96600000D01*
X167278556Y-96615379D01*
X167250000Y-96623503D01*
X167250000Y-95700000D01*
X167249999Y-95700000D01*
X166643238Y-95700001D01*
X166643239Y-95700001D01*
X166473395Y-95714859D01*
X166473392Y-95714859D01*
X166253682Y-95773730D01*
X166253673Y-95773734D01*
X166047517Y-95869865D01*
X165861179Y-96000342D01*
X165700342Y-96161179D01*
X165569865Y-96347517D01*
X165473734Y-96553673D01*
X165473730Y-96553682D01*
X165414860Y-96773389D01*
X165414858Y-96773400D01*
X165400000Y-96943237D01*
X165400000Y-97550000D01*
X166325947Y-97550000D01*
X166300000Y-97688804D01*
X166300000Y-97911196D01*
X166325947Y-98050000D01*
X165400001Y-98050000D01*
X165400001Y-98656762D01*
X165414859Y-98826604D01*
X165414859Y-98826607D01*
X165473730Y-99046317D01*
X165473734Y-99046326D01*
X165569865Y-99252482D01*
X165700342Y-99438820D01*
X165861179Y-99599657D01*
X166047517Y-99730134D01*
X166253673Y-99826265D01*
X166253682Y-99826269D01*
X166473389Y-99885139D01*
X166473400Y-99885141D01*
X166643236Y-99900000D01*
X166643237Y-99900000D01*
X167249999Y-99899999D01*
X167250000Y-99899998D01*
X167250000Y-98976496D01*
X167278556Y-98984621D01*
X167444520Y-99000000D01*
X167555480Y-99000000D01*
X167721444Y-98984621D01*
X167750000Y-98976496D01*
X167750000Y-99899999D01*
X168356762Y-99899999D01*
X168526604Y-99885140D01*
X168726184Y-99831663D01*
X168796034Y-99833326D01*
X168853897Y-99872488D01*
X168881401Y-99936717D01*
X168869815Y-100005619D01*
X168845959Y-100039119D01*
X165385098Y-103499981D01*
X165323775Y-103533466D01*
X165297417Y-103536300D01*
X163926633Y-103536300D01*
X163799767Y-103536300D01*
X163799764Y-103536300D01*
X163799762Y-103536301D01*
X163778690Y-103543147D01*
X163759782Y-103547686D01*
X163737898Y-103551153D01*
X163737894Y-103551154D01*
X163718151Y-103561213D01*
X163700187Y-103568654D01*
X163679111Y-103575503D01*
X163661185Y-103588527D01*
X163644600Y-103598690D01*
X163624859Y-103608748D01*
X163624859Y-103608749D01*
X163602294Y-103631313D01*
X163602291Y-103631316D01*
X161399544Y-105834061D01*
X161338221Y-105867546D01*
X161268529Y-105862562D01*
X161267119Y-105862026D01*
X161202456Y-105836976D01*
X161001976Y-105799500D01*
X160798024Y-105799500D01*
X160597544Y-105836976D01*
X160597541Y-105836976D01*
X160597541Y-105836977D01*
X160407364Y-105910651D01*
X160407357Y-105910655D01*
X160233960Y-106018017D01*
X160233958Y-106018019D01*
X160083237Y-106155418D01*
X159960327Y-106318178D01*
X159869422Y-106500739D01*
X159869417Y-106500752D01*
X159813602Y-106696917D01*
X159794785Y-106899999D01*
X159794785Y-106900000D01*
X159048900Y-106900000D01*
X159048900Y-101868853D01*
X159068585Y-101801815D01*
X159085214Y-101781178D01*
X161279639Y-99586752D01*
X161340960Y-99553269D01*
X161401428Y-99555218D01*
X161522582Y-99589886D01*
X161641963Y-99600500D01*
X161641964Y-99600499D01*
X161641965Y-99600500D01*
X161641966Y-99600500D01*
X162374802Y-99600499D01*
X163358036Y-99600499D01*
X163477418Y-99589886D01*
X163673049Y-99533909D01*
X163853407Y-99439698D01*
X164011109Y-99311109D01*
X164139698Y-99153407D01*
X164233909Y-98973049D01*
X164289886Y-98777418D01*
X164300500Y-98658037D01*
X164300499Y-96941964D01*
X164289886Y-96822582D01*
X164245012Y-96665756D01*
X164233910Y-96626954D01*
X164233909Y-96626953D01*
X164233909Y-96626951D01*
X164139698Y-96446593D01*
X164035964Y-96319373D01*
X164011109Y-96288890D01*
X163895933Y-96194977D01*
X163853407Y-96160302D01*
X163673049Y-96066091D01*
X163673048Y-96066090D01*
X163673045Y-96066089D01*
X163535691Y-96026788D01*
X163477418Y-96010114D01*
X163477415Y-96010113D01*
X163477413Y-96010113D01*
X163386983Y-96002073D01*
X163358037Y-95999500D01*
X163358035Y-95999500D01*
X163358034Y-95999500D01*
X162622902Y-95999500D01*
X161641964Y-95999501D01*
X161612727Y-96002100D01*
X161522584Y-96010113D01*
X161326954Y-96066089D01*
X161269664Y-96096015D01*
X161146593Y-96160302D01*
X161146591Y-96160303D01*
X161146590Y-96160304D01*
X160988890Y-96288890D01*
X160860304Y-96446590D01*
X160766089Y-96626954D01*
X160710114Y-96822583D01*
X160710113Y-96822586D01*
X160699500Y-96941965D01*
X160699500Y-96941966D01*
X160699501Y-98658032D01*
X160699501Y-98658033D01*
X160710113Y-98777415D01*
X160744779Y-98898569D01*
X160744296Y-98968437D01*
X160713244Y-99020361D01*
X158342916Y-101390691D01*
X158342913Y-101390694D01*
X158320349Y-101413259D01*
X158320348Y-101413260D01*
X158310291Y-101432997D01*
X158300131Y-101449577D01*
X158287106Y-101467505D01*
X158287103Y-101467510D01*
X158280254Y-101488588D01*
X158272813Y-101506552D01*
X158262754Y-101526295D01*
X158259287Y-101548182D01*
X158254747Y-101567091D01*
X158247900Y-101588167D01*
X158247900Y-113834344D01*
X158228215Y-113901383D01*
X158211581Y-113922025D01*
X158199545Y-113934061D01*
X158138222Y-113967546D01*
X158068530Y-113962562D01*
X158067071Y-113962007D01*
X158002461Y-113936977D01*
X157986862Y-113934061D01*
X157801976Y-113899500D01*
X157598024Y-113899500D01*
X157397544Y-113936976D01*
X157397541Y-113936976D01*
X157397541Y-113936977D01*
X157207364Y-114010651D01*
X157207357Y-114010655D01*
X157033960Y-114118017D01*
X157033958Y-114118019D01*
X156883237Y-114255418D01*
X156760327Y-114418178D01*
X156669422Y-114600739D01*
X156669417Y-114600752D01*
X156613602Y-114796917D01*
X156594785Y-114999999D01*
X156594785Y-115000000D01*
X153404798Y-115000000D01*
X153404798Y-114999994D01*
X153385638Y-114768781D01*
X153328682Y-114543864D01*
X153235483Y-114331390D01*
X153151186Y-114202364D01*
X152483076Y-114870475D01*
X152459493Y-114790156D01*
X152381761Y-114669202D01*
X152273100Y-114575048D01*
X152142315Y-114515320D01*
X152132534Y-114513913D01*
X152798799Y-113847648D01*
X152798799Y-113847647D01*
X152768349Y-113823949D01*
X152564302Y-113713523D01*
X152564293Y-113713520D01*
X152344860Y-113638188D01*
X152116007Y-113600000D01*
X151883993Y-113600000D01*
X151655139Y-113638188D01*
X151435706Y-113713520D01*
X151435698Y-113713523D01*
X151231644Y-113823952D01*
X151201200Y-113847646D01*
X151201200Y-113847647D01*
X151867466Y-114513913D01*
X151857685Y-114515320D01*
X151726900Y-114575048D01*
X151618239Y-114669202D01*
X151540507Y-114790156D01*
X151516923Y-114870475D01*
X150848812Y-114202365D01*
X150764516Y-114331391D01*
X150764514Y-114331395D01*
X150671317Y-114543864D01*
X150614361Y-114768781D01*
X150595202Y-114999994D01*
X150595202Y-115000005D01*
X148251772Y-115000005D01*
X148254331Y-114956065D01*
X148223865Y-114783289D01*
X148154377Y-114622196D01*
X148138412Y-114600752D01*
X148049609Y-114481469D01*
X147915214Y-114368698D01*
X147915212Y-114368697D01*
X147758437Y-114289961D01*
X147758344Y-114289939D01*
X147587721Y-114249500D01*
X147456291Y-114249500D01*
X147353567Y-114261507D01*
X147325743Y-114264759D01*
X147325740Y-114264760D01*
X147160884Y-114324762D01*
X147160880Y-114324764D01*
X147014306Y-114421167D01*
X147014305Y-114421168D01*
X146893910Y-114548778D01*
X146806188Y-114700718D01*
X146755870Y-114868789D01*
X146755869Y-114868794D01*
X146745668Y-115043933D01*
X143801144Y-115043933D01*
X143805215Y-115000000D01*
X143805214Y-114999994D01*
X143786397Y-114796917D01*
X143781563Y-114779927D01*
X143730582Y-114600750D01*
X143639673Y-114418179D01*
X143545037Y-114292861D01*
X143516762Y-114255418D01*
X143366041Y-114118019D01*
X143366039Y-114118017D01*
X143192642Y-114010655D01*
X143192639Y-114010653D01*
X143192637Y-114010652D01*
X143192636Y-114010651D01*
X143192635Y-114010651D01*
X143081367Y-113967546D01*
X143002456Y-113936976D01*
X142801976Y-113899500D01*
X142598024Y-113899500D01*
X142397544Y-113936976D01*
X142397541Y-113936976D01*
X142397541Y-113936977D01*
X142207364Y-114010651D01*
X142207357Y-114010655D01*
X142033960Y-114118017D01*
X142033958Y-114118019D01*
X141883237Y-114255418D01*
X141760327Y-114418178D01*
X141669422Y-114600739D01*
X141669417Y-114600752D01*
X141613602Y-114796917D01*
X141594785Y-114999999D01*
X141594785Y-115000000D01*
X140000500Y-115000000D01*
X140000500Y-110043933D01*
X146745668Y-110043933D01*
X146761058Y-110131210D01*
X146776135Y-110216711D01*
X146845623Y-110377804D01*
X146845624Y-110377806D01*
X146845626Y-110377809D01*
X146861596Y-110399260D01*
X146950390Y-110518530D01*
X147084786Y-110631302D01*
X147162488Y-110670325D01*
X147241562Y-110710038D01*
X147241563Y-110710038D01*
X147241567Y-110710040D01*
X147412279Y-110750500D01*
X147412282Y-110750500D01*
X147543701Y-110750500D01*
X147543709Y-110750500D01*
X147674255Y-110735241D01*
X147839117Y-110675237D01*
X147985696Y-110578830D01*
X148106092Y-110451218D01*
X148193812Y-110299281D01*
X148244130Y-110131210D01*
X148251772Y-110000000D01*
X149994785Y-110000000D01*
X150013602Y-110203082D01*
X150069417Y-110399247D01*
X150069422Y-110399260D01*
X150160327Y-110581821D01*
X150283237Y-110744581D01*
X150433958Y-110881980D01*
X150433960Y-110881982D01*
X150476879Y-110908556D01*
X150607363Y-110989348D01*
X150797544Y-111063024D01*
X150998024Y-111100500D01*
X150998026Y-111100500D01*
X151201974Y-111100500D01*
X151201976Y-111100500D01*
X151402456Y-111063024D01*
X151592637Y-110989348D01*
X151766041Y-110881981D01*
X151894122Y-110765219D01*
X151916762Y-110744581D01*
X151916764Y-110744579D01*
X152039673Y-110581821D01*
X152130582Y-110399250D01*
X152186397Y-110203083D01*
X152205215Y-110000000D01*
X152186397Y-109796917D01*
X152130582Y-109600750D01*
X152039673Y-109418179D01*
X151949293Y-109298496D01*
X151916762Y-109255418D01*
X151766041Y-109118019D01*
X151766039Y-109118017D01*
X151592642Y-109010655D01*
X151592639Y-109010653D01*
X151592637Y-109010652D01*
X151592636Y-109010651D01*
X151592635Y-109010651D01*
X151469805Y-108963067D01*
X151402456Y-108936976D01*
X151201976Y-108899500D01*
X150998024Y-108899500D01*
X150797544Y-108936976D01*
X150797541Y-108936976D01*
X150797541Y-108936977D01*
X150607364Y-109010651D01*
X150607357Y-109010655D01*
X150433960Y-109118017D01*
X150433958Y-109118019D01*
X150283237Y-109255418D01*
X150160327Y-109418178D01*
X150069422Y-109600739D01*
X150069417Y-109600752D01*
X150013602Y-109796917D01*
X149994785Y-109999999D01*
X149994785Y-110000000D01*
X148251772Y-110000000D01*
X148254331Y-109956065D01*
X148223865Y-109783289D01*
X148154377Y-109622196D01*
X148138412Y-109600752D01*
X148049609Y-109481469D01*
X147915214Y-109368698D01*
X147915212Y-109368697D01*
X147758437Y-109289961D01*
X147758433Y-109289960D01*
X147587721Y-109249500D01*
X147456291Y-109249500D01*
X147351854Y-109261707D01*
X147325743Y-109264759D01*
X147325740Y-109264760D01*
X147160884Y-109324762D01*
X147160880Y-109324764D01*
X147014306Y-109421167D01*
X147014305Y-109421168D01*
X146893910Y-109548778D01*
X146806188Y-109700718D01*
X146755870Y-109868789D01*
X146755869Y-109868794D01*
X146745668Y-110043933D01*
X140000500Y-110043933D01*
X140000500Y-106900000D01*
X144794785Y-106900000D01*
X144813602Y-107103082D01*
X144869417Y-107299247D01*
X144869422Y-107299260D01*
X144960327Y-107481821D01*
X145083237Y-107644581D01*
X145233958Y-107781980D01*
X145233960Y-107781982D01*
X145333141Y-107843392D01*
X145407363Y-107889348D01*
X145597544Y-107963024D01*
X145798024Y-108000500D01*
X145798026Y-108000500D01*
X146001974Y-108000500D01*
X146001976Y-108000500D01*
X146202456Y-107963024D01*
X146392637Y-107889348D01*
X146566041Y-107781981D01*
X146716764Y-107644579D01*
X146839673Y-107481821D01*
X146930582Y-107299250D01*
X146986397Y-107103083D01*
X147005215Y-106900000D01*
X147994785Y-106900000D01*
X148013602Y-107103082D01*
X148069417Y-107299247D01*
X148069422Y-107299260D01*
X148160327Y-107481821D01*
X148283237Y-107644581D01*
X148433958Y-107781980D01*
X148433960Y-107781982D01*
X148533141Y-107843392D01*
X148607363Y-107889348D01*
X148797544Y-107963024D01*
X148998024Y-108000500D01*
X148998026Y-108000500D01*
X149201974Y-108000500D01*
X149201976Y-108000500D01*
X149402456Y-107963024D01*
X149592637Y-107889348D01*
X149766041Y-107781981D01*
X149916764Y-107644579D01*
X150039673Y-107481821D01*
X150130582Y-107299250D01*
X150186397Y-107103083D01*
X150205215Y-106900000D01*
X150186397Y-106696917D01*
X150130582Y-106500750D01*
X150039673Y-106318179D01*
X149916764Y-106155421D01*
X149916762Y-106155418D01*
X149766041Y-106018019D01*
X149766039Y-106018017D01*
X149592642Y-105910655D01*
X149592639Y-105910653D01*
X149592637Y-105910652D01*
X149592636Y-105910651D01*
X149592635Y-105910651D01*
X149469805Y-105863067D01*
X149402456Y-105836976D01*
X149201976Y-105799500D01*
X148998024Y-105799500D01*
X148797544Y-105836976D01*
X148797541Y-105836976D01*
X148797541Y-105836977D01*
X148607364Y-105910651D01*
X148607357Y-105910655D01*
X148433960Y-106018017D01*
X148433958Y-106018019D01*
X148283237Y-106155418D01*
X148160327Y-106318178D01*
X148069422Y-106500739D01*
X148069417Y-106500752D01*
X148013602Y-106696917D01*
X147994785Y-106899999D01*
X147994785Y-106900000D01*
X147005215Y-106900000D01*
X146986397Y-106696917D01*
X146930582Y-106500750D01*
X146839673Y-106318179D01*
X146716764Y-106155421D01*
X146716762Y-106155418D01*
X146566041Y-106018019D01*
X146566039Y-106018017D01*
X146392642Y-105910655D01*
X146392639Y-105910653D01*
X146392637Y-105910652D01*
X146392636Y-105910651D01*
X146392635Y-105910651D01*
X146269805Y-105863067D01*
X146202456Y-105836976D01*
X146001976Y-105799500D01*
X145798024Y-105799500D01*
X145597544Y-105836976D01*
X145597541Y-105836976D01*
X145597541Y-105836977D01*
X145407364Y-105910651D01*
X145407357Y-105910655D01*
X145233960Y-106018017D01*
X145233958Y-106018019D01*
X145083237Y-106155418D01*
X144960327Y-106318178D01*
X144869422Y-106500739D01*
X144869417Y-106500752D01*
X144813602Y-106696917D01*
X144794785Y-106899999D01*
X144794785Y-106900000D01*
X140000500Y-106900000D01*
X140000500Y-92141966D01*
X160699500Y-92141966D01*
X160699501Y-93858032D01*
X160699501Y-93858033D01*
X160710113Y-93977415D01*
X160766089Y-94173045D01*
X160766090Y-94173048D01*
X160766091Y-94173049D01*
X160860302Y-94353407D01*
X160860304Y-94353409D01*
X160988890Y-94511109D01*
X161082803Y-94587684D01*
X161146593Y-94639698D01*
X161326951Y-94733909D01*
X161522582Y-94789886D01*
X161641963Y-94800500D01*
X161641964Y-94800499D01*
X161641965Y-94800500D01*
X161641966Y-94800500D01*
X162379483Y-94800499D01*
X163358036Y-94800499D01*
X163477418Y-94789886D01*
X163673049Y-94733909D01*
X163853407Y-94639698D01*
X164011109Y-94511109D01*
X164139698Y-94353407D01*
X164233909Y-94173049D01*
X164289886Y-93977418D01*
X164300500Y-93858037D01*
X164300499Y-92750000D01*
X165400000Y-92750000D01*
X166325947Y-92750000D01*
X166300000Y-92888804D01*
X166300000Y-93111196D01*
X166325947Y-93250000D01*
X165400001Y-93250000D01*
X165400001Y-93856762D01*
X165414859Y-94026604D01*
X165414859Y-94026607D01*
X165473730Y-94246317D01*
X165473734Y-94246326D01*
X165569865Y-94452482D01*
X165700342Y-94638820D01*
X165861179Y-94799657D01*
X166047517Y-94930134D01*
X166253673Y-95026265D01*
X166253682Y-95026269D01*
X166473389Y-95085139D01*
X166473400Y-95085141D01*
X166643236Y-95100000D01*
X166643237Y-95100000D01*
X167249999Y-95099999D01*
X167250000Y-95099998D01*
X167250000Y-94176496D01*
X167278556Y-94184621D01*
X167444520Y-94200000D01*
X167555480Y-94200000D01*
X167721444Y-94184621D01*
X167750000Y-94176496D01*
X167750000Y-95099999D01*
X168356762Y-95099999D01*
X168526604Y-95085140D01*
X168526607Y-95085140D01*
X168746317Y-95026269D01*
X168746326Y-95026265D01*
X168952482Y-94930134D01*
X169138820Y-94799657D01*
X169299657Y-94638820D01*
X169430134Y-94452482D01*
X169526265Y-94246326D01*
X169526269Y-94246317D01*
X169585139Y-94026610D01*
X169585141Y-94026599D01*
X169600000Y-93856763D01*
X169600000Y-93250000D01*
X168674053Y-93250000D01*
X168700000Y-93111196D01*
X168700000Y-92888804D01*
X168674053Y-92750000D01*
X169599999Y-92750000D01*
X169599999Y-92143238D01*
X169585140Y-91973395D01*
X169585140Y-91973392D01*
X169526269Y-91753682D01*
X169526265Y-91753673D01*
X169430134Y-91547517D01*
X169299657Y-91361179D01*
X169138820Y-91200342D01*
X168952482Y-91069865D01*
X168746326Y-90973734D01*
X168746317Y-90973730D01*
X168526610Y-90914860D01*
X168526599Y-90914858D01*
X168356763Y-90900000D01*
X167750000Y-90900000D01*
X167750000Y-91823503D01*
X167721444Y-91815379D01*
X167555480Y-91800000D01*
X167444520Y-91800000D01*
X167278556Y-91815379D01*
X167250000Y-91823503D01*
X167250000Y-90900000D01*
X167249999Y-90900000D01*
X166643238Y-90900001D01*
X166643239Y-90900001D01*
X166473395Y-90914859D01*
X166473392Y-90914859D01*
X166253682Y-90973730D01*
X166253673Y-90973734D01*
X166047517Y-91069865D01*
X165861179Y-91200342D01*
X165700342Y-91361179D01*
X165569865Y-91547517D01*
X165473734Y-91753673D01*
X165473730Y-91753682D01*
X165414860Y-91973389D01*
X165414858Y-91973400D01*
X165400000Y-92143237D01*
X165400000Y-92750000D01*
X164300499Y-92750000D01*
X164300499Y-92141964D01*
X164289886Y-92022582D01*
X164233909Y-91826951D01*
X164139698Y-91646593D01*
X164058912Y-91547517D01*
X164011109Y-91488890D01*
X163895933Y-91394977D01*
X163853407Y-91360302D01*
X163673049Y-91266091D01*
X163673048Y-91266090D01*
X163673045Y-91266089D01*
X163555829Y-91232550D01*
X163477418Y-91210114D01*
X163477415Y-91210113D01*
X163477413Y-91210113D01*
X163386983Y-91202073D01*
X163358037Y-91199500D01*
X163358035Y-91199500D01*
X163358034Y-91199500D01*
X162622902Y-91199500D01*
X161641964Y-91199501D01*
X161612727Y-91202100D01*
X161522584Y-91210113D01*
X161326954Y-91266089D01*
X161236772Y-91313196D01*
X161146593Y-91360302D01*
X161146591Y-91360303D01*
X161146590Y-91360304D01*
X160988890Y-91488890D01*
X160860304Y-91646590D01*
X160766089Y-91826954D01*
X160710114Y-92022583D01*
X160710113Y-92022586D01*
X160699500Y-92141965D01*
X160699500Y-92141966D01*
X140000500Y-92141966D01*
X140000500Y-87341966D01*
X160699500Y-87341966D01*
X160699501Y-89058032D01*
X160699501Y-89058033D01*
X160710113Y-89177415D01*
X160766089Y-89373045D01*
X160766090Y-89373048D01*
X160766091Y-89373049D01*
X160860302Y-89553407D01*
X160860304Y-89553409D01*
X160988890Y-89711109D01*
X161082803Y-89787684D01*
X161146593Y-89839698D01*
X161326951Y-89933909D01*
X161522582Y-89989886D01*
X161641963Y-90000500D01*
X161641964Y-90000499D01*
X161641965Y-90000500D01*
X161641966Y-90000500D01*
X162379483Y-90000499D01*
X163358036Y-90000499D01*
X163477418Y-89989886D01*
X163673049Y-89933909D01*
X163853407Y-89839698D01*
X164011109Y-89711109D01*
X164139698Y-89553407D01*
X164233909Y-89373049D01*
X164289886Y-89177418D01*
X164300500Y-89058037D01*
X164300499Y-87950000D01*
X165400000Y-87950000D01*
X166325947Y-87950000D01*
X166300000Y-88088804D01*
X166300000Y-88311196D01*
X166325947Y-88450000D01*
X165400001Y-88450000D01*
X165400001Y-89056762D01*
X165414859Y-89226604D01*
X165414859Y-89226607D01*
X165473730Y-89446317D01*
X165473734Y-89446326D01*
X165569865Y-89652482D01*
X165700342Y-89838820D01*
X165861179Y-89999657D01*
X166047517Y-90130134D01*
X166253673Y-90226265D01*
X166253682Y-90226269D01*
X166473389Y-90285139D01*
X166473400Y-90285141D01*
X166643236Y-90300000D01*
X166643237Y-90300000D01*
X167249999Y-90299999D01*
X167250000Y-90299998D01*
X167250000Y-89376496D01*
X167278556Y-89384621D01*
X167444520Y-89400000D01*
X167555480Y-89400000D01*
X167721444Y-89384621D01*
X167750000Y-89376496D01*
X167750000Y-90299999D01*
X168356762Y-90299999D01*
X168526604Y-90285140D01*
X168526607Y-90285140D01*
X168746317Y-90226269D01*
X168746326Y-90226265D01*
X168952482Y-90130134D01*
X169138820Y-89999657D01*
X169299657Y-89838820D01*
X169430134Y-89652482D01*
X169526265Y-89446326D01*
X169526269Y-89446317D01*
X169585139Y-89226610D01*
X169585141Y-89226599D01*
X169600000Y-89056763D01*
X169600000Y-88450000D01*
X168674053Y-88450000D01*
X168700000Y-88311196D01*
X168700000Y-88088804D01*
X168674053Y-87950000D01*
X169599999Y-87950000D01*
X169599999Y-87343238D01*
X169585140Y-87173395D01*
X169585140Y-87173392D01*
X169526269Y-86953682D01*
X169526265Y-86953673D01*
X169430134Y-86747517D01*
X169299657Y-86561179D01*
X169138820Y-86400342D01*
X168952482Y-86269865D01*
X168746326Y-86173734D01*
X168746317Y-86173730D01*
X168526610Y-86114860D01*
X168526599Y-86114858D01*
X168356763Y-86100000D01*
X167750000Y-86100000D01*
X167750000Y-87023503D01*
X167721444Y-87015379D01*
X167555480Y-87000000D01*
X167444520Y-87000000D01*
X167278556Y-87015379D01*
X167250000Y-87023503D01*
X167250000Y-86100000D01*
X167249999Y-86100000D01*
X166643238Y-86100001D01*
X166643239Y-86100001D01*
X166473395Y-86114859D01*
X166473392Y-86114859D01*
X166253682Y-86173730D01*
X166253673Y-86173734D01*
X166047517Y-86269865D01*
X165861179Y-86400342D01*
X165700342Y-86561179D01*
X165569865Y-86747517D01*
X165473734Y-86953673D01*
X165473730Y-86953682D01*
X165414860Y-87173389D01*
X165414858Y-87173400D01*
X165400000Y-87343237D01*
X165400000Y-87950000D01*
X164300499Y-87950000D01*
X164300499Y-87341964D01*
X164289886Y-87222582D01*
X164255219Y-87101428D01*
X164255702Y-87031562D01*
X164286752Y-86979639D01*
X166298373Y-84968019D01*
X166359697Y-84934534D01*
X166386055Y-84931700D01*
X174902545Y-84931700D01*
X174969584Y-84951385D01*
X175015339Y-85004189D01*
X175025283Y-85073347D01*
X174996258Y-85136903D01*
X174990226Y-85143381D01*
X173720361Y-86413244D01*
X173659038Y-86446729D01*
X173598569Y-86444779D01*
X173477415Y-86410113D01*
X173477418Y-86410113D01*
X173376058Y-86401102D01*
X173358037Y-86399500D01*
X173358035Y-86399500D01*
X173358034Y-86399500D01*
X172626505Y-86399500D01*
X171641964Y-86399501D01*
X171612727Y-86402100D01*
X171522584Y-86410113D01*
X171326954Y-86466089D01*
X171236771Y-86513196D01*
X171146593Y-86560302D01*
X171146591Y-86560303D01*
X171146590Y-86560304D01*
X170988890Y-86688890D01*
X170888263Y-86812301D01*
X170860302Y-86846593D01*
X170832414Y-86899982D01*
X170766089Y-87026954D01*
X170710114Y-87222583D01*
X170710113Y-87222586D01*
X170699500Y-87341965D01*
X170699500Y-87341966D01*
X170699501Y-89058032D01*
X170699501Y-89058033D01*
X170710113Y-89177415D01*
X170766089Y-89373045D01*
X170766090Y-89373048D01*
X170766091Y-89373049D01*
X170860302Y-89553407D01*
X170860304Y-89553409D01*
X170988890Y-89711109D01*
X171082803Y-89787684D01*
X171146593Y-89839698D01*
X171326951Y-89933909D01*
X171522582Y-89989886D01*
X171641963Y-90000500D01*
X171641964Y-90000499D01*
X171641965Y-90000500D01*
X171641966Y-90000500D01*
X172378404Y-90000499D01*
X173358036Y-90000499D01*
X173477418Y-89989886D01*
X173673049Y-89933909D01*
X173853407Y-89839698D01*
X174011109Y-89711109D01*
X174139698Y-89553407D01*
X174233909Y-89373049D01*
X174289886Y-89177418D01*
X174300500Y-89058037D01*
X174300499Y-87341964D01*
X174289886Y-87222582D01*
X174255219Y-87101428D01*
X174255702Y-87031562D01*
X174286752Y-86979639D01*
X175698373Y-85568019D01*
X175759697Y-85534534D01*
X175786055Y-85531700D01*
X177203743Y-85531700D01*
X177270782Y-85551385D01*
X177316537Y-85604189D01*
X177326481Y-85673347D01*
X177297456Y-85736903D01*
X177291423Y-85743382D01*
X177241184Y-85793620D01*
X177226393Y-85806253D01*
X177208476Y-85819271D01*
X177187695Y-85847872D01*
X177187694Y-85847873D01*
X177174434Y-85866123D01*
X177169833Y-85872458D01*
X177156311Y-85891069D01*
X177133905Y-85921908D01*
X177133904Y-85921910D01*
X177094700Y-86042565D01*
X177094700Y-86042568D01*
X177094699Y-86169430D01*
X177096227Y-86179069D01*
X177095592Y-86179169D01*
X177099499Y-86203844D01*
X177099499Y-86275500D01*
X177079814Y-86342539D01*
X177027010Y-86388294D01*
X176975499Y-86399500D01*
X176641978Y-86399500D01*
X176641964Y-86399501D01*
X176612727Y-86402100D01*
X176522584Y-86410113D01*
X176326954Y-86466089D01*
X176236771Y-86513196D01*
X176146593Y-86560302D01*
X176146591Y-86560303D01*
X176146590Y-86560304D01*
X175988890Y-86688890D01*
X175888263Y-86812301D01*
X175860302Y-86846593D01*
X175832414Y-86899982D01*
X175766089Y-87026954D01*
X175710114Y-87222583D01*
X175710113Y-87222586D01*
X175699500Y-87341965D01*
X175699500Y-87341966D01*
X175699501Y-89058032D01*
X175699501Y-89058033D01*
X175710113Y-89177415D01*
X175766089Y-89373045D01*
X175766090Y-89373048D01*
X175766091Y-89373049D01*
X175860302Y-89553407D01*
X175860304Y-89553409D01*
X175988890Y-89711109D01*
X176082803Y-89787684D01*
X176146593Y-89839698D01*
X176326951Y-89933909D01*
X176522582Y-89989886D01*
X176641963Y-90000500D01*
X176641964Y-90000499D01*
X176641965Y-90000500D01*
X176641966Y-90000500D01*
X177373184Y-90000499D01*
X178358036Y-90000499D01*
X178477418Y-89989886D01*
X178673049Y-89933909D01*
X178853407Y-89839698D01*
X179011109Y-89711109D01*
X179139698Y-89553407D01*
X179233909Y-89373049D01*
X179289886Y-89177418D01*
X179300500Y-89058037D01*
X179300499Y-87341964D01*
X179289886Y-87222582D01*
X179233909Y-87026951D01*
X179139698Y-86846593D01*
X179058912Y-86747517D01*
X179011109Y-86688890D01*
X178895933Y-86594977D01*
X178853407Y-86560302D01*
X178673049Y-86466091D01*
X178673048Y-86466090D01*
X178673045Y-86466089D01*
X178555829Y-86432550D01*
X178477418Y-86410114D01*
X178477415Y-86410113D01*
X178477413Y-86410113D01*
X178386983Y-86402073D01*
X178358037Y-86399500D01*
X178358035Y-86399500D01*
X178067454Y-86399500D01*
X178000415Y-86379815D01*
X177954660Y-86327011D01*
X177944716Y-86257853D01*
X177973741Y-86194297D01*
X177979773Y-86187819D01*
X177999573Y-86168019D01*
X178060896Y-86134534D01*
X178087254Y-86131700D01*
X179331217Y-86131700D01*
X179398256Y-86151385D01*
X179418898Y-86168019D01*
X180063180Y-86812301D01*
X180096665Y-86873624D01*
X180099499Y-86899982D01*
X180099499Y-99978145D01*
X180079814Y-100045184D01*
X180063180Y-100065826D01*
X175594516Y-104534491D01*
X175594513Y-104534494D01*
X175571949Y-104557059D01*
X175571948Y-104557060D01*
X175561891Y-104576797D01*
X175551731Y-104593377D01*
X175538706Y-104611305D01*
X175538703Y-104611310D01*
X175531854Y-104632388D01*
X175524413Y-104650352D01*
X175514354Y-104670095D01*
X175510887Y-104691982D01*
X175506347Y-104710891D01*
X175499500Y-104731967D01*
X175499500Y-105790015D01*
X175479815Y-105857054D01*
X175427011Y-105902809D01*
X175420296Y-105905641D01*
X175407368Y-105910649D01*
X175407359Y-105910653D01*
X175233960Y-106018017D01*
X175233958Y-106018019D01*
X175083237Y-106155418D01*
X174960327Y-106318178D01*
X174869422Y-106500739D01*
X174869417Y-106500752D01*
X174813602Y-106696917D01*
X174794785Y-106899999D01*
X174794785Y-106900000D01*
X174813602Y-107103082D01*
X174869417Y-107299247D01*
X174869422Y-107299260D01*
X174960327Y-107481821D01*
X175083237Y-107644581D01*
X175233958Y-107781980D01*
X175233960Y-107781982D01*
X175333141Y-107843392D01*
X175407363Y-107889348D01*
X175597544Y-107963024D01*
X175798024Y-108000500D01*
X175798026Y-108000500D01*
X176001974Y-108000500D01*
X176001976Y-108000500D01*
X176202456Y-107963024D01*
X176392637Y-107889348D01*
X176566041Y-107781981D01*
X176716764Y-107644579D01*
X176839673Y-107481821D01*
X176930582Y-107299250D01*
X176986397Y-107103083D01*
X177005215Y-106900000D01*
X177994785Y-106900000D01*
X178013602Y-107103082D01*
X178069417Y-107299247D01*
X178069422Y-107299260D01*
X178160327Y-107481821D01*
X178283237Y-107644581D01*
X178433958Y-107781980D01*
X178433960Y-107781982D01*
X178533141Y-107843392D01*
X178607363Y-107889348D01*
X178797544Y-107963024D01*
X178998024Y-108000500D01*
X178998026Y-108000500D01*
X179201974Y-108000500D01*
X179201976Y-108000500D01*
X179402456Y-107963024D01*
X179592637Y-107889348D01*
X179766041Y-107781981D01*
X179916764Y-107644579D01*
X180039673Y-107481821D01*
X180130582Y-107299250D01*
X180186397Y-107103083D01*
X180205215Y-106900000D01*
X180186397Y-106696917D01*
X180130582Y-106500750D01*
X180039673Y-106318179D01*
X179916764Y-106155421D01*
X179916762Y-106155418D01*
X179766041Y-106018019D01*
X179766039Y-106018017D01*
X179592642Y-105910655D01*
X179592639Y-105910653D01*
X179592637Y-105910652D01*
X179592636Y-105910651D01*
X179592635Y-105910651D01*
X179469805Y-105863067D01*
X179402456Y-105836976D01*
X179201976Y-105799500D01*
X178998024Y-105799500D01*
X178797544Y-105836976D01*
X178797541Y-105836976D01*
X178797541Y-105836977D01*
X178607364Y-105910651D01*
X178607357Y-105910655D01*
X178433960Y-106018017D01*
X178433958Y-106018019D01*
X178283237Y-106155418D01*
X178160327Y-106318178D01*
X178069422Y-106500739D01*
X178069417Y-106500752D01*
X178013602Y-106696917D01*
X177994785Y-106899999D01*
X177994785Y-106900000D01*
X177005215Y-106900000D01*
X176986397Y-106696917D01*
X176930582Y-106500750D01*
X176839673Y-106318179D01*
X176716764Y-106155421D01*
X176716762Y-106155418D01*
X176566041Y-106018019D01*
X176566039Y-106018017D01*
X176392640Y-105910653D01*
X176392631Y-105910649D01*
X176379704Y-105905641D01*
X176324303Y-105863067D01*
X176300714Y-105797299D01*
X176300500Y-105790015D01*
X176300500Y-105012654D01*
X176320185Y-104945615D01*
X176336819Y-104924973D01*
X180487819Y-100773973D01*
X180549142Y-100740488D01*
X180618834Y-100745472D01*
X180674767Y-100787344D01*
X180699184Y-100852808D01*
X180699500Y-100861654D01*
X180699500Y-108890015D01*
X180679815Y-108957054D01*
X180627011Y-109002809D01*
X180620296Y-109005641D01*
X180607368Y-109010649D01*
X180607359Y-109010653D01*
X180433960Y-109118017D01*
X180433958Y-109118019D01*
X180283237Y-109255418D01*
X180160327Y-109418178D01*
X180069422Y-109600739D01*
X180069417Y-109600752D01*
X180013602Y-109796917D01*
X179994785Y-109999999D01*
X179994785Y-110000000D01*
X180013602Y-110203082D01*
X180069417Y-110399247D01*
X180069422Y-110399260D01*
X180160327Y-110581821D01*
X180283237Y-110744581D01*
X180433958Y-110881980D01*
X180433960Y-110881982D01*
X180476879Y-110908556D01*
X180607363Y-110989348D01*
X180797544Y-111063024D01*
X180998024Y-111100500D01*
X180998026Y-111100500D01*
X181123694Y-111100500D01*
X181190733Y-111120185D01*
X181236488Y-111172989D01*
X181246432Y-111242147D01*
X181217407Y-111305703D01*
X181211375Y-111312181D01*
X180500376Y-112023181D01*
X180439053Y-112056666D01*
X180412695Y-112059500D01*
X175515898Y-112059500D01*
X175515874Y-112059501D01*
X175486514Y-112059501D01*
X175465449Y-112066346D01*
X175446532Y-112070887D01*
X175424650Y-112074352D01*
X175424645Y-112074354D01*
X175404900Y-112084414D01*
X175386936Y-112091855D01*
X175365857Y-112098705D01*
X175347934Y-112111727D01*
X175331349Y-112121890D01*
X175311609Y-112131948D01*
X175300325Y-112143232D01*
X175289041Y-112154517D01*
X174583058Y-112860499D01*
X173410477Y-114033078D01*
X173349154Y-114066563D01*
X173279462Y-114061579D01*
X173257520Y-114050825D01*
X173192639Y-114010653D01*
X173192635Y-114010651D01*
X173081367Y-113967546D01*
X173002456Y-113936976D01*
X172801976Y-113899500D01*
X172598024Y-113899500D01*
X172397544Y-113936976D01*
X172397541Y-113936976D01*
X172397541Y-113936977D01*
X172207364Y-114010651D01*
X172207357Y-114010655D01*
X172033960Y-114118017D01*
X172033958Y-114118019D01*
X171883237Y-114255418D01*
X171760327Y-114418178D01*
X171669422Y-114600739D01*
X171669417Y-114600752D01*
X171613602Y-114796917D01*
X171594785Y-114999999D01*
X171594785Y-115000000D01*
X171613602Y-115203082D01*
X171669417Y-115399247D01*
X171669422Y-115399260D01*
X171760327Y-115581821D01*
X171883237Y-115744581D01*
X172033958Y-115881980D01*
X172033960Y-115881982D01*
X172133141Y-115943392D01*
X172207363Y-115989348D01*
X172397544Y-116063024D01*
X172598024Y-116100500D01*
X172598026Y-116100500D01*
X172801974Y-116100500D01*
X172801976Y-116100500D01*
X173002456Y-116063024D01*
X173192637Y-115989348D01*
X173366041Y-115881981D01*
X173516764Y-115744579D01*
X173639673Y-115581821D01*
X173730582Y-115399250D01*
X173786397Y-115203083D01*
X173801144Y-115043933D01*
X176745668Y-115043933D01*
X176761058Y-115131210D01*
X176776135Y-115216711D01*
X176845623Y-115377804D01*
X176845624Y-115377806D01*
X176845626Y-115377809D01*
X176936595Y-115500000D01*
X176950390Y-115518530D01*
X177084786Y-115631302D01*
X177159065Y-115668606D01*
X177241562Y-115710038D01*
X177241563Y-115710038D01*
X177241567Y-115710040D01*
X177412279Y-115750500D01*
X177412282Y-115750500D01*
X177543701Y-115750500D01*
X177543709Y-115750500D01*
X177674255Y-115735241D01*
X177839117Y-115675237D01*
X177985696Y-115578830D01*
X178106092Y-115451218D01*
X178193812Y-115299281D01*
X178244130Y-115131210D01*
X178251772Y-115000005D01*
X180595202Y-115000005D01*
X180614361Y-115231218D01*
X180671317Y-115456135D01*
X180764516Y-115668609D01*
X180848811Y-115797633D01*
X181516922Y-115129523D01*
X181540507Y-115209844D01*
X181618239Y-115330798D01*
X181726900Y-115424952D01*
X181857685Y-115484680D01*
X181867466Y-115486086D01*
X181201199Y-116152351D01*
X181231650Y-116176050D01*
X181435697Y-116286476D01*
X181435706Y-116286479D01*
X181655139Y-116361811D01*
X181883993Y-116400000D01*
X182116007Y-116400000D01*
X182344860Y-116361811D01*
X182564293Y-116286479D01*
X182564302Y-116286476D01*
X182768350Y-116176050D01*
X182798798Y-116152351D01*
X182132533Y-115486086D01*
X182142315Y-115484680D01*
X182273100Y-115424952D01*
X182381761Y-115330798D01*
X182459493Y-115209844D01*
X182483076Y-115129524D01*
X183151186Y-115797634D01*
X183235484Y-115668606D01*
X183328682Y-115456135D01*
X183385638Y-115231218D01*
X183404797Y-115000005D01*
X183404797Y-115000000D01*
X186594785Y-115000000D01*
X186613602Y-115203082D01*
X186669417Y-115399247D01*
X186669422Y-115399260D01*
X186760327Y-115581821D01*
X186883237Y-115744581D01*
X187033958Y-115881980D01*
X187033960Y-115881982D01*
X187133141Y-115943392D01*
X187207363Y-115989348D01*
X187397544Y-116063024D01*
X187598024Y-116100500D01*
X187598026Y-116100500D01*
X187801974Y-116100500D01*
X187801976Y-116100500D01*
X188002456Y-116063024D01*
X188192637Y-115989348D01*
X188366041Y-115881981D01*
X188516764Y-115744579D01*
X188639673Y-115581821D01*
X188730582Y-115399250D01*
X188786397Y-115203083D01*
X188801144Y-115043933D01*
X191745668Y-115043933D01*
X191761058Y-115131210D01*
X191776135Y-115216711D01*
X191845623Y-115377804D01*
X191845624Y-115377806D01*
X191845626Y-115377809D01*
X191936595Y-115500000D01*
X191950390Y-115518530D01*
X192084786Y-115631302D01*
X192159065Y-115668606D01*
X192241562Y-115710038D01*
X192241563Y-115710038D01*
X192241567Y-115710040D01*
X192412279Y-115750500D01*
X192412282Y-115750500D01*
X192543701Y-115750500D01*
X192543709Y-115750500D01*
X192674255Y-115735241D01*
X192839117Y-115675237D01*
X192985696Y-115578830D01*
X193106092Y-115451218D01*
X193193812Y-115299281D01*
X193244130Y-115131210D01*
X193251772Y-115000005D01*
X195595202Y-115000005D01*
X195614361Y-115231218D01*
X195671317Y-115456135D01*
X195764516Y-115668609D01*
X195848811Y-115797633D01*
X196516922Y-115129522D01*
X196540507Y-115209844D01*
X196618239Y-115330798D01*
X196726900Y-115424952D01*
X196857685Y-115484680D01*
X196867466Y-115486086D01*
X196201199Y-116152351D01*
X196231650Y-116176050D01*
X196435697Y-116286476D01*
X196435706Y-116286479D01*
X196655139Y-116361811D01*
X196883993Y-116400000D01*
X197116007Y-116400000D01*
X197344860Y-116361811D01*
X197564293Y-116286479D01*
X197564302Y-116286476D01*
X197768350Y-116176050D01*
X197798798Y-116152351D01*
X197132533Y-115486086D01*
X197142315Y-115484680D01*
X197273100Y-115424952D01*
X197381761Y-115330798D01*
X197459493Y-115209844D01*
X197483076Y-115129524D01*
X198151186Y-115797634D01*
X198235484Y-115668606D01*
X198328682Y-115456135D01*
X198385638Y-115231218D01*
X198404797Y-115000005D01*
X198404797Y-114999994D01*
X198385638Y-114768781D01*
X198328682Y-114543864D01*
X198235483Y-114331390D01*
X198151186Y-114202364D01*
X197483076Y-114870474D01*
X197459493Y-114790156D01*
X197381761Y-114669202D01*
X197273100Y-114575048D01*
X197142315Y-114515320D01*
X197132532Y-114513913D01*
X197798799Y-113847647D01*
X197768349Y-113823949D01*
X197564302Y-113713523D01*
X197564293Y-113713520D01*
X197344860Y-113638188D01*
X197116007Y-113600000D01*
X196883993Y-113600000D01*
X196655139Y-113638188D01*
X196435706Y-113713520D01*
X196435698Y-113713523D01*
X196231644Y-113823952D01*
X196201200Y-113847646D01*
X196201200Y-113847647D01*
X196867467Y-114513913D01*
X196857685Y-114515320D01*
X196726900Y-114575048D01*
X196618239Y-114669202D01*
X196540507Y-114790156D01*
X196516923Y-114870476D01*
X195848812Y-114202365D01*
X195764516Y-114331391D01*
X195764514Y-114331395D01*
X195671317Y-114543864D01*
X195614361Y-114768781D01*
X195595202Y-114999994D01*
X195595202Y-115000005D01*
X193251772Y-115000005D01*
X193254331Y-114956065D01*
X193223865Y-114783289D01*
X193154377Y-114622196D01*
X193138412Y-114600752D01*
X193049609Y-114481469D01*
X192915214Y-114368698D01*
X192915212Y-114368697D01*
X192758437Y-114289961D01*
X192758344Y-114289939D01*
X192587721Y-114249500D01*
X192456291Y-114249500D01*
X192353567Y-114261507D01*
X192325743Y-114264759D01*
X192325740Y-114264760D01*
X192160884Y-114324762D01*
X192160880Y-114324764D01*
X192014306Y-114421167D01*
X192014305Y-114421168D01*
X191893910Y-114548778D01*
X191806188Y-114700718D01*
X191755870Y-114868789D01*
X191755869Y-114868794D01*
X191745668Y-115043933D01*
X188801144Y-115043933D01*
X188805215Y-115000000D01*
X188805214Y-114999994D01*
X188786397Y-114796917D01*
X188781563Y-114779927D01*
X188730582Y-114600750D01*
X188639673Y-114418179D01*
X188545037Y-114292861D01*
X188516762Y-114255418D01*
X188366041Y-114118019D01*
X188366039Y-114118017D01*
X188192642Y-114010655D01*
X188192639Y-114010653D01*
X188192637Y-114010652D01*
X188192636Y-114010651D01*
X188192635Y-114010651D01*
X188081367Y-113967546D01*
X188002456Y-113936976D01*
X187801976Y-113899500D01*
X187598024Y-113899500D01*
X187397544Y-113936976D01*
X187397541Y-113936976D01*
X187397541Y-113936977D01*
X187207364Y-114010651D01*
X187207357Y-114010655D01*
X187033960Y-114118017D01*
X187033958Y-114118019D01*
X186883237Y-114255418D01*
X186760327Y-114418178D01*
X186669422Y-114600739D01*
X186669417Y-114600752D01*
X186613602Y-114796917D01*
X186594785Y-114999999D01*
X186594785Y-115000000D01*
X183404797Y-115000000D01*
X183404797Y-114999994D01*
X183385638Y-114768781D01*
X183328682Y-114543864D01*
X183235483Y-114331390D01*
X183151186Y-114202364D01*
X182483076Y-114870475D01*
X182459493Y-114790156D01*
X182381761Y-114669202D01*
X182273100Y-114575048D01*
X182142315Y-114515320D01*
X182132534Y-114513913D01*
X182798799Y-113847648D01*
X182798799Y-113847647D01*
X182768349Y-113823949D01*
X182564302Y-113713523D01*
X182564293Y-113713520D01*
X182344860Y-113638188D01*
X182116007Y-113600000D01*
X181883993Y-113600000D01*
X181655139Y-113638188D01*
X181435706Y-113713520D01*
X181435698Y-113713523D01*
X181231644Y-113823952D01*
X181201200Y-113847646D01*
X181201200Y-113847647D01*
X181867466Y-114513913D01*
X181857685Y-114515320D01*
X181726900Y-114575048D01*
X181618239Y-114669202D01*
X181540507Y-114790156D01*
X181516923Y-114870475D01*
X180848812Y-114202365D01*
X180764516Y-114331391D01*
X180764514Y-114331395D01*
X180671317Y-114543864D01*
X180614361Y-114768781D01*
X180595202Y-114999994D01*
X180595202Y-115000005D01*
X178251772Y-115000005D01*
X178254331Y-114956065D01*
X178223865Y-114783289D01*
X178154377Y-114622196D01*
X178138412Y-114600752D01*
X178049609Y-114481469D01*
X177915214Y-114368698D01*
X177915212Y-114368697D01*
X177758437Y-114289961D01*
X177758344Y-114289939D01*
X177587721Y-114249500D01*
X177456291Y-114249500D01*
X177353567Y-114261507D01*
X177325743Y-114264759D01*
X177325740Y-114264760D01*
X177160884Y-114324762D01*
X177160880Y-114324764D01*
X177014306Y-114421167D01*
X177014305Y-114421168D01*
X176893910Y-114548778D01*
X176806188Y-114700718D01*
X176755870Y-114868789D01*
X176755869Y-114868794D01*
X176745668Y-115043933D01*
X173801144Y-115043933D01*
X173805215Y-115000000D01*
X173805214Y-114999994D01*
X173793057Y-114868790D01*
X173791176Y-114848494D01*
X173804591Y-114779927D01*
X173826963Y-114749377D01*
X175679522Y-112896819D01*
X175740846Y-112863334D01*
X175767204Y-112860500D01*
X180693381Y-112860500D01*
X180693383Y-112860500D01*
X180714451Y-112853654D01*
X180733367Y-112849112D01*
X180755254Y-112845646D01*
X180774994Y-112835586D01*
X180792961Y-112828144D01*
X180814040Y-112821296D01*
X180831976Y-112808263D01*
X180848538Y-112798114D01*
X180868292Y-112788050D01*
X180883784Y-112772557D01*
X180883791Y-112772552D01*
X182712552Y-110943791D01*
X182712557Y-110943784D01*
X182728050Y-110928292D01*
X182738109Y-110908548D01*
X182748269Y-110891968D01*
X182761296Y-110874039D01*
X182768142Y-110852967D01*
X182775588Y-110834993D01*
X182785645Y-110815255D01*
X182785646Y-110815254D01*
X182789112Y-110793366D01*
X182793651Y-110774460D01*
X182800500Y-110753383D01*
X182800500Y-110626517D01*
X182800500Y-110626516D01*
X182800500Y-110043933D01*
X191745668Y-110043933D01*
X191761058Y-110131210D01*
X191776135Y-110216711D01*
X191845623Y-110377804D01*
X191845624Y-110377806D01*
X191845626Y-110377809D01*
X191861596Y-110399260D01*
X191950390Y-110518530D01*
X192084786Y-110631302D01*
X192162488Y-110670325D01*
X192241562Y-110710038D01*
X192241563Y-110710038D01*
X192241567Y-110710040D01*
X192412279Y-110750500D01*
X192412282Y-110750500D01*
X192543701Y-110750500D01*
X192543709Y-110750500D01*
X192674255Y-110735241D01*
X192839117Y-110675237D01*
X192985696Y-110578830D01*
X193106092Y-110451218D01*
X193193812Y-110299281D01*
X193244130Y-110131210D01*
X193251772Y-110000000D01*
X194994785Y-110000000D01*
X195013602Y-110203082D01*
X195069417Y-110399247D01*
X195069422Y-110399260D01*
X195160327Y-110581821D01*
X195283237Y-110744581D01*
X195433958Y-110881980D01*
X195433960Y-110881982D01*
X195476879Y-110908556D01*
X195607363Y-110989348D01*
X195797544Y-111063024D01*
X195998024Y-111100500D01*
X195998026Y-111100500D01*
X196201974Y-111100500D01*
X196201976Y-111100500D01*
X196402456Y-111063024D01*
X196592637Y-110989348D01*
X196766041Y-110881981D01*
X196894122Y-110765219D01*
X196916762Y-110744581D01*
X196916764Y-110744579D01*
X197039673Y-110581821D01*
X197130582Y-110399250D01*
X197186397Y-110203083D01*
X197205215Y-110000000D01*
X197186397Y-109796917D01*
X197130582Y-109600750D01*
X197039673Y-109418179D01*
X196949293Y-109298496D01*
X196916762Y-109255418D01*
X196766041Y-109118019D01*
X196766039Y-109118017D01*
X196592642Y-109010655D01*
X196592639Y-109010653D01*
X196592637Y-109010652D01*
X196592636Y-109010651D01*
X196592635Y-109010651D01*
X196469805Y-108963067D01*
X196402456Y-108936976D01*
X196201976Y-108899500D01*
X195998024Y-108899500D01*
X195797544Y-108936976D01*
X195797541Y-108936976D01*
X195797541Y-108936977D01*
X195607364Y-109010651D01*
X195607357Y-109010655D01*
X195433960Y-109118017D01*
X195433958Y-109118019D01*
X195283237Y-109255418D01*
X195160327Y-109418178D01*
X195069422Y-109600739D01*
X195069417Y-109600752D01*
X195013602Y-109796917D01*
X194994785Y-109999999D01*
X194994785Y-110000000D01*
X193251772Y-110000000D01*
X193254331Y-109956065D01*
X193223865Y-109783289D01*
X193154377Y-109622196D01*
X193138412Y-109600752D01*
X193049609Y-109481469D01*
X192915214Y-109368698D01*
X192915212Y-109368697D01*
X192758437Y-109289961D01*
X192758433Y-109289960D01*
X192587721Y-109249500D01*
X192456291Y-109249500D01*
X192351854Y-109261707D01*
X192325743Y-109264759D01*
X192325740Y-109264760D01*
X192160884Y-109324762D01*
X192160880Y-109324764D01*
X192014306Y-109421167D01*
X192014305Y-109421168D01*
X191893910Y-109548778D01*
X191806188Y-109700718D01*
X191755870Y-109868789D01*
X191755869Y-109868794D01*
X191745668Y-110043933D01*
X182800500Y-110043933D01*
X182800500Y-109430003D01*
X182800500Y-109427681D01*
X182800499Y-109427651D01*
X182800499Y-109398090D01*
X182800499Y-109398089D01*
X182793653Y-109377023D01*
X182789111Y-109358102D01*
X182785646Y-109336218D01*
X182775586Y-109316474D01*
X182768140Y-109298496D01*
X182761297Y-109277435D01*
X182761296Y-109277434D01*
X182761296Y-109277432D01*
X182748269Y-109259503D01*
X182738104Y-109242914D01*
X182728050Y-109223180D01*
X182638342Y-109133472D01*
X182136819Y-108631948D01*
X182103334Y-108570625D01*
X182100500Y-108544267D01*
X182100500Y-106900000D01*
X189794785Y-106900000D01*
X189813602Y-107103082D01*
X189869417Y-107299247D01*
X189869422Y-107299260D01*
X189960327Y-107481821D01*
X190083237Y-107644581D01*
X190233958Y-107781980D01*
X190233960Y-107781982D01*
X190333141Y-107843392D01*
X190407363Y-107889348D01*
X190597544Y-107963024D01*
X190798024Y-108000500D01*
X190798026Y-108000500D01*
X191001974Y-108000500D01*
X191001976Y-108000500D01*
X191202456Y-107963024D01*
X191392637Y-107889348D01*
X191566041Y-107781981D01*
X191716764Y-107644579D01*
X191839673Y-107481821D01*
X191930582Y-107299250D01*
X191986397Y-107103083D01*
X192005215Y-106900000D01*
X192994785Y-106900000D01*
X193013602Y-107103082D01*
X193069417Y-107299247D01*
X193069422Y-107299260D01*
X193160327Y-107481821D01*
X193283237Y-107644581D01*
X193433958Y-107781980D01*
X193433960Y-107781982D01*
X193533141Y-107843392D01*
X193607363Y-107889348D01*
X193797544Y-107963024D01*
X193998024Y-108000500D01*
X193998026Y-108000500D01*
X194201974Y-108000500D01*
X194201976Y-108000500D01*
X194402456Y-107963024D01*
X194592637Y-107889348D01*
X194766041Y-107781981D01*
X194916764Y-107644579D01*
X195039673Y-107481821D01*
X195130582Y-107299250D01*
X195186397Y-107103083D01*
X195205215Y-106900000D01*
X195186397Y-106696917D01*
X195130582Y-106500750D01*
X195039673Y-106318179D01*
X194916764Y-106155421D01*
X194916762Y-106155418D01*
X194766041Y-106018019D01*
X194766039Y-106018017D01*
X194592642Y-105910655D01*
X194592639Y-105910653D01*
X194592637Y-105910652D01*
X194592636Y-105910651D01*
X194592635Y-105910651D01*
X194469805Y-105863067D01*
X194402456Y-105836976D01*
X194201976Y-105799500D01*
X193998024Y-105799500D01*
X193797544Y-105836976D01*
X193797541Y-105836976D01*
X193797541Y-105836977D01*
X193607364Y-105910651D01*
X193607357Y-105910655D01*
X193433960Y-106018017D01*
X193433958Y-106018019D01*
X193283237Y-106155418D01*
X193160327Y-106318178D01*
X193069422Y-106500739D01*
X193069417Y-106500752D01*
X193013602Y-106696917D01*
X192994785Y-106899999D01*
X192994785Y-106900000D01*
X192005215Y-106900000D01*
X191986397Y-106696917D01*
X191930582Y-106500750D01*
X191839673Y-106318179D01*
X191716764Y-106155421D01*
X191716762Y-106155418D01*
X191566041Y-106018019D01*
X191566039Y-106018017D01*
X191392642Y-105910655D01*
X191392639Y-105910653D01*
X191392637Y-105910652D01*
X191392636Y-105910651D01*
X191392635Y-105910651D01*
X191269805Y-105863067D01*
X191202456Y-105836976D01*
X191001976Y-105799500D01*
X190798024Y-105799500D01*
X190597544Y-105836976D01*
X190597541Y-105836976D01*
X190597541Y-105836977D01*
X190407364Y-105910651D01*
X190407357Y-105910655D01*
X190233960Y-106018017D01*
X190233958Y-106018019D01*
X190083237Y-106155418D01*
X189960327Y-106318178D01*
X189869422Y-106500739D01*
X189869417Y-106500752D01*
X189813602Y-106696917D01*
X189794785Y-106899999D01*
X189794785Y-106900000D01*
X182100500Y-106900000D01*
X182100500Y-86081769D01*
X182100500Y-86081767D01*
X182093653Y-86060697D01*
X182089111Y-86041777D01*
X182085646Y-86019896D01*
X182075584Y-86000149D01*
X182068140Y-85982176D01*
X182061295Y-85961109D01*
X182048274Y-85943187D01*
X182038108Y-85926598D01*
X182035718Y-85921908D01*
X182028050Y-85906858D01*
X182007398Y-85886206D01*
X182007380Y-85886186D01*
X180345287Y-84224093D01*
X180345256Y-84224064D01*
X180324342Y-84203150D01*
X180324341Y-84203149D01*
X180304600Y-84193090D01*
X180288014Y-84182926D01*
X180270090Y-84169904D01*
X180270091Y-84169904D01*
X180249018Y-84163057D01*
X180231045Y-84155612D01*
X180211307Y-84145555D01*
X180211304Y-84145554D01*
X180189418Y-84142087D01*
X180170507Y-84137546D01*
X180149439Y-84130701D01*
X180149434Y-84130700D01*
X180149433Y-84130700D01*
X180117519Y-84130700D01*
X166232233Y-84130700D01*
X166105367Y-84130700D01*
X166105364Y-84130700D01*
X166105362Y-84130701D01*
X166084290Y-84137547D01*
X166065382Y-84142086D01*
X166043498Y-84145553D01*
X166043494Y-84145554D01*
X166023751Y-84155613D01*
X166005787Y-84163054D01*
X165984711Y-84169903D01*
X165966785Y-84182927D01*
X165950200Y-84193090D01*
X165930459Y-84203148D01*
X165930459Y-84203149D01*
X165907894Y-84225713D01*
X165907891Y-84225716D01*
X163720361Y-86413244D01*
X163659038Y-86446729D01*
X163598569Y-86444779D01*
X163477415Y-86410113D01*
X163477418Y-86410113D01*
X163376058Y-86401102D01*
X163358037Y-86399500D01*
X163358035Y-86399500D01*
X163358034Y-86399500D01*
X162622902Y-86399500D01*
X161641964Y-86399501D01*
X161612727Y-86402100D01*
X161522584Y-86410113D01*
X161326954Y-86466089D01*
X161236772Y-86513196D01*
X161146593Y-86560302D01*
X161146591Y-86560303D01*
X161146590Y-86560304D01*
X160988890Y-86688890D01*
X160888263Y-86812301D01*
X160860302Y-86846593D01*
X160832414Y-86899982D01*
X160766089Y-87026954D01*
X160710114Y-87222583D01*
X160710113Y-87222586D01*
X160699500Y-87341965D01*
X160699500Y-87341966D01*
X140000500Y-87341966D01*
X140000500Y-78902703D01*
X140000736Y-78897298D01*
X140004485Y-78854446D01*
X140016915Y-78728236D01*
X140020537Y-78708328D01*
X140038415Y-78641606D01*
X140066683Y-78548421D01*
X140072945Y-78532055D01*
X140104413Y-78464573D01*
X140105904Y-78461592D01*
X140105905Y-78461590D01*
X140150768Y-78377657D01*
X140154633Y-78371364D01*
X140201019Y-78305118D01*
X140203831Y-78301413D01*
X140263116Y-78229174D01*
X140267154Y-78224718D01*
X140324714Y-78167158D01*
X140329173Y-78163117D01*
X140401394Y-78103848D01*
X140405141Y-78101003D01*
X140471358Y-78054638D01*
X140477663Y-78050765D01*
X140561594Y-78005903D01*
X140564588Y-78004406D01*
X140632048Y-77972949D01*
X140648421Y-77966684D01*
X140741613Y-77938413D01*
X140808317Y-77920540D01*
X140828236Y-77916916D01*
X140954527Y-77904478D01*
X140997305Y-77900735D01*
X141002706Y-77900500D01*
X198997296Y-77900500D01*
X199002692Y-77900735D01*
G37*
%TD.AperFunction*%
%TD*%
M02*
