%TF.GenerationSoftware,KiCad,Pcbnew,7.0.6-7.0.6~ubuntu22.04.1*%
%TF.CreationDate,2023-08-06T19:07:09+12:00*%
%TF.ProjectId,AUX_SWITCH,4155585f-5357-4495-9443-482e6b696361,v1.0*%
%TF.SameCoordinates,Original*%
%TF.FileFunction,Drillmap*%
%TF.FilePolarity,Positive*%
%FSLAX45Y45*%
G04 Gerber Fmt 4.5, Leading zero omitted, Abs format (unit mm)*
G04 Created by KiCad (PCBNEW 7.0.6-7.0.6~ubuntu22.04.1) date 2023-08-06 19:07:09*
%MOMM*%
%LPD*%
G01*
G04 APERTURE LIST*
%ADD10C,0.050000*%
%ADD11C,0.200000*%
%ADD12C,0.030000*%
%ADD13C,0.100000*%
%ADD14C,0.240000*%
G04 APERTURE END LIST*
D10*
X14000000Y-11690000D02*
G75*
G03*
X14100000Y-11790000I100000J0D01*
G01*
X14100000Y-7790000D02*
G75*
G03*
X14000000Y-7890000I0J-100000D01*
G01*
X20000000Y-7890000D02*
G75*
G03*
X19900000Y-7790000I-100000J0D01*
G01*
X19900000Y-11790000D02*
G75*
G03*
X20000000Y-11690000I0J100000D01*
G01*
X15700000Y-11790000D02*
X15300000Y-11790000D01*
X17200000Y-11790000D02*
X16800000Y-11790000D01*
X20000000Y-11690000D02*
X20000000Y-7890000D01*
X18700000Y-11790000D02*
X18300000Y-11790000D01*
X19800000Y-11790000D02*
X19900000Y-11790000D01*
X14200000Y-11790000D02*
X14100000Y-11790000D01*
X19900000Y-7790000D02*
X14100000Y-7790000D01*
X14000000Y-7890000D02*
X14000000Y-11690000D01*
D11*
D12*
X14209000Y-7859000D02*
X14239000Y-7889000D01*
X14239000Y-7859000D02*
X14209000Y-7889000D01*
X14209000Y-8113000D02*
X14239000Y-8143000D01*
X14239000Y-8113000D02*
X14209000Y-8143000D01*
X14209000Y-8367000D02*
X14239000Y-8397000D01*
X14239000Y-8367000D02*
X14209000Y-8397000D01*
X14209000Y-8621000D02*
X14239000Y-8651000D01*
X14239000Y-8621000D02*
X14209000Y-8651000D01*
X14209000Y-8875000D02*
X14239000Y-8905000D01*
X14239000Y-8875000D02*
X14209000Y-8905000D01*
X14209000Y-9129000D02*
X14239000Y-9159000D01*
X14239000Y-9129000D02*
X14209000Y-9159000D01*
X14209000Y-9383000D02*
X14239000Y-9413000D01*
X14239000Y-9383000D02*
X14209000Y-9413000D01*
X14209000Y-9637000D02*
X14239000Y-9667000D01*
X14239000Y-9637000D02*
X14209000Y-9667000D01*
X14209000Y-9891000D02*
X14239000Y-9921000D01*
X14239000Y-9891000D02*
X14209000Y-9921000D01*
X14209000Y-10145000D02*
X14239000Y-10175000D01*
X14239000Y-10145000D02*
X14209000Y-10175000D01*
X14209000Y-10399000D02*
X14239000Y-10429000D01*
X14239000Y-10399000D02*
X14209000Y-10429000D01*
X14209000Y-10653000D02*
X14239000Y-10683000D01*
X14239000Y-10653000D02*
X14209000Y-10683000D01*
X14209000Y-10907000D02*
X14239000Y-10937000D01*
X14239000Y-10907000D02*
X14209000Y-10937000D01*
X14209000Y-11161000D02*
X14239000Y-11191000D01*
X14239000Y-11161000D02*
X14209000Y-11191000D01*
X14209000Y-11669000D02*
X14239000Y-11699000D01*
X14239000Y-11669000D02*
X14209000Y-11699000D01*
X14463000Y-7859000D02*
X14493000Y-7889000D01*
X14493000Y-7859000D02*
X14463000Y-7889000D01*
X14463000Y-8113000D02*
X14493000Y-8143000D01*
X14493000Y-8113000D02*
X14463000Y-8143000D01*
X14463000Y-8367000D02*
X14493000Y-8397000D01*
X14493000Y-8367000D02*
X14463000Y-8397000D01*
X14463000Y-8621000D02*
X14493000Y-8651000D01*
X14493000Y-8621000D02*
X14463000Y-8651000D01*
X14463000Y-8875000D02*
X14493000Y-8905000D01*
X14493000Y-8875000D02*
X14463000Y-8905000D01*
X14463000Y-9129000D02*
X14493000Y-9159000D01*
X14493000Y-9129000D02*
X14463000Y-9159000D01*
X14463000Y-9383000D02*
X14493000Y-9413000D01*
X14493000Y-9383000D02*
X14463000Y-9413000D01*
X14463000Y-9637000D02*
X14493000Y-9667000D01*
X14493000Y-9637000D02*
X14463000Y-9667000D01*
X14463000Y-9891000D02*
X14493000Y-9921000D01*
X14493000Y-9891000D02*
X14463000Y-9921000D01*
X14463000Y-10145000D02*
X14493000Y-10175000D01*
X14493000Y-10145000D02*
X14463000Y-10175000D01*
X14463000Y-10399000D02*
X14493000Y-10429000D01*
X14493000Y-10399000D02*
X14463000Y-10429000D01*
X14463000Y-10907000D02*
X14493000Y-10937000D01*
X14493000Y-10907000D02*
X14463000Y-10937000D01*
X14463000Y-11161000D02*
X14493000Y-11191000D01*
X14493000Y-11161000D02*
X14463000Y-11191000D01*
X14463000Y-11415000D02*
X14493000Y-11445000D01*
X14493000Y-11415000D02*
X14463000Y-11445000D01*
X14463000Y-11669000D02*
X14493000Y-11699000D01*
X14493000Y-11669000D02*
X14463000Y-11699000D01*
X14717000Y-7859000D02*
X14747000Y-7889000D01*
X14747000Y-7859000D02*
X14717000Y-7889000D01*
X14717000Y-8113000D02*
X14747000Y-8143000D01*
X14747000Y-8113000D02*
X14717000Y-8143000D01*
X14717000Y-8367000D02*
X14747000Y-8397000D01*
X14747000Y-8367000D02*
X14717000Y-8397000D01*
X14717000Y-8621000D02*
X14747000Y-8651000D01*
X14747000Y-8621000D02*
X14717000Y-8651000D01*
X14717000Y-8875000D02*
X14747000Y-8905000D01*
X14747000Y-8875000D02*
X14717000Y-8905000D01*
X14717000Y-9637000D02*
X14747000Y-9667000D01*
X14747000Y-9637000D02*
X14717000Y-9667000D01*
X14717000Y-9891000D02*
X14747000Y-9921000D01*
X14747000Y-9891000D02*
X14717000Y-9921000D01*
X14717000Y-10145000D02*
X14747000Y-10175000D01*
X14747000Y-10145000D02*
X14717000Y-10175000D01*
X14717000Y-10399000D02*
X14747000Y-10429000D01*
X14747000Y-10399000D02*
X14717000Y-10429000D01*
X14717000Y-11161000D02*
X14747000Y-11191000D01*
X14747000Y-11161000D02*
X14717000Y-11191000D01*
X14717000Y-11415000D02*
X14747000Y-11445000D01*
X14747000Y-11415000D02*
X14717000Y-11445000D01*
X14971000Y-7859000D02*
X15001000Y-7889000D01*
X15001000Y-7859000D02*
X14971000Y-7889000D01*
X14971000Y-8113000D02*
X15001000Y-8143000D01*
X15001000Y-8113000D02*
X14971000Y-8143000D01*
X14971000Y-8367000D02*
X15001000Y-8397000D01*
X15001000Y-8367000D02*
X14971000Y-8397000D01*
X14971000Y-8621000D02*
X15001000Y-8651000D01*
X15001000Y-8621000D02*
X14971000Y-8651000D01*
X14971000Y-8875000D02*
X15001000Y-8905000D01*
X15001000Y-8875000D02*
X14971000Y-8905000D01*
X14971000Y-9129000D02*
X15001000Y-9159000D01*
X15001000Y-9129000D02*
X14971000Y-9159000D01*
X14971000Y-9637000D02*
X15001000Y-9667000D01*
X15001000Y-9637000D02*
X14971000Y-9667000D01*
X14971000Y-9891000D02*
X15001000Y-9921000D01*
X15001000Y-9891000D02*
X14971000Y-9921000D01*
X14971000Y-10145000D02*
X15001000Y-10175000D01*
X15001000Y-10145000D02*
X14971000Y-10175000D01*
X14971000Y-10399000D02*
X15001000Y-10429000D01*
X15001000Y-10399000D02*
X14971000Y-10429000D01*
X14971000Y-11161000D02*
X15001000Y-11191000D01*
X15001000Y-11161000D02*
X14971000Y-11191000D01*
X14971000Y-11415000D02*
X15001000Y-11445000D01*
X15001000Y-11415000D02*
X14971000Y-11445000D01*
X15225000Y-7859000D02*
X15255000Y-7889000D01*
X15255000Y-7859000D02*
X15225000Y-7889000D01*
X15225000Y-8113000D02*
X15255000Y-8143000D01*
X15255000Y-8113000D02*
X15225000Y-8143000D01*
X15225000Y-8367000D02*
X15255000Y-8397000D01*
X15255000Y-8367000D02*
X15225000Y-8397000D01*
X15225000Y-8621000D02*
X15255000Y-8651000D01*
X15255000Y-8621000D02*
X15225000Y-8651000D01*
X15225000Y-8875000D02*
X15255000Y-8905000D01*
X15255000Y-8875000D02*
X15225000Y-8905000D01*
X15225000Y-9129000D02*
X15255000Y-9159000D01*
X15255000Y-9129000D02*
X15225000Y-9159000D01*
X15225000Y-9383000D02*
X15255000Y-9413000D01*
X15255000Y-9383000D02*
X15225000Y-9413000D01*
X15225000Y-9637000D02*
X15255000Y-9667000D01*
X15255000Y-9637000D02*
X15225000Y-9667000D01*
X15225000Y-9891000D02*
X15255000Y-9921000D01*
X15255000Y-9891000D02*
X15225000Y-9921000D01*
X15225000Y-10145000D02*
X15255000Y-10175000D01*
X15255000Y-10145000D02*
X15225000Y-10175000D01*
X15225000Y-10399000D02*
X15255000Y-10429000D01*
X15255000Y-10399000D02*
X15225000Y-10429000D01*
X15225000Y-10653000D02*
X15255000Y-10683000D01*
X15255000Y-10653000D02*
X15225000Y-10683000D01*
X15225000Y-11161000D02*
X15255000Y-11191000D01*
X15255000Y-11161000D02*
X15225000Y-11191000D01*
X15225000Y-11669000D02*
X15255000Y-11699000D01*
X15255000Y-11669000D02*
X15225000Y-11699000D01*
X15479000Y-7859000D02*
X15509000Y-7889000D01*
X15509000Y-7859000D02*
X15479000Y-7889000D01*
X15479000Y-8113000D02*
X15509000Y-8143000D01*
X15509000Y-8113000D02*
X15479000Y-8143000D01*
X15479000Y-8367000D02*
X15509000Y-8397000D01*
X15509000Y-8367000D02*
X15479000Y-8397000D01*
X15479000Y-8621000D02*
X15509000Y-8651000D01*
X15509000Y-8621000D02*
X15479000Y-8651000D01*
X15479000Y-8875000D02*
X15509000Y-8905000D01*
X15509000Y-8875000D02*
X15479000Y-8905000D01*
X15479000Y-9129000D02*
X15509000Y-9159000D01*
X15509000Y-9129000D02*
X15479000Y-9159000D01*
X15479000Y-9383000D02*
X15509000Y-9413000D01*
X15509000Y-9383000D02*
X15479000Y-9413000D01*
X15479000Y-9637000D02*
X15509000Y-9667000D01*
X15509000Y-9637000D02*
X15479000Y-9667000D01*
X15479000Y-9891000D02*
X15509000Y-9921000D01*
X15509000Y-9891000D02*
X15479000Y-9921000D01*
X15479000Y-10145000D02*
X15509000Y-10175000D01*
X15509000Y-10145000D02*
X15479000Y-10175000D01*
X15479000Y-10399000D02*
X15509000Y-10429000D01*
X15509000Y-10399000D02*
X15479000Y-10429000D01*
X15479000Y-10653000D02*
X15509000Y-10683000D01*
X15509000Y-10653000D02*
X15479000Y-10683000D01*
X15479000Y-10907000D02*
X15509000Y-10937000D01*
X15509000Y-10907000D02*
X15479000Y-10937000D01*
X15479000Y-11161000D02*
X15509000Y-11191000D01*
X15509000Y-11161000D02*
X15479000Y-11191000D01*
X15479000Y-11415000D02*
X15509000Y-11445000D01*
X15509000Y-11415000D02*
X15479000Y-11445000D01*
X15479000Y-11669000D02*
X15509000Y-11699000D01*
X15509000Y-11669000D02*
X15479000Y-11699000D01*
X15733000Y-7859000D02*
X15763000Y-7889000D01*
X15763000Y-7859000D02*
X15733000Y-7889000D01*
X15733000Y-8113000D02*
X15763000Y-8143000D01*
X15763000Y-8113000D02*
X15733000Y-8143000D01*
X15733000Y-8367000D02*
X15763000Y-8397000D01*
X15763000Y-8367000D02*
X15733000Y-8397000D01*
X15733000Y-8367000D02*
X15763000Y-8397000D01*
X15763000Y-8367000D02*
X15733000Y-8397000D01*
X15733000Y-8621000D02*
X15763000Y-8651000D01*
X15763000Y-8621000D02*
X15733000Y-8651000D01*
X15733000Y-8875000D02*
X15763000Y-8905000D01*
X15763000Y-8875000D02*
X15733000Y-8905000D01*
X15733000Y-9129000D02*
X15763000Y-9159000D01*
X15763000Y-9129000D02*
X15733000Y-9159000D01*
X15733000Y-9383000D02*
X15763000Y-9413000D01*
X15763000Y-9383000D02*
X15733000Y-9413000D01*
X15733000Y-9637000D02*
X15763000Y-9667000D01*
X15763000Y-9637000D02*
X15733000Y-9667000D01*
X15733000Y-9891000D02*
X15763000Y-9921000D01*
X15763000Y-9891000D02*
X15733000Y-9921000D01*
X15733000Y-10145000D02*
X15763000Y-10175000D01*
X15763000Y-10145000D02*
X15733000Y-10175000D01*
X15733000Y-10145000D02*
X15763000Y-10175000D01*
X15763000Y-10145000D02*
X15733000Y-10175000D01*
X15733000Y-10399000D02*
X15763000Y-10429000D01*
X15763000Y-10399000D02*
X15733000Y-10429000D01*
X15733000Y-10399000D02*
X15763000Y-10429000D01*
X15763000Y-10399000D02*
X15733000Y-10429000D01*
X15733000Y-10653000D02*
X15763000Y-10683000D01*
X15763000Y-10653000D02*
X15733000Y-10683000D01*
X15733000Y-10653000D02*
X15763000Y-10683000D01*
X15763000Y-10653000D02*
X15733000Y-10683000D01*
X15733000Y-10907000D02*
X15763000Y-10937000D01*
X15763000Y-10907000D02*
X15733000Y-10937000D01*
X15733000Y-10907000D02*
X15763000Y-10937000D01*
X15763000Y-10907000D02*
X15733000Y-10937000D01*
X15733000Y-11161000D02*
X15763000Y-11191000D01*
X15763000Y-11161000D02*
X15733000Y-11191000D01*
X15733000Y-11161000D02*
X15763000Y-11191000D01*
X15763000Y-11161000D02*
X15733000Y-11191000D01*
X15733000Y-11669000D02*
X15763000Y-11699000D01*
X15763000Y-11669000D02*
X15733000Y-11699000D01*
X15733000Y-11669000D02*
X15763000Y-11699000D01*
X15763000Y-11669000D02*
X15733000Y-11699000D01*
X15987000Y-7859000D02*
X16017000Y-7889000D01*
X16017000Y-7859000D02*
X15987000Y-7889000D01*
X15987000Y-8113000D02*
X16017000Y-8143000D01*
X16017000Y-8113000D02*
X15987000Y-8143000D01*
X15987000Y-8367000D02*
X16017000Y-8397000D01*
X16017000Y-8367000D02*
X15987000Y-8397000D01*
X15987000Y-8621000D02*
X16017000Y-8651000D01*
X16017000Y-8621000D02*
X15987000Y-8651000D01*
X15987000Y-8875000D02*
X16017000Y-8905000D01*
X16017000Y-8875000D02*
X15987000Y-8905000D01*
X15987000Y-9129000D02*
X16017000Y-9159000D01*
X16017000Y-9129000D02*
X15987000Y-9159000D01*
X15987000Y-9383000D02*
X16017000Y-9413000D01*
X16017000Y-9383000D02*
X15987000Y-9413000D01*
X15987000Y-9637000D02*
X16017000Y-9667000D01*
X16017000Y-9637000D02*
X15987000Y-9667000D01*
X15987000Y-9891000D02*
X16017000Y-9921000D01*
X16017000Y-9891000D02*
X15987000Y-9921000D01*
X15987000Y-10145000D02*
X16017000Y-10175000D01*
X16017000Y-10145000D02*
X15987000Y-10175000D01*
X15987000Y-10399000D02*
X16017000Y-10429000D01*
X16017000Y-10399000D02*
X15987000Y-10429000D01*
X15987000Y-10907000D02*
X16017000Y-10937000D01*
X16017000Y-10907000D02*
X15987000Y-10937000D01*
X15987000Y-11161000D02*
X16017000Y-11191000D01*
X16017000Y-11161000D02*
X15987000Y-11191000D01*
X15987000Y-11415000D02*
X16017000Y-11445000D01*
X16017000Y-11415000D02*
X15987000Y-11445000D01*
X16241000Y-7859000D02*
X16271000Y-7889000D01*
X16271000Y-7859000D02*
X16241000Y-7889000D01*
X16241000Y-8113000D02*
X16271000Y-8143000D01*
X16271000Y-8113000D02*
X16241000Y-8143000D01*
X16241000Y-8367000D02*
X16271000Y-8397000D01*
X16271000Y-8367000D02*
X16241000Y-8397000D01*
X16241000Y-10145000D02*
X16271000Y-10175000D01*
X16271000Y-10145000D02*
X16241000Y-10175000D01*
X16241000Y-10399000D02*
X16271000Y-10429000D01*
X16271000Y-10399000D02*
X16241000Y-10429000D01*
X16241000Y-10653000D02*
X16271000Y-10683000D01*
X16271000Y-10653000D02*
X16241000Y-10683000D01*
X16241000Y-11161000D02*
X16271000Y-11191000D01*
X16271000Y-11161000D02*
X16241000Y-11191000D01*
X16495000Y-7859000D02*
X16525000Y-7889000D01*
X16525000Y-7859000D02*
X16495000Y-7889000D01*
X16495000Y-8113000D02*
X16525000Y-8143000D01*
X16525000Y-8113000D02*
X16495000Y-8143000D01*
X16495000Y-8367000D02*
X16525000Y-8397000D01*
X16525000Y-8367000D02*
X16495000Y-8397000D01*
X16495000Y-10145000D02*
X16525000Y-10175000D01*
X16525000Y-10145000D02*
X16495000Y-10175000D01*
X16495000Y-10399000D02*
X16525000Y-10429000D01*
X16525000Y-10399000D02*
X16495000Y-10429000D01*
X16495000Y-11161000D02*
X16525000Y-11191000D01*
X16525000Y-11161000D02*
X16495000Y-11191000D01*
X16495000Y-11415000D02*
X16525000Y-11445000D01*
X16525000Y-11415000D02*
X16495000Y-11445000D01*
X16749000Y-7859000D02*
X16779000Y-7889000D01*
X16779000Y-7859000D02*
X16749000Y-7889000D01*
X16749000Y-8113000D02*
X16779000Y-8143000D01*
X16779000Y-8113000D02*
X16749000Y-8143000D01*
X16749000Y-8367000D02*
X16779000Y-8397000D01*
X16779000Y-8367000D02*
X16749000Y-8397000D01*
X16749000Y-10145000D02*
X16779000Y-10175000D01*
X16779000Y-10145000D02*
X16749000Y-10175000D01*
X16749000Y-10399000D02*
X16779000Y-10429000D01*
X16779000Y-10399000D02*
X16749000Y-10429000D01*
X16749000Y-10653000D02*
X16779000Y-10683000D01*
X16779000Y-10653000D02*
X16749000Y-10683000D01*
X16749000Y-10907000D02*
X16779000Y-10937000D01*
X16779000Y-10907000D02*
X16749000Y-10937000D01*
X16749000Y-11161000D02*
X16779000Y-11191000D01*
X16779000Y-11161000D02*
X16749000Y-11191000D01*
X16749000Y-11669000D02*
X16779000Y-11699000D01*
X16779000Y-11669000D02*
X16749000Y-11699000D01*
X17003000Y-7859000D02*
X17033000Y-7889000D01*
X17033000Y-7859000D02*
X17003000Y-7889000D01*
X17003000Y-8113000D02*
X17033000Y-8143000D01*
X17033000Y-8113000D02*
X17003000Y-8143000D01*
X17003000Y-8367000D02*
X17033000Y-8397000D01*
X17033000Y-8367000D02*
X17003000Y-8397000D01*
X17003000Y-10145000D02*
X17033000Y-10175000D01*
X17033000Y-10145000D02*
X17003000Y-10175000D01*
X17003000Y-10399000D02*
X17033000Y-10429000D01*
X17033000Y-10399000D02*
X17003000Y-10429000D01*
X17003000Y-10653000D02*
X17033000Y-10683000D01*
X17033000Y-10653000D02*
X17003000Y-10683000D01*
X17003000Y-10907000D02*
X17033000Y-10937000D01*
X17033000Y-10907000D02*
X17003000Y-10937000D01*
X17003000Y-11161000D02*
X17033000Y-11191000D01*
X17033000Y-11161000D02*
X17003000Y-11191000D01*
X17003000Y-11415000D02*
X17033000Y-11445000D01*
X17033000Y-11415000D02*
X17003000Y-11445000D01*
X17003000Y-11669000D02*
X17033000Y-11699000D01*
X17033000Y-11669000D02*
X17003000Y-11699000D01*
X17257000Y-7859000D02*
X17287000Y-7889000D01*
X17287000Y-7859000D02*
X17257000Y-7889000D01*
X17257000Y-8113000D02*
X17287000Y-8143000D01*
X17287000Y-8113000D02*
X17257000Y-8143000D01*
X17257000Y-8367000D02*
X17287000Y-8397000D01*
X17287000Y-8367000D02*
X17257000Y-8397000D01*
X17257000Y-10145000D02*
X17287000Y-10175000D01*
X17287000Y-10145000D02*
X17257000Y-10175000D01*
X17257000Y-10399000D02*
X17287000Y-10429000D01*
X17287000Y-10399000D02*
X17257000Y-10429000D01*
X17257000Y-10653000D02*
X17287000Y-10683000D01*
X17287000Y-10653000D02*
X17257000Y-10683000D01*
X17257000Y-10907000D02*
X17287000Y-10937000D01*
X17287000Y-10907000D02*
X17257000Y-10937000D01*
X17257000Y-11161000D02*
X17287000Y-11191000D01*
X17287000Y-11161000D02*
X17257000Y-11191000D01*
X17257000Y-11415000D02*
X17287000Y-11445000D01*
X17287000Y-11415000D02*
X17257000Y-11445000D01*
X17257000Y-11669000D02*
X17287000Y-11699000D01*
X17287000Y-11669000D02*
X17257000Y-11699000D01*
X17511000Y-7859000D02*
X17541000Y-7889000D01*
X17541000Y-7859000D02*
X17511000Y-7889000D01*
X17511000Y-8113000D02*
X17541000Y-8143000D01*
X17541000Y-8113000D02*
X17511000Y-8143000D01*
X17511000Y-8367000D02*
X17541000Y-8397000D01*
X17541000Y-8367000D02*
X17511000Y-8397000D01*
X17511000Y-10145000D02*
X17541000Y-10175000D01*
X17541000Y-10145000D02*
X17511000Y-10175000D01*
X17511000Y-10399000D02*
X17541000Y-10429000D01*
X17541000Y-10399000D02*
X17511000Y-10429000D01*
X17511000Y-10907000D02*
X17541000Y-10937000D01*
X17541000Y-10907000D02*
X17511000Y-10937000D01*
X17511000Y-11161000D02*
X17541000Y-11191000D01*
X17541000Y-11161000D02*
X17511000Y-11191000D01*
X17511000Y-11415000D02*
X17541000Y-11445000D01*
X17541000Y-11415000D02*
X17511000Y-11445000D01*
X17765000Y-7859000D02*
X17795000Y-7889000D01*
X17795000Y-7859000D02*
X17765000Y-7889000D01*
X17765000Y-8113000D02*
X17795000Y-8143000D01*
X17795000Y-8113000D02*
X17765000Y-8143000D01*
X17765000Y-8367000D02*
X17795000Y-8397000D01*
X17795000Y-8367000D02*
X17765000Y-8397000D01*
X17765000Y-10145000D02*
X17795000Y-10175000D01*
X17795000Y-10145000D02*
X17765000Y-10175000D01*
X17765000Y-10399000D02*
X17795000Y-10429000D01*
X17795000Y-10399000D02*
X17765000Y-10429000D01*
X17765000Y-11161000D02*
X17795000Y-11191000D01*
X17795000Y-11161000D02*
X17765000Y-11191000D01*
X18019000Y-7859000D02*
X18049000Y-7889000D01*
X18049000Y-7859000D02*
X18019000Y-7889000D01*
X18019000Y-8113000D02*
X18049000Y-8143000D01*
X18049000Y-8113000D02*
X18019000Y-8143000D01*
X18019000Y-8367000D02*
X18049000Y-8397000D01*
X18049000Y-8367000D02*
X18019000Y-8397000D01*
X18019000Y-10145000D02*
X18049000Y-10175000D01*
X18049000Y-10145000D02*
X18019000Y-10175000D01*
X18019000Y-10399000D02*
X18049000Y-10429000D01*
X18049000Y-10399000D02*
X18019000Y-10429000D01*
X18019000Y-11161000D02*
X18049000Y-11191000D01*
X18049000Y-11161000D02*
X18019000Y-11191000D01*
X18019000Y-11415000D02*
X18049000Y-11445000D01*
X18049000Y-11415000D02*
X18019000Y-11445000D01*
X18019000Y-11669000D02*
X18049000Y-11699000D01*
X18049000Y-11669000D02*
X18019000Y-11699000D01*
X18273000Y-7859000D02*
X18303000Y-7889000D01*
X18303000Y-7859000D02*
X18273000Y-7889000D01*
X18273000Y-8113000D02*
X18303000Y-8143000D01*
X18303000Y-8113000D02*
X18273000Y-8143000D01*
X18273000Y-8113000D02*
X18303000Y-8143000D01*
X18303000Y-8113000D02*
X18273000Y-8143000D01*
X18273000Y-8367000D02*
X18303000Y-8397000D01*
X18303000Y-8367000D02*
X18273000Y-8397000D01*
X18273000Y-8367000D02*
X18303000Y-8397000D01*
X18303000Y-8367000D02*
X18273000Y-8397000D01*
X18273000Y-8621000D02*
X18303000Y-8651000D01*
X18303000Y-8621000D02*
X18273000Y-8651000D01*
X18273000Y-8875000D02*
X18303000Y-8905000D01*
X18303000Y-8875000D02*
X18273000Y-8905000D01*
X18273000Y-9129000D02*
X18303000Y-9159000D01*
X18303000Y-9129000D02*
X18273000Y-9159000D01*
X18273000Y-9383000D02*
X18303000Y-9413000D01*
X18303000Y-9383000D02*
X18273000Y-9413000D01*
X18273000Y-9637000D02*
X18303000Y-9667000D01*
X18303000Y-9637000D02*
X18273000Y-9667000D01*
X18273000Y-9891000D02*
X18303000Y-9921000D01*
X18303000Y-9891000D02*
X18273000Y-9921000D01*
X18273000Y-10145000D02*
X18303000Y-10175000D01*
X18303000Y-10145000D02*
X18273000Y-10175000D01*
X18273000Y-10399000D02*
X18303000Y-10429000D01*
X18303000Y-10399000D02*
X18273000Y-10429000D01*
X18273000Y-10653000D02*
X18303000Y-10683000D01*
X18303000Y-10653000D02*
X18273000Y-10683000D01*
X18273000Y-11161000D02*
X18303000Y-11191000D01*
X18303000Y-11161000D02*
X18273000Y-11191000D01*
X18273000Y-11669000D02*
X18303000Y-11699000D01*
X18303000Y-11669000D02*
X18273000Y-11699000D01*
X18527000Y-7859000D02*
X18557000Y-7889000D01*
X18557000Y-7859000D02*
X18527000Y-7889000D01*
X18527000Y-8113000D02*
X18557000Y-8143000D01*
X18557000Y-8113000D02*
X18527000Y-8143000D01*
X18527000Y-8367000D02*
X18557000Y-8397000D01*
X18557000Y-8367000D02*
X18527000Y-8397000D01*
X18527000Y-8621000D02*
X18557000Y-8651000D01*
X18557000Y-8621000D02*
X18527000Y-8651000D01*
X18527000Y-8875000D02*
X18557000Y-8905000D01*
X18557000Y-8875000D02*
X18527000Y-8905000D01*
X18527000Y-9129000D02*
X18557000Y-9159000D01*
X18557000Y-9129000D02*
X18527000Y-9159000D01*
X18527000Y-9383000D02*
X18557000Y-9413000D01*
X18557000Y-9383000D02*
X18527000Y-9413000D01*
X18527000Y-9637000D02*
X18557000Y-9667000D01*
X18557000Y-9637000D02*
X18527000Y-9667000D01*
X18527000Y-9891000D02*
X18557000Y-9921000D01*
X18557000Y-9891000D02*
X18527000Y-9921000D01*
X18527000Y-10145000D02*
X18557000Y-10175000D01*
X18557000Y-10145000D02*
X18527000Y-10175000D01*
X18527000Y-10399000D02*
X18557000Y-10429000D01*
X18557000Y-10399000D02*
X18527000Y-10429000D01*
X18527000Y-10653000D02*
X18557000Y-10683000D01*
X18557000Y-10653000D02*
X18527000Y-10683000D01*
X18527000Y-10907000D02*
X18557000Y-10937000D01*
X18557000Y-10907000D02*
X18527000Y-10937000D01*
X18527000Y-11161000D02*
X18557000Y-11191000D01*
X18557000Y-11161000D02*
X18527000Y-11191000D01*
X18527000Y-11415000D02*
X18557000Y-11445000D01*
X18557000Y-11415000D02*
X18527000Y-11445000D01*
X18527000Y-11669000D02*
X18557000Y-11699000D01*
X18557000Y-11669000D02*
X18527000Y-11699000D01*
X18781000Y-7859000D02*
X18811000Y-7889000D01*
X18811000Y-7859000D02*
X18781000Y-7889000D01*
X18781000Y-8113000D02*
X18811000Y-8143000D01*
X18811000Y-8113000D02*
X18781000Y-8143000D01*
X18781000Y-8367000D02*
X18811000Y-8397000D01*
X18811000Y-8367000D02*
X18781000Y-8397000D01*
X18781000Y-8621000D02*
X18811000Y-8651000D01*
X18811000Y-8621000D02*
X18781000Y-8651000D01*
X18781000Y-8875000D02*
X18811000Y-8905000D01*
X18811000Y-8875000D02*
X18781000Y-8905000D01*
X18781000Y-9129000D02*
X18811000Y-9159000D01*
X18811000Y-9129000D02*
X18781000Y-9159000D01*
X18781000Y-9383000D02*
X18811000Y-9413000D01*
X18811000Y-9383000D02*
X18781000Y-9413000D01*
X18781000Y-9637000D02*
X18811000Y-9667000D01*
X18811000Y-9637000D02*
X18781000Y-9667000D01*
X18781000Y-9891000D02*
X18811000Y-9921000D01*
X18811000Y-9891000D02*
X18781000Y-9921000D01*
X18781000Y-10145000D02*
X18811000Y-10175000D01*
X18811000Y-10145000D02*
X18781000Y-10175000D01*
X18781000Y-10399000D02*
X18811000Y-10429000D01*
X18811000Y-10399000D02*
X18781000Y-10429000D01*
X18781000Y-10653000D02*
X18811000Y-10683000D01*
X18811000Y-10653000D02*
X18781000Y-10683000D01*
X18781000Y-10907000D02*
X18811000Y-10937000D01*
X18811000Y-10907000D02*
X18781000Y-10937000D01*
X18781000Y-11161000D02*
X18811000Y-11191000D01*
X18811000Y-11161000D02*
X18781000Y-11191000D01*
X18781000Y-11669000D02*
X18811000Y-11699000D01*
X18811000Y-11669000D02*
X18781000Y-11699000D01*
X19035000Y-7859000D02*
X19065000Y-7889000D01*
X19065000Y-7859000D02*
X19035000Y-7889000D01*
X19035000Y-8113000D02*
X19065000Y-8143000D01*
X19065000Y-8113000D02*
X19035000Y-8143000D01*
X19035000Y-8367000D02*
X19065000Y-8397000D01*
X19065000Y-8367000D02*
X19035000Y-8397000D01*
X19035000Y-8621000D02*
X19065000Y-8651000D01*
X19065000Y-8621000D02*
X19035000Y-8651000D01*
X19035000Y-8875000D02*
X19065000Y-8905000D01*
X19065000Y-8875000D02*
X19035000Y-8905000D01*
X19035000Y-9129000D02*
X19065000Y-9159000D01*
X19065000Y-9129000D02*
X19035000Y-9159000D01*
X19035000Y-9383000D02*
X19065000Y-9413000D01*
X19065000Y-9383000D02*
X19035000Y-9413000D01*
X19035000Y-9637000D02*
X19065000Y-9667000D01*
X19065000Y-9637000D02*
X19035000Y-9667000D01*
X19035000Y-9891000D02*
X19065000Y-9921000D01*
X19065000Y-9891000D02*
X19035000Y-9921000D01*
X19035000Y-10145000D02*
X19065000Y-10175000D01*
X19065000Y-10145000D02*
X19035000Y-10175000D01*
X19035000Y-10399000D02*
X19065000Y-10429000D01*
X19065000Y-10399000D02*
X19035000Y-10429000D01*
X19035000Y-10907000D02*
X19065000Y-10937000D01*
X19065000Y-10907000D02*
X19035000Y-10937000D01*
X19035000Y-11161000D02*
X19065000Y-11191000D01*
X19065000Y-11161000D02*
X19035000Y-11191000D01*
X19035000Y-11415000D02*
X19065000Y-11445000D01*
X19065000Y-11415000D02*
X19035000Y-11445000D01*
X19289000Y-7859000D02*
X19319000Y-7889000D01*
X19319000Y-7859000D02*
X19289000Y-7889000D01*
X19289000Y-8113000D02*
X19319000Y-8143000D01*
X19319000Y-8113000D02*
X19289000Y-8143000D01*
X19289000Y-8367000D02*
X19319000Y-8397000D01*
X19319000Y-8367000D02*
X19289000Y-8397000D01*
X19289000Y-8621000D02*
X19319000Y-8651000D01*
X19319000Y-8621000D02*
X19289000Y-8651000D01*
X19289000Y-8875000D02*
X19319000Y-8905000D01*
X19319000Y-8875000D02*
X19289000Y-8905000D01*
X19289000Y-9129000D02*
X19319000Y-9159000D01*
X19319000Y-9129000D02*
X19289000Y-9159000D01*
X19289000Y-9383000D02*
X19319000Y-9413000D01*
X19319000Y-9383000D02*
X19289000Y-9413000D01*
X19289000Y-9637000D02*
X19319000Y-9667000D01*
X19319000Y-9637000D02*
X19289000Y-9667000D01*
X19289000Y-9891000D02*
X19319000Y-9921000D01*
X19319000Y-9891000D02*
X19289000Y-9921000D01*
X19289000Y-10145000D02*
X19319000Y-10175000D01*
X19319000Y-10145000D02*
X19289000Y-10175000D01*
X19289000Y-10399000D02*
X19319000Y-10429000D01*
X19319000Y-10399000D02*
X19289000Y-10429000D01*
X19289000Y-10907000D02*
X19319000Y-10937000D01*
X19319000Y-10907000D02*
X19289000Y-10937000D01*
X19289000Y-11161000D02*
X19319000Y-11191000D01*
X19319000Y-11161000D02*
X19289000Y-11191000D01*
X19289000Y-11415000D02*
X19319000Y-11445000D01*
X19319000Y-11415000D02*
X19289000Y-11445000D01*
X19543000Y-7859000D02*
X19573000Y-7889000D01*
X19573000Y-7859000D02*
X19543000Y-7889000D01*
X19543000Y-8113000D02*
X19573000Y-8143000D01*
X19573000Y-8113000D02*
X19543000Y-8143000D01*
X19543000Y-8367000D02*
X19573000Y-8397000D01*
X19573000Y-8367000D02*
X19543000Y-8397000D01*
X19543000Y-8621000D02*
X19573000Y-8651000D01*
X19573000Y-8621000D02*
X19543000Y-8651000D01*
X19543000Y-8875000D02*
X19573000Y-8905000D01*
X19573000Y-8875000D02*
X19543000Y-8905000D01*
X19543000Y-9129000D02*
X19573000Y-9159000D01*
X19573000Y-9129000D02*
X19543000Y-9159000D01*
X19543000Y-9383000D02*
X19573000Y-9413000D01*
X19573000Y-9383000D02*
X19543000Y-9413000D01*
X19543000Y-9637000D02*
X19573000Y-9667000D01*
X19573000Y-9637000D02*
X19543000Y-9667000D01*
X19543000Y-9891000D02*
X19573000Y-9921000D01*
X19573000Y-9891000D02*
X19543000Y-9921000D01*
X19543000Y-10145000D02*
X19573000Y-10175000D01*
X19573000Y-10145000D02*
X19543000Y-10175000D01*
X19543000Y-10399000D02*
X19573000Y-10429000D01*
X19573000Y-10399000D02*
X19543000Y-10429000D01*
X19543000Y-10653000D02*
X19573000Y-10683000D01*
X19573000Y-10653000D02*
X19543000Y-10683000D01*
X19543000Y-11161000D02*
X19573000Y-11191000D01*
X19573000Y-11161000D02*
X19543000Y-11191000D01*
X19543000Y-11415000D02*
X19573000Y-11445000D01*
X19573000Y-11415000D02*
X19543000Y-11445000D01*
X19543000Y-11669000D02*
X19573000Y-11699000D01*
X19573000Y-11669000D02*
X19543000Y-11699000D01*
X19797000Y-7859000D02*
X19827000Y-7889000D01*
X19827000Y-7859000D02*
X19797000Y-7889000D01*
X19797000Y-8113000D02*
X19827000Y-8143000D01*
X19827000Y-8113000D02*
X19797000Y-8143000D01*
X19797000Y-8367000D02*
X19827000Y-8397000D01*
X19827000Y-8367000D02*
X19797000Y-8397000D01*
X19797000Y-8621000D02*
X19827000Y-8651000D01*
X19827000Y-8621000D02*
X19797000Y-8651000D01*
X19797000Y-8875000D02*
X19827000Y-8905000D01*
X19827000Y-8875000D02*
X19797000Y-8905000D01*
X19797000Y-9129000D02*
X19827000Y-9159000D01*
X19827000Y-9129000D02*
X19797000Y-9159000D01*
X19797000Y-9383000D02*
X19827000Y-9413000D01*
X19827000Y-9383000D02*
X19797000Y-9413000D01*
X19797000Y-9637000D02*
X19827000Y-9667000D01*
X19827000Y-9637000D02*
X19797000Y-9667000D01*
X19797000Y-9891000D02*
X19827000Y-9921000D01*
X19827000Y-9891000D02*
X19797000Y-9921000D01*
X19797000Y-10145000D02*
X19827000Y-10175000D01*
X19827000Y-10145000D02*
X19797000Y-10175000D01*
X19797000Y-10399000D02*
X19827000Y-10429000D01*
X19827000Y-10399000D02*
X19797000Y-10429000D01*
X19797000Y-10653000D02*
X19827000Y-10683000D01*
X19827000Y-10653000D02*
X19797000Y-10683000D01*
X19797000Y-10907000D02*
X19827000Y-10937000D01*
X19827000Y-10907000D02*
X19797000Y-10937000D01*
X19797000Y-11161000D02*
X19827000Y-11191000D01*
X19827000Y-11161000D02*
X19797000Y-11191000D01*
X19797000Y-11669000D02*
X19827000Y-11699000D01*
X19827000Y-11669000D02*
X19797000Y-11699000D01*
D13*
X14320000Y-11500000D02*
G75*
G03*
X14320000Y-11500000I-50000J0D01*
G01*
X14640000Y-10690000D02*
G75*
G03*
X14640000Y-10690000I-50000J0D01*
G01*
X14960000Y-10690000D02*
G75*
G03*
X14960000Y-10690000I-50000J0D01*
G01*
X15160000Y-11000000D02*
G75*
G03*
X15160000Y-11000000I-50000J0D01*
G01*
X15250000Y-11500000D02*
G75*
G03*
X15250000Y-11500000I-50000J0D01*
G01*
X15820000Y-11500000D02*
G75*
G03*
X15820000Y-11500000I-50000J0D01*
G01*
X16140000Y-10690000D02*
G75*
G03*
X16140000Y-10690000I-50000J0D01*
G01*
X16460000Y-10690000D02*
G75*
G03*
X16460000Y-10690000I-50000J0D01*
G01*
X16660000Y-11000000D02*
G75*
G03*
X16660000Y-11000000I-50000J0D01*
G01*
X16750000Y-11500000D02*
G75*
G03*
X16750000Y-11500000I-50000J0D01*
G01*
X17320000Y-11500000D02*
G75*
G03*
X17320000Y-11500000I-50000J0D01*
G01*
X17640000Y-10690000D02*
G75*
G03*
X17640000Y-10690000I-50000J0D01*
G01*
X17960000Y-10690000D02*
G75*
G03*
X17960000Y-10690000I-50000J0D01*
G01*
X18160000Y-11000000D02*
G75*
G03*
X18160000Y-11000000I-50000J0D01*
G01*
X18250000Y-11500000D02*
G75*
G03*
X18250000Y-11500000I-50000J0D01*
G01*
X18820000Y-11500000D02*
G75*
G03*
X18820000Y-11500000I-50000J0D01*
G01*
X19140000Y-10690000D02*
G75*
G03*
X19140000Y-10690000I-50000J0D01*
G01*
X19460000Y-10690000D02*
G75*
G03*
X19460000Y-10690000I-50000J0D01*
G01*
X19660000Y-11000000D02*
G75*
G03*
X19660000Y-11000000I-50000J0D01*
G01*
X19750000Y-11500000D02*
G75*
G03*
X19750000Y-11500000I-50000J0D01*
G01*
D14*
X16250000Y-8700000D02*
X16250000Y-8940000D01*
X16130000Y-8820000D02*
X16370000Y-8820000D01*
X16250000Y-9180000D02*
X16250000Y-9420000D01*
X16130000Y-9300000D02*
X16370000Y-9300000D01*
X16250000Y-9660000D02*
X16250000Y-9900000D01*
X16130000Y-9780000D02*
X16370000Y-9780000D01*
X16750000Y-8700000D02*
X16750000Y-8940000D01*
X16630000Y-8820000D02*
X16870000Y-8820000D01*
X16750000Y-9180000D02*
X16750000Y-9420000D01*
X16630000Y-9300000D02*
X16870000Y-9300000D01*
X16750000Y-9660000D02*
X16750000Y-9900000D01*
X16630000Y-9780000D02*
X16870000Y-9780000D01*
X17250000Y-8700000D02*
X17250000Y-8940000D01*
X17130000Y-8820000D02*
X17370000Y-8820000D01*
X17250000Y-9180000D02*
X17250000Y-9420000D01*
X17130000Y-9300000D02*
X17370000Y-9300000D01*
X17250000Y-9660000D02*
X17250000Y-9900000D01*
X17130000Y-9780000D02*
X17370000Y-9780000D01*
X17750000Y-8700000D02*
X17750000Y-8940000D01*
X17630000Y-8820000D02*
X17870000Y-8820000D01*
X17750000Y-9180000D02*
X17750000Y-9420000D01*
X17630000Y-9300000D02*
X17870000Y-9300000D01*
X17750000Y-9660000D02*
X17750000Y-9900000D01*
X17630000Y-9780000D02*
X17870000Y-9780000D01*
D11*
X14258277Y-12103984D02*
X14258277Y-11903984D01*
X14258277Y-11903984D02*
X14305896Y-11903984D01*
X14305896Y-11903984D02*
X14334467Y-11913508D01*
X14334467Y-11913508D02*
X14353515Y-11932555D01*
X14353515Y-11932555D02*
X14363039Y-11951603D01*
X14363039Y-11951603D02*
X14372562Y-11989698D01*
X14372562Y-11989698D02*
X14372562Y-12018269D01*
X14372562Y-12018269D02*
X14363039Y-12056365D01*
X14363039Y-12056365D02*
X14353515Y-12075412D01*
X14353515Y-12075412D02*
X14334467Y-12094460D01*
X14334467Y-12094460D02*
X14305896Y-12103984D01*
X14305896Y-12103984D02*
X14258277Y-12103984D01*
X14458277Y-12103984D02*
X14458277Y-11970650D01*
X14458277Y-12008746D02*
X14467801Y-11989698D01*
X14467801Y-11989698D02*
X14477324Y-11980174D01*
X14477324Y-11980174D02*
X14496372Y-11970650D01*
X14496372Y-11970650D02*
X14515420Y-11970650D01*
X14582086Y-12103984D02*
X14582086Y-11970650D01*
X14582086Y-11903984D02*
X14572562Y-11913508D01*
X14572562Y-11913508D02*
X14582086Y-11923031D01*
X14582086Y-11923031D02*
X14591610Y-11913508D01*
X14591610Y-11913508D02*
X14582086Y-11903984D01*
X14582086Y-11903984D02*
X14582086Y-11923031D01*
X14705896Y-12103984D02*
X14686848Y-12094460D01*
X14686848Y-12094460D02*
X14677324Y-12075412D01*
X14677324Y-12075412D02*
X14677324Y-11903984D01*
X14810658Y-12103984D02*
X14791610Y-12094460D01*
X14791610Y-12094460D02*
X14782086Y-12075412D01*
X14782086Y-12075412D02*
X14782086Y-11903984D01*
X15039229Y-12103984D02*
X15039229Y-11903984D01*
X15039229Y-11903984D02*
X15105896Y-12046841D01*
X15105896Y-12046841D02*
X15172562Y-11903984D01*
X15172562Y-11903984D02*
X15172562Y-12103984D01*
X15353515Y-12103984D02*
X15353515Y-11999222D01*
X15353515Y-11999222D02*
X15343991Y-11980174D01*
X15343991Y-11980174D02*
X15324943Y-11970650D01*
X15324943Y-11970650D02*
X15286848Y-11970650D01*
X15286848Y-11970650D02*
X15267801Y-11980174D01*
X15353515Y-12094460D02*
X15334467Y-12103984D01*
X15334467Y-12103984D02*
X15286848Y-12103984D01*
X15286848Y-12103984D02*
X15267801Y-12094460D01*
X15267801Y-12094460D02*
X15258277Y-12075412D01*
X15258277Y-12075412D02*
X15258277Y-12056365D01*
X15258277Y-12056365D02*
X15267801Y-12037317D01*
X15267801Y-12037317D02*
X15286848Y-12027793D01*
X15286848Y-12027793D02*
X15334467Y-12027793D01*
X15334467Y-12027793D02*
X15353515Y-12018269D01*
X15448753Y-11970650D02*
X15448753Y-12170650D01*
X15448753Y-11980174D02*
X15467801Y-11970650D01*
X15467801Y-11970650D02*
X15505896Y-11970650D01*
X15505896Y-11970650D02*
X15524943Y-11980174D01*
X15524943Y-11980174D02*
X15534467Y-11989698D01*
X15534467Y-11989698D02*
X15543991Y-12008746D01*
X15543991Y-12008746D02*
X15543991Y-12065888D01*
X15543991Y-12065888D02*
X15534467Y-12084936D01*
X15534467Y-12084936D02*
X15524943Y-12094460D01*
X15524943Y-12094460D02*
X15505896Y-12103984D01*
X15505896Y-12103984D02*
X15467801Y-12103984D01*
X15467801Y-12103984D02*
X15448753Y-12094460D01*
X15629705Y-12084936D02*
X15639229Y-12094460D01*
X15639229Y-12094460D02*
X15629705Y-12103984D01*
X15629705Y-12103984D02*
X15620182Y-12094460D01*
X15620182Y-12094460D02*
X15629705Y-12084936D01*
X15629705Y-12084936D02*
X15629705Y-12103984D01*
X15629705Y-11980174D02*
X15639229Y-11989698D01*
X15639229Y-11989698D02*
X15629705Y-11999222D01*
X15629705Y-11999222D02*
X15620182Y-11989698D01*
X15620182Y-11989698D02*
X15629705Y-11980174D01*
X15629705Y-11980174D02*
X15629705Y-11999222D01*
D12*
X13967500Y-12417500D02*
X13997500Y-12447500D01*
X13997500Y-12417500D02*
X13967500Y-12447500D01*
D11*
X14296372Y-12323984D02*
X14315420Y-12323984D01*
X14315420Y-12323984D02*
X14334467Y-12333508D01*
X14334467Y-12333508D02*
X14343991Y-12343031D01*
X14343991Y-12343031D02*
X14353515Y-12362079D01*
X14353515Y-12362079D02*
X14363039Y-12400174D01*
X14363039Y-12400174D02*
X14363039Y-12447793D01*
X14363039Y-12447793D02*
X14353515Y-12485888D01*
X14353515Y-12485888D02*
X14343991Y-12504936D01*
X14343991Y-12504936D02*
X14334467Y-12514460D01*
X14334467Y-12514460D02*
X14315420Y-12523984D01*
X14315420Y-12523984D02*
X14296372Y-12523984D01*
X14296372Y-12523984D02*
X14277324Y-12514460D01*
X14277324Y-12514460D02*
X14267801Y-12504936D01*
X14267801Y-12504936D02*
X14258277Y-12485888D01*
X14258277Y-12485888D02*
X14248753Y-12447793D01*
X14248753Y-12447793D02*
X14248753Y-12400174D01*
X14248753Y-12400174D02*
X14258277Y-12362079D01*
X14258277Y-12362079D02*
X14267801Y-12343031D01*
X14267801Y-12343031D02*
X14277324Y-12333508D01*
X14277324Y-12333508D02*
X14296372Y-12323984D01*
X14448753Y-12504936D02*
X14458277Y-12514460D01*
X14458277Y-12514460D02*
X14448753Y-12523984D01*
X14448753Y-12523984D02*
X14439229Y-12514460D01*
X14439229Y-12514460D02*
X14448753Y-12504936D01*
X14448753Y-12504936D02*
X14448753Y-12523984D01*
X14524943Y-12323984D02*
X14648753Y-12323984D01*
X14648753Y-12323984D02*
X14582086Y-12400174D01*
X14582086Y-12400174D02*
X14610658Y-12400174D01*
X14610658Y-12400174D02*
X14629705Y-12409698D01*
X14629705Y-12409698D02*
X14639229Y-12419222D01*
X14639229Y-12419222D02*
X14648753Y-12438269D01*
X14648753Y-12438269D02*
X14648753Y-12485888D01*
X14648753Y-12485888D02*
X14639229Y-12504936D01*
X14639229Y-12504936D02*
X14629705Y-12514460D01*
X14629705Y-12514460D02*
X14610658Y-12523984D01*
X14610658Y-12523984D02*
X14553515Y-12523984D01*
X14553515Y-12523984D02*
X14534467Y-12514460D01*
X14534467Y-12514460D02*
X14524943Y-12504936D01*
X14772562Y-12323984D02*
X14791610Y-12323984D01*
X14791610Y-12323984D02*
X14810658Y-12333508D01*
X14810658Y-12333508D02*
X14820182Y-12343031D01*
X14820182Y-12343031D02*
X14829705Y-12362079D01*
X14829705Y-12362079D02*
X14839229Y-12400174D01*
X14839229Y-12400174D02*
X14839229Y-12447793D01*
X14839229Y-12447793D02*
X14829705Y-12485888D01*
X14829705Y-12485888D02*
X14820182Y-12504936D01*
X14820182Y-12504936D02*
X14810658Y-12514460D01*
X14810658Y-12514460D02*
X14791610Y-12523984D01*
X14791610Y-12523984D02*
X14772562Y-12523984D01*
X14772562Y-12523984D02*
X14753515Y-12514460D01*
X14753515Y-12514460D02*
X14743991Y-12504936D01*
X14743991Y-12504936D02*
X14734467Y-12485888D01*
X14734467Y-12485888D02*
X14724943Y-12447793D01*
X14724943Y-12447793D02*
X14724943Y-12400174D01*
X14724943Y-12400174D02*
X14734467Y-12362079D01*
X14734467Y-12362079D02*
X14743991Y-12343031D01*
X14743991Y-12343031D02*
X14753515Y-12333508D01*
X14753515Y-12333508D02*
X14772562Y-12323984D01*
X14963039Y-12323984D02*
X14982086Y-12323984D01*
X14982086Y-12323984D02*
X15001134Y-12333508D01*
X15001134Y-12333508D02*
X15010658Y-12343031D01*
X15010658Y-12343031D02*
X15020182Y-12362079D01*
X15020182Y-12362079D02*
X15029705Y-12400174D01*
X15029705Y-12400174D02*
X15029705Y-12447793D01*
X15029705Y-12447793D02*
X15020182Y-12485888D01*
X15020182Y-12485888D02*
X15010658Y-12504936D01*
X15010658Y-12504936D02*
X15001134Y-12514460D01*
X15001134Y-12514460D02*
X14982086Y-12523984D01*
X14982086Y-12523984D02*
X14963039Y-12523984D01*
X14963039Y-12523984D02*
X14943991Y-12514460D01*
X14943991Y-12514460D02*
X14934467Y-12504936D01*
X14934467Y-12504936D02*
X14924943Y-12485888D01*
X14924943Y-12485888D02*
X14915420Y-12447793D01*
X14915420Y-12447793D02*
X14915420Y-12400174D01*
X14915420Y-12400174D02*
X14924943Y-12362079D01*
X14924943Y-12362079D02*
X14934467Y-12343031D01*
X14934467Y-12343031D02*
X14943991Y-12333508D01*
X14943991Y-12333508D02*
X14963039Y-12323984D01*
X15115420Y-12523984D02*
X15115420Y-12390650D01*
X15115420Y-12409698D02*
X15124943Y-12400174D01*
X15124943Y-12400174D02*
X15143991Y-12390650D01*
X15143991Y-12390650D02*
X15172563Y-12390650D01*
X15172563Y-12390650D02*
X15191610Y-12400174D01*
X15191610Y-12400174D02*
X15201134Y-12419222D01*
X15201134Y-12419222D02*
X15201134Y-12523984D01*
X15201134Y-12419222D02*
X15210658Y-12400174D01*
X15210658Y-12400174D02*
X15229705Y-12390650D01*
X15229705Y-12390650D02*
X15258277Y-12390650D01*
X15258277Y-12390650D02*
X15277324Y-12400174D01*
X15277324Y-12400174D02*
X15286848Y-12419222D01*
X15286848Y-12419222D02*
X15286848Y-12523984D01*
X15382086Y-12523984D02*
X15382086Y-12390650D01*
X15382086Y-12409698D02*
X15391610Y-12400174D01*
X15391610Y-12400174D02*
X15410658Y-12390650D01*
X15410658Y-12390650D02*
X15439229Y-12390650D01*
X15439229Y-12390650D02*
X15458277Y-12400174D01*
X15458277Y-12400174D02*
X15467801Y-12419222D01*
X15467801Y-12419222D02*
X15467801Y-12523984D01*
X15467801Y-12419222D02*
X15477324Y-12400174D01*
X15477324Y-12400174D02*
X15496372Y-12390650D01*
X15496372Y-12390650D02*
X15524943Y-12390650D01*
X15524943Y-12390650D02*
X15543991Y-12400174D01*
X15543991Y-12400174D02*
X15553515Y-12419222D01*
X15553515Y-12419222D02*
X15553515Y-12523984D01*
X15943991Y-12314460D02*
X15772563Y-12571603D01*
X16201134Y-12323984D02*
X16220182Y-12323984D01*
X16220182Y-12323984D02*
X16239229Y-12333508D01*
X16239229Y-12333508D02*
X16248753Y-12343031D01*
X16248753Y-12343031D02*
X16258277Y-12362079D01*
X16258277Y-12362079D02*
X16267801Y-12400174D01*
X16267801Y-12400174D02*
X16267801Y-12447793D01*
X16267801Y-12447793D02*
X16258277Y-12485888D01*
X16258277Y-12485888D02*
X16248753Y-12504936D01*
X16248753Y-12504936D02*
X16239229Y-12514460D01*
X16239229Y-12514460D02*
X16220182Y-12523984D01*
X16220182Y-12523984D02*
X16201134Y-12523984D01*
X16201134Y-12523984D02*
X16182086Y-12514460D01*
X16182086Y-12514460D02*
X16172563Y-12504936D01*
X16172563Y-12504936D02*
X16163039Y-12485888D01*
X16163039Y-12485888D02*
X16153515Y-12447793D01*
X16153515Y-12447793D02*
X16153515Y-12400174D01*
X16153515Y-12400174D02*
X16163039Y-12362079D01*
X16163039Y-12362079D02*
X16172563Y-12343031D01*
X16172563Y-12343031D02*
X16182086Y-12333508D01*
X16182086Y-12333508D02*
X16201134Y-12323984D01*
X16353515Y-12504936D02*
X16363039Y-12514460D01*
X16363039Y-12514460D02*
X16353515Y-12523984D01*
X16353515Y-12523984D02*
X16343991Y-12514460D01*
X16343991Y-12514460D02*
X16353515Y-12504936D01*
X16353515Y-12504936D02*
X16353515Y-12523984D01*
X16486848Y-12323984D02*
X16505896Y-12323984D01*
X16505896Y-12323984D02*
X16524944Y-12333508D01*
X16524944Y-12333508D02*
X16534467Y-12343031D01*
X16534467Y-12343031D02*
X16543991Y-12362079D01*
X16543991Y-12362079D02*
X16553515Y-12400174D01*
X16553515Y-12400174D02*
X16553515Y-12447793D01*
X16553515Y-12447793D02*
X16543991Y-12485888D01*
X16543991Y-12485888D02*
X16534467Y-12504936D01*
X16534467Y-12504936D02*
X16524944Y-12514460D01*
X16524944Y-12514460D02*
X16505896Y-12523984D01*
X16505896Y-12523984D02*
X16486848Y-12523984D01*
X16486848Y-12523984D02*
X16467801Y-12514460D01*
X16467801Y-12514460D02*
X16458277Y-12504936D01*
X16458277Y-12504936D02*
X16448753Y-12485888D01*
X16448753Y-12485888D02*
X16439229Y-12447793D01*
X16439229Y-12447793D02*
X16439229Y-12400174D01*
X16439229Y-12400174D02*
X16448753Y-12362079D01*
X16448753Y-12362079D02*
X16458277Y-12343031D01*
X16458277Y-12343031D02*
X16467801Y-12333508D01*
X16467801Y-12333508D02*
X16486848Y-12323984D01*
X16743991Y-12523984D02*
X16629706Y-12523984D01*
X16686848Y-12523984D02*
X16686848Y-12323984D01*
X16686848Y-12323984D02*
X16667801Y-12352555D01*
X16667801Y-12352555D02*
X16648753Y-12371603D01*
X16648753Y-12371603D02*
X16629706Y-12381127D01*
X16934468Y-12523984D02*
X16820182Y-12523984D01*
X16877325Y-12523984D02*
X16877325Y-12323984D01*
X16877325Y-12323984D02*
X16858277Y-12352555D01*
X16858277Y-12352555D02*
X16839229Y-12371603D01*
X16839229Y-12371603D02*
X16820182Y-12381127D01*
X17048753Y-12409698D02*
X17029706Y-12400174D01*
X17029706Y-12400174D02*
X17020182Y-12390650D01*
X17020182Y-12390650D02*
X17010658Y-12371603D01*
X17010658Y-12371603D02*
X17010658Y-12362079D01*
X17010658Y-12362079D02*
X17020182Y-12343031D01*
X17020182Y-12343031D02*
X17029706Y-12333508D01*
X17029706Y-12333508D02*
X17048753Y-12323984D01*
X17048753Y-12323984D02*
X17086849Y-12323984D01*
X17086849Y-12323984D02*
X17105896Y-12333508D01*
X17105896Y-12333508D02*
X17115420Y-12343031D01*
X17115420Y-12343031D02*
X17124944Y-12362079D01*
X17124944Y-12362079D02*
X17124944Y-12371603D01*
X17124944Y-12371603D02*
X17115420Y-12390650D01*
X17115420Y-12390650D02*
X17105896Y-12400174D01*
X17105896Y-12400174D02*
X17086849Y-12409698D01*
X17086849Y-12409698D02*
X17048753Y-12409698D01*
X17048753Y-12409698D02*
X17029706Y-12419222D01*
X17029706Y-12419222D02*
X17020182Y-12428746D01*
X17020182Y-12428746D02*
X17010658Y-12447793D01*
X17010658Y-12447793D02*
X17010658Y-12485888D01*
X17010658Y-12485888D02*
X17020182Y-12504936D01*
X17020182Y-12504936D02*
X17029706Y-12514460D01*
X17029706Y-12514460D02*
X17048753Y-12523984D01*
X17048753Y-12523984D02*
X17086849Y-12523984D01*
X17086849Y-12523984D02*
X17105896Y-12514460D01*
X17105896Y-12514460D02*
X17115420Y-12504936D01*
X17115420Y-12504936D02*
X17124944Y-12485888D01*
X17124944Y-12485888D02*
X17124944Y-12447793D01*
X17124944Y-12447793D02*
X17115420Y-12428746D01*
X17115420Y-12428746D02*
X17105896Y-12419222D01*
X17105896Y-12419222D02*
X17086849Y-12409698D01*
X17201134Y-12323984D02*
X17201134Y-12362079D01*
X17277325Y-12323984D02*
X17277325Y-12362079D01*
X17572563Y-12600174D02*
X17563039Y-12590650D01*
X17563039Y-12590650D02*
X17543991Y-12562079D01*
X17543991Y-12562079D02*
X17534468Y-12543031D01*
X17534468Y-12543031D02*
X17524944Y-12514460D01*
X17524944Y-12514460D02*
X17515420Y-12466841D01*
X17515420Y-12466841D02*
X17515420Y-12428746D01*
X17515420Y-12428746D02*
X17524944Y-12381127D01*
X17524944Y-12381127D02*
X17534468Y-12352555D01*
X17534468Y-12352555D02*
X17543991Y-12333508D01*
X17543991Y-12333508D02*
X17563039Y-12304936D01*
X17563039Y-12304936D02*
X17572563Y-12295412D01*
X17639230Y-12343031D02*
X17648753Y-12333508D01*
X17648753Y-12333508D02*
X17667801Y-12323984D01*
X17667801Y-12323984D02*
X17715420Y-12323984D01*
X17715420Y-12323984D02*
X17734468Y-12333508D01*
X17734468Y-12333508D02*
X17743991Y-12343031D01*
X17743991Y-12343031D02*
X17753515Y-12362079D01*
X17753515Y-12362079D02*
X17753515Y-12381127D01*
X17753515Y-12381127D02*
X17743991Y-12409698D01*
X17743991Y-12409698D02*
X17629706Y-12523984D01*
X17629706Y-12523984D02*
X17753515Y-12523984D01*
X17867801Y-12409698D02*
X17848753Y-12400174D01*
X17848753Y-12400174D02*
X17839230Y-12390650D01*
X17839230Y-12390650D02*
X17829706Y-12371603D01*
X17829706Y-12371603D02*
X17829706Y-12362079D01*
X17829706Y-12362079D02*
X17839230Y-12343031D01*
X17839230Y-12343031D02*
X17848753Y-12333508D01*
X17848753Y-12333508D02*
X17867801Y-12323984D01*
X17867801Y-12323984D02*
X17905896Y-12323984D01*
X17905896Y-12323984D02*
X17924944Y-12333508D01*
X17924944Y-12333508D02*
X17934468Y-12343031D01*
X17934468Y-12343031D02*
X17943991Y-12362079D01*
X17943991Y-12362079D02*
X17943991Y-12371603D01*
X17943991Y-12371603D02*
X17934468Y-12390650D01*
X17934468Y-12390650D02*
X17924944Y-12400174D01*
X17924944Y-12400174D02*
X17905896Y-12409698D01*
X17905896Y-12409698D02*
X17867801Y-12409698D01*
X17867801Y-12409698D02*
X17848753Y-12419222D01*
X17848753Y-12419222D02*
X17839230Y-12428746D01*
X17839230Y-12428746D02*
X17829706Y-12447793D01*
X17829706Y-12447793D02*
X17829706Y-12485888D01*
X17829706Y-12485888D02*
X17839230Y-12504936D01*
X17839230Y-12504936D02*
X17848753Y-12514460D01*
X17848753Y-12514460D02*
X17867801Y-12523984D01*
X17867801Y-12523984D02*
X17905896Y-12523984D01*
X17905896Y-12523984D02*
X17924944Y-12514460D01*
X17924944Y-12514460D02*
X17934468Y-12504936D01*
X17934468Y-12504936D02*
X17943991Y-12485888D01*
X17943991Y-12485888D02*
X17943991Y-12447793D01*
X17943991Y-12447793D02*
X17934468Y-12428746D01*
X17934468Y-12428746D02*
X17924944Y-12419222D01*
X17924944Y-12419222D02*
X17905896Y-12409698D01*
X18039230Y-12523984D02*
X18077325Y-12523984D01*
X18077325Y-12523984D02*
X18096372Y-12514460D01*
X18096372Y-12514460D02*
X18105896Y-12504936D01*
X18105896Y-12504936D02*
X18124944Y-12476365D01*
X18124944Y-12476365D02*
X18134468Y-12438269D01*
X18134468Y-12438269D02*
X18134468Y-12362079D01*
X18134468Y-12362079D02*
X18124944Y-12343031D01*
X18124944Y-12343031D02*
X18115420Y-12333508D01*
X18115420Y-12333508D02*
X18096372Y-12323984D01*
X18096372Y-12323984D02*
X18058277Y-12323984D01*
X18058277Y-12323984D02*
X18039230Y-12333508D01*
X18039230Y-12333508D02*
X18029706Y-12343031D01*
X18029706Y-12343031D02*
X18020182Y-12362079D01*
X18020182Y-12362079D02*
X18020182Y-12409698D01*
X18020182Y-12409698D02*
X18029706Y-12428746D01*
X18029706Y-12428746D02*
X18039230Y-12438269D01*
X18039230Y-12438269D02*
X18058277Y-12447793D01*
X18058277Y-12447793D02*
X18096372Y-12447793D01*
X18096372Y-12447793D02*
X18115420Y-12438269D01*
X18115420Y-12438269D02*
X18124944Y-12428746D01*
X18124944Y-12428746D02*
X18134468Y-12409698D01*
X18372563Y-12523984D02*
X18372563Y-12323984D01*
X18458277Y-12523984D02*
X18458277Y-12419222D01*
X18458277Y-12419222D02*
X18448753Y-12400174D01*
X18448753Y-12400174D02*
X18429706Y-12390650D01*
X18429706Y-12390650D02*
X18401134Y-12390650D01*
X18401134Y-12390650D02*
X18382087Y-12400174D01*
X18382087Y-12400174D02*
X18372563Y-12409698D01*
X18582087Y-12523984D02*
X18563039Y-12514460D01*
X18563039Y-12514460D02*
X18553515Y-12504936D01*
X18553515Y-12504936D02*
X18543992Y-12485888D01*
X18543992Y-12485888D02*
X18543992Y-12428746D01*
X18543992Y-12428746D02*
X18553515Y-12409698D01*
X18553515Y-12409698D02*
X18563039Y-12400174D01*
X18563039Y-12400174D02*
X18582087Y-12390650D01*
X18582087Y-12390650D02*
X18610658Y-12390650D01*
X18610658Y-12390650D02*
X18629706Y-12400174D01*
X18629706Y-12400174D02*
X18639230Y-12409698D01*
X18639230Y-12409698D02*
X18648753Y-12428746D01*
X18648753Y-12428746D02*
X18648753Y-12485888D01*
X18648753Y-12485888D02*
X18639230Y-12504936D01*
X18639230Y-12504936D02*
X18629706Y-12514460D01*
X18629706Y-12514460D02*
X18610658Y-12523984D01*
X18610658Y-12523984D02*
X18582087Y-12523984D01*
X18763039Y-12523984D02*
X18743992Y-12514460D01*
X18743992Y-12514460D02*
X18734468Y-12495412D01*
X18734468Y-12495412D02*
X18734468Y-12323984D01*
X18915420Y-12514460D02*
X18896373Y-12523984D01*
X18896373Y-12523984D02*
X18858277Y-12523984D01*
X18858277Y-12523984D02*
X18839230Y-12514460D01*
X18839230Y-12514460D02*
X18829706Y-12495412D01*
X18829706Y-12495412D02*
X18829706Y-12419222D01*
X18829706Y-12419222D02*
X18839230Y-12400174D01*
X18839230Y-12400174D02*
X18858277Y-12390650D01*
X18858277Y-12390650D02*
X18896373Y-12390650D01*
X18896373Y-12390650D02*
X18915420Y-12400174D01*
X18915420Y-12400174D02*
X18924944Y-12419222D01*
X18924944Y-12419222D02*
X18924944Y-12438269D01*
X18924944Y-12438269D02*
X18829706Y-12457317D01*
X19001134Y-12514460D02*
X19020182Y-12523984D01*
X19020182Y-12523984D02*
X19058277Y-12523984D01*
X19058277Y-12523984D02*
X19077325Y-12514460D01*
X19077325Y-12514460D02*
X19086849Y-12495412D01*
X19086849Y-12495412D02*
X19086849Y-12485888D01*
X19086849Y-12485888D02*
X19077325Y-12466841D01*
X19077325Y-12466841D02*
X19058277Y-12457317D01*
X19058277Y-12457317D02*
X19029706Y-12457317D01*
X19029706Y-12457317D02*
X19010658Y-12447793D01*
X19010658Y-12447793D02*
X19001134Y-12428746D01*
X19001134Y-12428746D02*
X19001134Y-12419222D01*
X19001134Y-12419222D02*
X19010658Y-12400174D01*
X19010658Y-12400174D02*
X19029706Y-12390650D01*
X19029706Y-12390650D02*
X19058277Y-12390650D01*
X19058277Y-12390650D02*
X19077325Y-12400174D01*
X19153515Y-12600174D02*
X19163039Y-12590650D01*
X19163039Y-12590650D02*
X19182087Y-12562079D01*
X19182087Y-12562079D02*
X19191611Y-12543031D01*
X19191611Y-12543031D02*
X19201134Y-12514460D01*
X19201134Y-12514460D02*
X19210658Y-12466841D01*
X19210658Y-12466841D02*
X19210658Y-12428746D01*
X19210658Y-12428746D02*
X19201134Y-12381127D01*
X19201134Y-12381127D02*
X19191611Y-12352555D01*
X19191611Y-12352555D02*
X19182087Y-12333508D01*
X19182087Y-12333508D02*
X19163039Y-12304936D01*
X19163039Y-12304936D02*
X19153515Y-12295412D01*
D13*
X13997500Y-12696500D02*
G75*
G03*
X13997500Y-12696500I-50000J0D01*
G01*
D11*
X14363039Y-12787984D02*
X14248753Y-12787984D01*
X14305896Y-12787984D02*
X14305896Y-12587984D01*
X14305896Y-12587984D02*
X14286848Y-12616555D01*
X14286848Y-12616555D02*
X14267801Y-12635603D01*
X14267801Y-12635603D02*
X14248753Y-12645127D01*
X14448753Y-12768936D02*
X14458277Y-12778460D01*
X14458277Y-12778460D02*
X14448753Y-12787984D01*
X14448753Y-12787984D02*
X14439229Y-12778460D01*
X14439229Y-12778460D02*
X14448753Y-12768936D01*
X14448753Y-12768936D02*
X14448753Y-12787984D01*
X14582086Y-12587984D02*
X14601134Y-12587984D01*
X14601134Y-12587984D02*
X14620182Y-12597508D01*
X14620182Y-12597508D02*
X14629705Y-12607031D01*
X14629705Y-12607031D02*
X14639229Y-12626079D01*
X14639229Y-12626079D02*
X14648753Y-12664174D01*
X14648753Y-12664174D02*
X14648753Y-12711793D01*
X14648753Y-12711793D02*
X14639229Y-12749888D01*
X14639229Y-12749888D02*
X14629705Y-12768936D01*
X14629705Y-12768936D02*
X14620182Y-12778460D01*
X14620182Y-12778460D02*
X14601134Y-12787984D01*
X14601134Y-12787984D02*
X14582086Y-12787984D01*
X14582086Y-12787984D02*
X14563039Y-12778460D01*
X14563039Y-12778460D02*
X14553515Y-12768936D01*
X14553515Y-12768936D02*
X14543991Y-12749888D01*
X14543991Y-12749888D02*
X14534467Y-12711793D01*
X14534467Y-12711793D02*
X14534467Y-12664174D01*
X14534467Y-12664174D02*
X14543991Y-12626079D01*
X14543991Y-12626079D02*
X14553515Y-12607031D01*
X14553515Y-12607031D02*
X14563039Y-12597508D01*
X14563039Y-12597508D02*
X14582086Y-12587984D01*
X14772562Y-12587984D02*
X14791610Y-12587984D01*
X14791610Y-12587984D02*
X14810658Y-12597508D01*
X14810658Y-12597508D02*
X14820182Y-12607031D01*
X14820182Y-12607031D02*
X14829705Y-12626079D01*
X14829705Y-12626079D02*
X14839229Y-12664174D01*
X14839229Y-12664174D02*
X14839229Y-12711793D01*
X14839229Y-12711793D02*
X14829705Y-12749888D01*
X14829705Y-12749888D02*
X14820182Y-12768936D01*
X14820182Y-12768936D02*
X14810658Y-12778460D01*
X14810658Y-12778460D02*
X14791610Y-12787984D01*
X14791610Y-12787984D02*
X14772562Y-12787984D01*
X14772562Y-12787984D02*
X14753515Y-12778460D01*
X14753515Y-12778460D02*
X14743991Y-12768936D01*
X14743991Y-12768936D02*
X14734467Y-12749888D01*
X14734467Y-12749888D02*
X14724943Y-12711793D01*
X14724943Y-12711793D02*
X14724943Y-12664174D01*
X14724943Y-12664174D02*
X14734467Y-12626079D01*
X14734467Y-12626079D02*
X14743991Y-12607031D01*
X14743991Y-12607031D02*
X14753515Y-12597508D01*
X14753515Y-12597508D02*
X14772562Y-12587984D01*
X14963039Y-12587984D02*
X14982086Y-12587984D01*
X14982086Y-12587984D02*
X15001134Y-12597508D01*
X15001134Y-12597508D02*
X15010658Y-12607031D01*
X15010658Y-12607031D02*
X15020182Y-12626079D01*
X15020182Y-12626079D02*
X15029705Y-12664174D01*
X15029705Y-12664174D02*
X15029705Y-12711793D01*
X15029705Y-12711793D02*
X15020182Y-12749888D01*
X15020182Y-12749888D02*
X15010658Y-12768936D01*
X15010658Y-12768936D02*
X15001134Y-12778460D01*
X15001134Y-12778460D02*
X14982086Y-12787984D01*
X14982086Y-12787984D02*
X14963039Y-12787984D01*
X14963039Y-12787984D02*
X14943991Y-12778460D01*
X14943991Y-12778460D02*
X14934467Y-12768936D01*
X14934467Y-12768936D02*
X14924943Y-12749888D01*
X14924943Y-12749888D02*
X14915420Y-12711793D01*
X14915420Y-12711793D02*
X14915420Y-12664174D01*
X14915420Y-12664174D02*
X14924943Y-12626079D01*
X14924943Y-12626079D02*
X14934467Y-12607031D01*
X14934467Y-12607031D02*
X14943991Y-12597508D01*
X14943991Y-12597508D02*
X14963039Y-12587984D01*
X15115420Y-12787984D02*
X15115420Y-12654650D01*
X15115420Y-12673698D02*
X15124943Y-12664174D01*
X15124943Y-12664174D02*
X15143991Y-12654650D01*
X15143991Y-12654650D02*
X15172563Y-12654650D01*
X15172563Y-12654650D02*
X15191610Y-12664174D01*
X15191610Y-12664174D02*
X15201134Y-12683222D01*
X15201134Y-12683222D02*
X15201134Y-12787984D01*
X15201134Y-12683222D02*
X15210658Y-12664174D01*
X15210658Y-12664174D02*
X15229705Y-12654650D01*
X15229705Y-12654650D02*
X15258277Y-12654650D01*
X15258277Y-12654650D02*
X15277324Y-12664174D01*
X15277324Y-12664174D02*
X15286848Y-12683222D01*
X15286848Y-12683222D02*
X15286848Y-12787984D01*
X15382086Y-12787984D02*
X15382086Y-12654650D01*
X15382086Y-12673698D02*
X15391610Y-12664174D01*
X15391610Y-12664174D02*
X15410658Y-12654650D01*
X15410658Y-12654650D02*
X15439229Y-12654650D01*
X15439229Y-12654650D02*
X15458277Y-12664174D01*
X15458277Y-12664174D02*
X15467801Y-12683222D01*
X15467801Y-12683222D02*
X15467801Y-12787984D01*
X15467801Y-12683222D02*
X15477324Y-12664174D01*
X15477324Y-12664174D02*
X15496372Y-12654650D01*
X15496372Y-12654650D02*
X15524943Y-12654650D01*
X15524943Y-12654650D02*
X15543991Y-12664174D01*
X15543991Y-12664174D02*
X15553515Y-12683222D01*
X15553515Y-12683222D02*
X15553515Y-12787984D01*
X15943991Y-12578460D02*
X15772563Y-12835603D01*
X16201134Y-12587984D02*
X16220182Y-12587984D01*
X16220182Y-12587984D02*
X16239229Y-12597508D01*
X16239229Y-12597508D02*
X16248753Y-12607031D01*
X16248753Y-12607031D02*
X16258277Y-12626079D01*
X16258277Y-12626079D02*
X16267801Y-12664174D01*
X16267801Y-12664174D02*
X16267801Y-12711793D01*
X16267801Y-12711793D02*
X16258277Y-12749888D01*
X16258277Y-12749888D02*
X16248753Y-12768936D01*
X16248753Y-12768936D02*
X16239229Y-12778460D01*
X16239229Y-12778460D02*
X16220182Y-12787984D01*
X16220182Y-12787984D02*
X16201134Y-12787984D01*
X16201134Y-12787984D02*
X16182086Y-12778460D01*
X16182086Y-12778460D02*
X16172563Y-12768936D01*
X16172563Y-12768936D02*
X16163039Y-12749888D01*
X16163039Y-12749888D02*
X16153515Y-12711793D01*
X16153515Y-12711793D02*
X16153515Y-12664174D01*
X16153515Y-12664174D02*
X16163039Y-12626079D01*
X16163039Y-12626079D02*
X16172563Y-12607031D01*
X16172563Y-12607031D02*
X16182086Y-12597508D01*
X16182086Y-12597508D02*
X16201134Y-12587984D01*
X16353515Y-12768936D02*
X16363039Y-12778460D01*
X16363039Y-12778460D02*
X16353515Y-12787984D01*
X16353515Y-12787984D02*
X16343991Y-12778460D01*
X16343991Y-12778460D02*
X16353515Y-12768936D01*
X16353515Y-12768936D02*
X16353515Y-12787984D01*
X16486848Y-12587984D02*
X16505896Y-12587984D01*
X16505896Y-12587984D02*
X16524944Y-12597508D01*
X16524944Y-12597508D02*
X16534467Y-12607031D01*
X16534467Y-12607031D02*
X16543991Y-12626079D01*
X16543991Y-12626079D02*
X16553515Y-12664174D01*
X16553515Y-12664174D02*
X16553515Y-12711793D01*
X16553515Y-12711793D02*
X16543991Y-12749888D01*
X16543991Y-12749888D02*
X16534467Y-12768936D01*
X16534467Y-12768936D02*
X16524944Y-12778460D01*
X16524944Y-12778460D02*
X16505896Y-12787984D01*
X16505896Y-12787984D02*
X16486848Y-12787984D01*
X16486848Y-12787984D02*
X16467801Y-12778460D01*
X16467801Y-12778460D02*
X16458277Y-12768936D01*
X16458277Y-12768936D02*
X16448753Y-12749888D01*
X16448753Y-12749888D02*
X16439229Y-12711793D01*
X16439229Y-12711793D02*
X16439229Y-12664174D01*
X16439229Y-12664174D02*
X16448753Y-12626079D01*
X16448753Y-12626079D02*
X16458277Y-12607031D01*
X16458277Y-12607031D02*
X16467801Y-12597508D01*
X16467801Y-12597508D02*
X16486848Y-12587984D01*
X16620182Y-12587984D02*
X16743991Y-12587984D01*
X16743991Y-12587984D02*
X16677325Y-12664174D01*
X16677325Y-12664174D02*
X16705896Y-12664174D01*
X16705896Y-12664174D02*
X16724944Y-12673698D01*
X16724944Y-12673698D02*
X16734467Y-12683222D01*
X16734467Y-12683222D02*
X16743991Y-12702269D01*
X16743991Y-12702269D02*
X16743991Y-12749888D01*
X16743991Y-12749888D02*
X16734467Y-12768936D01*
X16734467Y-12768936D02*
X16724944Y-12778460D01*
X16724944Y-12778460D02*
X16705896Y-12787984D01*
X16705896Y-12787984D02*
X16648753Y-12787984D01*
X16648753Y-12787984D02*
X16629706Y-12778460D01*
X16629706Y-12778460D02*
X16620182Y-12768936D01*
X16839229Y-12787984D02*
X16877325Y-12787984D01*
X16877325Y-12787984D02*
X16896372Y-12778460D01*
X16896372Y-12778460D02*
X16905896Y-12768936D01*
X16905896Y-12768936D02*
X16924944Y-12740365D01*
X16924944Y-12740365D02*
X16934468Y-12702269D01*
X16934468Y-12702269D02*
X16934468Y-12626079D01*
X16934468Y-12626079D02*
X16924944Y-12607031D01*
X16924944Y-12607031D02*
X16915420Y-12597508D01*
X16915420Y-12597508D02*
X16896372Y-12587984D01*
X16896372Y-12587984D02*
X16858277Y-12587984D01*
X16858277Y-12587984D02*
X16839229Y-12597508D01*
X16839229Y-12597508D02*
X16829706Y-12607031D01*
X16829706Y-12607031D02*
X16820182Y-12626079D01*
X16820182Y-12626079D02*
X16820182Y-12673698D01*
X16820182Y-12673698D02*
X16829706Y-12692746D01*
X16829706Y-12692746D02*
X16839229Y-12702269D01*
X16839229Y-12702269D02*
X16858277Y-12711793D01*
X16858277Y-12711793D02*
X16896372Y-12711793D01*
X16896372Y-12711793D02*
X16915420Y-12702269D01*
X16915420Y-12702269D02*
X16924944Y-12692746D01*
X16924944Y-12692746D02*
X16934468Y-12673698D01*
X17105896Y-12654650D02*
X17105896Y-12787984D01*
X17058277Y-12578460D02*
X17010658Y-12721317D01*
X17010658Y-12721317D02*
X17134468Y-12721317D01*
X17201134Y-12587984D02*
X17201134Y-12626079D01*
X17277325Y-12587984D02*
X17277325Y-12626079D01*
X17572563Y-12864174D02*
X17563039Y-12854650D01*
X17563039Y-12854650D02*
X17543991Y-12826079D01*
X17543991Y-12826079D02*
X17534468Y-12807031D01*
X17534468Y-12807031D02*
X17524944Y-12778460D01*
X17524944Y-12778460D02*
X17515420Y-12730841D01*
X17515420Y-12730841D02*
X17515420Y-12692746D01*
X17515420Y-12692746D02*
X17524944Y-12645127D01*
X17524944Y-12645127D02*
X17534468Y-12616555D01*
X17534468Y-12616555D02*
X17543991Y-12597508D01*
X17543991Y-12597508D02*
X17563039Y-12568936D01*
X17563039Y-12568936D02*
X17572563Y-12559412D01*
X17639230Y-12607031D02*
X17648753Y-12597508D01*
X17648753Y-12597508D02*
X17667801Y-12587984D01*
X17667801Y-12587984D02*
X17715420Y-12587984D01*
X17715420Y-12587984D02*
X17734468Y-12597508D01*
X17734468Y-12597508D02*
X17743991Y-12607031D01*
X17743991Y-12607031D02*
X17753515Y-12626079D01*
X17753515Y-12626079D02*
X17753515Y-12645127D01*
X17753515Y-12645127D02*
X17743991Y-12673698D01*
X17743991Y-12673698D02*
X17629706Y-12787984D01*
X17629706Y-12787984D02*
X17753515Y-12787984D01*
X17877325Y-12587984D02*
X17896372Y-12587984D01*
X17896372Y-12587984D02*
X17915420Y-12597508D01*
X17915420Y-12597508D02*
X17924944Y-12607031D01*
X17924944Y-12607031D02*
X17934468Y-12626079D01*
X17934468Y-12626079D02*
X17943991Y-12664174D01*
X17943991Y-12664174D02*
X17943991Y-12711793D01*
X17943991Y-12711793D02*
X17934468Y-12749888D01*
X17934468Y-12749888D02*
X17924944Y-12768936D01*
X17924944Y-12768936D02*
X17915420Y-12778460D01*
X17915420Y-12778460D02*
X17896372Y-12787984D01*
X17896372Y-12787984D02*
X17877325Y-12787984D01*
X17877325Y-12787984D02*
X17858277Y-12778460D01*
X17858277Y-12778460D02*
X17848753Y-12768936D01*
X17848753Y-12768936D02*
X17839230Y-12749888D01*
X17839230Y-12749888D02*
X17829706Y-12711793D01*
X17829706Y-12711793D02*
X17829706Y-12664174D01*
X17829706Y-12664174D02*
X17839230Y-12626079D01*
X17839230Y-12626079D02*
X17848753Y-12607031D01*
X17848753Y-12607031D02*
X17858277Y-12597508D01*
X17858277Y-12597508D02*
X17877325Y-12587984D01*
X18182087Y-12787984D02*
X18182087Y-12587984D01*
X18267801Y-12787984D02*
X18267801Y-12683222D01*
X18267801Y-12683222D02*
X18258277Y-12664174D01*
X18258277Y-12664174D02*
X18239230Y-12654650D01*
X18239230Y-12654650D02*
X18210658Y-12654650D01*
X18210658Y-12654650D02*
X18191611Y-12664174D01*
X18191611Y-12664174D02*
X18182087Y-12673698D01*
X18391611Y-12787984D02*
X18372563Y-12778460D01*
X18372563Y-12778460D02*
X18363039Y-12768936D01*
X18363039Y-12768936D02*
X18353515Y-12749888D01*
X18353515Y-12749888D02*
X18353515Y-12692746D01*
X18353515Y-12692746D02*
X18363039Y-12673698D01*
X18363039Y-12673698D02*
X18372563Y-12664174D01*
X18372563Y-12664174D02*
X18391611Y-12654650D01*
X18391611Y-12654650D02*
X18420182Y-12654650D01*
X18420182Y-12654650D02*
X18439230Y-12664174D01*
X18439230Y-12664174D02*
X18448753Y-12673698D01*
X18448753Y-12673698D02*
X18458277Y-12692746D01*
X18458277Y-12692746D02*
X18458277Y-12749888D01*
X18458277Y-12749888D02*
X18448753Y-12768936D01*
X18448753Y-12768936D02*
X18439230Y-12778460D01*
X18439230Y-12778460D02*
X18420182Y-12787984D01*
X18420182Y-12787984D02*
X18391611Y-12787984D01*
X18572563Y-12787984D02*
X18553515Y-12778460D01*
X18553515Y-12778460D02*
X18543992Y-12759412D01*
X18543992Y-12759412D02*
X18543992Y-12587984D01*
X18724944Y-12778460D02*
X18705896Y-12787984D01*
X18705896Y-12787984D02*
X18667801Y-12787984D01*
X18667801Y-12787984D02*
X18648753Y-12778460D01*
X18648753Y-12778460D02*
X18639230Y-12759412D01*
X18639230Y-12759412D02*
X18639230Y-12683222D01*
X18639230Y-12683222D02*
X18648753Y-12664174D01*
X18648753Y-12664174D02*
X18667801Y-12654650D01*
X18667801Y-12654650D02*
X18705896Y-12654650D01*
X18705896Y-12654650D02*
X18724944Y-12664174D01*
X18724944Y-12664174D02*
X18734468Y-12683222D01*
X18734468Y-12683222D02*
X18734468Y-12702269D01*
X18734468Y-12702269D02*
X18639230Y-12721317D01*
X18810658Y-12778460D02*
X18829706Y-12787984D01*
X18829706Y-12787984D02*
X18867801Y-12787984D01*
X18867801Y-12787984D02*
X18886849Y-12778460D01*
X18886849Y-12778460D02*
X18896373Y-12759412D01*
X18896373Y-12759412D02*
X18896373Y-12749888D01*
X18896373Y-12749888D02*
X18886849Y-12730841D01*
X18886849Y-12730841D02*
X18867801Y-12721317D01*
X18867801Y-12721317D02*
X18839230Y-12721317D01*
X18839230Y-12721317D02*
X18820182Y-12711793D01*
X18820182Y-12711793D02*
X18810658Y-12692746D01*
X18810658Y-12692746D02*
X18810658Y-12683222D01*
X18810658Y-12683222D02*
X18820182Y-12664174D01*
X18820182Y-12664174D02*
X18839230Y-12654650D01*
X18839230Y-12654650D02*
X18867801Y-12654650D01*
X18867801Y-12654650D02*
X18886849Y-12664174D01*
X18963039Y-12864174D02*
X18972563Y-12854650D01*
X18972563Y-12854650D02*
X18991611Y-12826079D01*
X18991611Y-12826079D02*
X19001134Y-12807031D01*
X19001134Y-12807031D02*
X19010658Y-12778460D01*
X19010658Y-12778460D02*
X19020182Y-12730841D01*
X19020182Y-12730841D02*
X19020182Y-12692746D01*
X19020182Y-12692746D02*
X19010658Y-12645127D01*
X19010658Y-12645127D02*
X19001134Y-12616555D01*
X19001134Y-12616555D02*
X18991611Y-12597508D01*
X18991611Y-12597508D02*
X18972563Y-12568936D01*
X18972563Y-12568936D02*
X18963039Y-12559412D01*
X13897500Y-12860500D02*
X13897500Y-13060500D01*
X13797500Y-12960500D02*
X13997500Y-12960500D01*
X14248753Y-12871031D02*
X14258277Y-12861508D01*
X14258277Y-12861508D02*
X14277324Y-12851984D01*
X14277324Y-12851984D02*
X14324943Y-12851984D01*
X14324943Y-12851984D02*
X14343991Y-12861508D01*
X14343991Y-12861508D02*
X14353515Y-12871031D01*
X14353515Y-12871031D02*
X14363039Y-12890079D01*
X14363039Y-12890079D02*
X14363039Y-12909127D01*
X14363039Y-12909127D02*
X14353515Y-12937698D01*
X14353515Y-12937698D02*
X14239229Y-13051984D01*
X14239229Y-13051984D02*
X14363039Y-13051984D01*
X14448753Y-13032936D02*
X14458277Y-13042460D01*
X14458277Y-13042460D02*
X14448753Y-13051984D01*
X14448753Y-13051984D02*
X14439229Y-13042460D01*
X14439229Y-13042460D02*
X14448753Y-13032936D01*
X14448753Y-13032936D02*
X14448753Y-13051984D01*
X14629705Y-12918650D02*
X14629705Y-13051984D01*
X14582086Y-12842460D02*
X14534467Y-12985317D01*
X14534467Y-12985317D02*
X14658277Y-12985317D01*
X14772562Y-12851984D02*
X14791610Y-12851984D01*
X14791610Y-12851984D02*
X14810658Y-12861508D01*
X14810658Y-12861508D02*
X14820182Y-12871031D01*
X14820182Y-12871031D02*
X14829705Y-12890079D01*
X14829705Y-12890079D02*
X14839229Y-12928174D01*
X14839229Y-12928174D02*
X14839229Y-12975793D01*
X14839229Y-12975793D02*
X14829705Y-13013888D01*
X14829705Y-13013888D02*
X14820182Y-13032936D01*
X14820182Y-13032936D02*
X14810658Y-13042460D01*
X14810658Y-13042460D02*
X14791610Y-13051984D01*
X14791610Y-13051984D02*
X14772562Y-13051984D01*
X14772562Y-13051984D02*
X14753515Y-13042460D01*
X14753515Y-13042460D02*
X14743991Y-13032936D01*
X14743991Y-13032936D02*
X14734467Y-13013888D01*
X14734467Y-13013888D02*
X14724943Y-12975793D01*
X14724943Y-12975793D02*
X14724943Y-12928174D01*
X14724943Y-12928174D02*
X14734467Y-12890079D01*
X14734467Y-12890079D02*
X14743991Y-12871031D01*
X14743991Y-12871031D02*
X14753515Y-12861508D01*
X14753515Y-12861508D02*
X14772562Y-12851984D01*
X14963039Y-12851984D02*
X14982086Y-12851984D01*
X14982086Y-12851984D02*
X15001134Y-12861508D01*
X15001134Y-12861508D02*
X15010658Y-12871031D01*
X15010658Y-12871031D02*
X15020182Y-12890079D01*
X15020182Y-12890079D02*
X15029705Y-12928174D01*
X15029705Y-12928174D02*
X15029705Y-12975793D01*
X15029705Y-12975793D02*
X15020182Y-13013888D01*
X15020182Y-13013888D02*
X15010658Y-13032936D01*
X15010658Y-13032936D02*
X15001134Y-13042460D01*
X15001134Y-13042460D02*
X14982086Y-13051984D01*
X14982086Y-13051984D02*
X14963039Y-13051984D01*
X14963039Y-13051984D02*
X14943991Y-13042460D01*
X14943991Y-13042460D02*
X14934467Y-13032936D01*
X14934467Y-13032936D02*
X14924943Y-13013888D01*
X14924943Y-13013888D02*
X14915420Y-12975793D01*
X14915420Y-12975793D02*
X14915420Y-12928174D01*
X14915420Y-12928174D02*
X14924943Y-12890079D01*
X14924943Y-12890079D02*
X14934467Y-12871031D01*
X14934467Y-12871031D02*
X14943991Y-12861508D01*
X14943991Y-12861508D02*
X14963039Y-12851984D01*
X15115420Y-13051984D02*
X15115420Y-12918650D01*
X15115420Y-12937698D02*
X15124943Y-12928174D01*
X15124943Y-12928174D02*
X15143991Y-12918650D01*
X15143991Y-12918650D02*
X15172563Y-12918650D01*
X15172563Y-12918650D02*
X15191610Y-12928174D01*
X15191610Y-12928174D02*
X15201134Y-12947222D01*
X15201134Y-12947222D02*
X15201134Y-13051984D01*
X15201134Y-12947222D02*
X15210658Y-12928174D01*
X15210658Y-12928174D02*
X15229705Y-12918650D01*
X15229705Y-12918650D02*
X15258277Y-12918650D01*
X15258277Y-12918650D02*
X15277324Y-12928174D01*
X15277324Y-12928174D02*
X15286848Y-12947222D01*
X15286848Y-12947222D02*
X15286848Y-13051984D01*
X15382086Y-13051984D02*
X15382086Y-12918650D01*
X15382086Y-12937698D02*
X15391610Y-12928174D01*
X15391610Y-12928174D02*
X15410658Y-12918650D01*
X15410658Y-12918650D02*
X15439229Y-12918650D01*
X15439229Y-12918650D02*
X15458277Y-12928174D01*
X15458277Y-12928174D02*
X15467801Y-12947222D01*
X15467801Y-12947222D02*
X15467801Y-13051984D01*
X15467801Y-12947222D02*
X15477324Y-12928174D01*
X15477324Y-12928174D02*
X15496372Y-12918650D01*
X15496372Y-12918650D02*
X15524943Y-12918650D01*
X15524943Y-12918650D02*
X15543991Y-12928174D01*
X15543991Y-12928174D02*
X15553515Y-12947222D01*
X15553515Y-12947222D02*
X15553515Y-13051984D01*
X15943991Y-12842460D02*
X15772563Y-13099603D01*
X16201134Y-12851984D02*
X16220182Y-12851984D01*
X16220182Y-12851984D02*
X16239229Y-12861508D01*
X16239229Y-12861508D02*
X16248753Y-12871031D01*
X16248753Y-12871031D02*
X16258277Y-12890079D01*
X16258277Y-12890079D02*
X16267801Y-12928174D01*
X16267801Y-12928174D02*
X16267801Y-12975793D01*
X16267801Y-12975793D02*
X16258277Y-13013888D01*
X16258277Y-13013888D02*
X16248753Y-13032936D01*
X16248753Y-13032936D02*
X16239229Y-13042460D01*
X16239229Y-13042460D02*
X16220182Y-13051984D01*
X16220182Y-13051984D02*
X16201134Y-13051984D01*
X16201134Y-13051984D02*
X16182086Y-13042460D01*
X16182086Y-13042460D02*
X16172563Y-13032936D01*
X16172563Y-13032936D02*
X16163039Y-13013888D01*
X16163039Y-13013888D02*
X16153515Y-12975793D01*
X16153515Y-12975793D02*
X16153515Y-12928174D01*
X16153515Y-12928174D02*
X16163039Y-12890079D01*
X16163039Y-12890079D02*
X16172563Y-12871031D01*
X16172563Y-12871031D02*
X16182086Y-12861508D01*
X16182086Y-12861508D02*
X16201134Y-12851984D01*
X16353515Y-13032936D02*
X16363039Y-13042460D01*
X16363039Y-13042460D02*
X16353515Y-13051984D01*
X16353515Y-13051984D02*
X16343991Y-13042460D01*
X16343991Y-13042460D02*
X16353515Y-13032936D01*
X16353515Y-13032936D02*
X16353515Y-13051984D01*
X16486848Y-12851984D02*
X16505896Y-12851984D01*
X16505896Y-12851984D02*
X16524944Y-12861508D01*
X16524944Y-12861508D02*
X16534467Y-12871031D01*
X16534467Y-12871031D02*
X16543991Y-12890079D01*
X16543991Y-12890079D02*
X16553515Y-12928174D01*
X16553515Y-12928174D02*
X16553515Y-12975793D01*
X16553515Y-12975793D02*
X16543991Y-13013888D01*
X16543991Y-13013888D02*
X16534467Y-13032936D01*
X16534467Y-13032936D02*
X16524944Y-13042460D01*
X16524944Y-13042460D02*
X16505896Y-13051984D01*
X16505896Y-13051984D02*
X16486848Y-13051984D01*
X16486848Y-13051984D02*
X16467801Y-13042460D01*
X16467801Y-13042460D02*
X16458277Y-13032936D01*
X16458277Y-13032936D02*
X16448753Y-13013888D01*
X16448753Y-13013888D02*
X16439229Y-12975793D01*
X16439229Y-12975793D02*
X16439229Y-12928174D01*
X16439229Y-12928174D02*
X16448753Y-12890079D01*
X16448753Y-12890079D02*
X16458277Y-12871031D01*
X16458277Y-12871031D02*
X16467801Y-12861508D01*
X16467801Y-12861508D02*
X16486848Y-12851984D01*
X16648753Y-13051984D02*
X16686848Y-13051984D01*
X16686848Y-13051984D02*
X16705896Y-13042460D01*
X16705896Y-13042460D02*
X16715420Y-13032936D01*
X16715420Y-13032936D02*
X16734467Y-13004365D01*
X16734467Y-13004365D02*
X16743991Y-12966269D01*
X16743991Y-12966269D02*
X16743991Y-12890079D01*
X16743991Y-12890079D02*
X16734467Y-12871031D01*
X16734467Y-12871031D02*
X16724944Y-12861508D01*
X16724944Y-12861508D02*
X16705896Y-12851984D01*
X16705896Y-12851984D02*
X16667801Y-12851984D01*
X16667801Y-12851984D02*
X16648753Y-12861508D01*
X16648753Y-12861508D02*
X16639229Y-12871031D01*
X16639229Y-12871031D02*
X16629706Y-12890079D01*
X16629706Y-12890079D02*
X16629706Y-12937698D01*
X16629706Y-12937698D02*
X16639229Y-12956746D01*
X16639229Y-12956746D02*
X16648753Y-12966269D01*
X16648753Y-12966269D02*
X16667801Y-12975793D01*
X16667801Y-12975793D02*
X16705896Y-12975793D01*
X16705896Y-12975793D02*
X16724944Y-12966269D01*
X16724944Y-12966269D02*
X16734467Y-12956746D01*
X16734467Y-12956746D02*
X16743991Y-12937698D01*
X16915420Y-12918650D02*
X16915420Y-13051984D01*
X16867801Y-12842460D02*
X16820182Y-12985317D01*
X16820182Y-12985317D02*
X16943991Y-12985317D01*
X17115420Y-12851984D02*
X17020182Y-12851984D01*
X17020182Y-12851984D02*
X17010658Y-12947222D01*
X17010658Y-12947222D02*
X17020182Y-12937698D01*
X17020182Y-12937698D02*
X17039229Y-12928174D01*
X17039229Y-12928174D02*
X17086849Y-12928174D01*
X17086849Y-12928174D02*
X17105896Y-12937698D01*
X17105896Y-12937698D02*
X17115420Y-12947222D01*
X17115420Y-12947222D02*
X17124944Y-12966269D01*
X17124944Y-12966269D02*
X17124944Y-13013888D01*
X17124944Y-13013888D02*
X17115420Y-13032936D01*
X17115420Y-13032936D02*
X17105896Y-13042460D01*
X17105896Y-13042460D02*
X17086849Y-13051984D01*
X17086849Y-13051984D02*
X17039229Y-13051984D01*
X17039229Y-13051984D02*
X17020182Y-13042460D01*
X17020182Y-13042460D02*
X17010658Y-13032936D01*
X17201134Y-12851984D02*
X17201134Y-12890079D01*
X17277325Y-12851984D02*
X17277325Y-12890079D01*
X17572563Y-13128174D02*
X17563039Y-13118650D01*
X17563039Y-13118650D02*
X17543991Y-13090079D01*
X17543991Y-13090079D02*
X17534468Y-13071031D01*
X17534468Y-13071031D02*
X17524944Y-13042460D01*
X17524944Y-13042460D02*
X17515420Y-12994841D01*
X17515420Y-12994841D02*
X17515420Y-12956746D01*
X17515420Y-12956746D02*
X17524944Y-12909127D01*
X17524944Y-12909127D02*
X17534468Y-12880555D01*
X17534468Y-12880555D02*
X17543991Y-12861508D01*
X17543991Y-12861508D02*
X17563039Y-12832936D01*
X17563039Y-12832936D02*
X17572563Y-12823412D01*
X17753515Y-13051984D02*
X17639230Y-13051984D01*
X17696372Y-13051984D02*
X17696372Y-12851984D01*
X17696372Y-12851984D02*
X17677325Y-12880555D01*
X17677325Y-12880555D02*
X17658277Y-12899603D01*
X17658277Y-12899603D02*
X17639230Y-12909127D01*
X17829706Y-12871031D02*
X17839230Y-12861508D01*
X17839230Y-12861508D02*
X17858277Y-12851984D01*
X17858277Y-12851984D02*
X17905896Y-12851984D01*
X17905896Y-12851984D02*
X17924944Y-12861508D01*
X17924944Y-12861508D02*
X17934468Y-12871031D01*
X17934468Y-12871031D02*
X17943991Y-12890079D01*
X17943991Y-12890079D02*
X17943991Y-12909127D01*
X17943991Y-12909127D02*
X17934468Y-12937698D01*
X17934468Y-12937698D02*
X17820182Y-13051984D01*
X17820182Y-13051984D02*
X17943991Y-13051984D01*
X18182087Y-13051984D02*
X18182087Y-12851984D01*
X18267801Y-13051984D02*
X18267801Y-12947222D01*
X18267801Y-12947222D02*
X18258277Y-12928174D01*
X18258277Y-12928174D02*
X18239230Y-12918650D01*
X18239230Y-12918650D02*
X18210658Y-12918650D01*
X18210658Y-12918650D02*
X18191611Y-12928174D01*
X18191611Y-12928174D02*
X18182087Y-12937698D01*
X18391611Y-13051984D02*
X18372563Y-13042460D01*
X18372563Y-13042460D02*
X18363039Y-13032936D01*
X18363039Y-13032936D02*
X18353515Y-13013888D01*
X18353515Y-13013888D02*
X18353515Y-12956746D01*
X18353515Y-12956746D02*
X18363039Y-12937698D01*
X18363039Y-12937698D02*
X18372563Y-12928174D01*
X18372563Y-12928174D02*
X18391611Y-12918650D01*
X18391611Y-12918650D02*
X18420182Y-12918650D01*
X18420182Y-12918650D02*
X18439230Y-12928174D01*
X18439230Y-12928174D02*
X18448753Y-12937698D01*
X18448753Y-12937698D02*
X18458277Y-12956746D01*
X18458277Y-12956746D02*
X18458277Y-13013888D01*
X18458277Y-13013888D02*
X18448753Y-13032936D01*
X18448753Y-13032936D02*
X18439230Y-13042460D01*
X18439230Y-13042460D02*
X18420182Y-13051984D01*
X18420182Y-13051984D02*
X18391611Y-13051984D01*
X18572563Y-13051984D02*
X18553515Y-13042460D01*
X18553515Y-13042460D02*
X18543992Y-13023412D01*
X18543992Y-13023412D02*
X18543992Y-12851984D01*
X18724944Y-13042460D02*
X18705896Y-13051984D01*
X18705896Y-13051984D02*
X18667801Y-13051984D01*
X18667801Y-13051984D02*
X18648753Y-13042460D01*
X18648753Y-13042460D02*
X18639230Y-13023412D01*
X18639230Y-13023412D02*
X18639230Y-12947222D01*
X18639230Y-12947222D02*
X18648753Y-12928174D01*
X18648753Y-12928174D02*
X18667801Y-12918650D01*
X18667801Y-12918650D02*
X18705896Y-12918650D01*
X18705896Y-12918650D02*
X18724944Y-12928174D01*
X18724944Y-12928174D02*
X18734468Y-12947222D01*
X18734468Y-12947222D02*
X18734468Y-12966269D01*
X18734468Y-12966269D02*
X18639230Y-12985317D01*
X18810658Y-13042460D02*
X18829706Y-13051984D01*
X18829706Y-13051984D02*
X18867801Y-13051984D01*
X18867801Y-13051984D02*
X18886849Y-13042460D01*
X18886849Y-13042460D02*
X18896373Y-13023412D01*
X18896373Y-13023412D02*
X18896373Y-13013888D01*
X18896373Y-13013888D02*
X18886849Y-12994841D01*
X18886849Y-12994841D02*
X18867801Y-12985317D01*
X18867801Y-12985317D02*
X18839230Y-12985317D01*
X18839230Y-12985317D02*
X18820182Y-12975793D01*
X18820182Y-12975793D02*
X18810658Y-12956746D01*
X18810658Y-12956746D02*
X18810658Y-12947222D01*
X18810658Y-12947222D02*
X18820182Y-12928174D01*
X18820182Y-12928174D02*
X18839230Y-12918650D01*
X18839230Y-12918650D02*
X18867801Y-12918650D01*
X18867801Y-12918650D02*
X18886849Y-12928174D01*
X18963039Y-13128174D02*
X18972563Y-13118650D01*
X18972563Y-13118650D02*
X18991611Y-13090079D01*
X18991611Y-13090079D02*
X19001134Y-13071031D01*
X19001134Y-13071031D02*
X19010658Y-13042460D01*
X19010658Y-13042460D02*
X19020182Y-12994841D01*
X19020182Y-12994841D02*
X19020182Y-12956746D01*
X19020182Y-12956746D02*
X19010658Y-12909127D01*
X19010658Y-12909127D02*
X19001134Y-12880555D01*
X19001134Y-12880555D02*
X18991611Y-12861508D01*
X18991611Y-12861508D02*
X18972563Y-12832936D01*
X18972563Y-12832936D02*
X18963039Y-12823412D01*
M02*
