%TF.GenerationSoftware,KiCad,Pcbnew,7.0.6-7.0.6~ubuntu22.04.1*%
%TF.CreationDate,2023-08-06T19:07:11+12:00*%
%TF.ProjectId,AUX_SWITCH,4155585f-5357-4495-9443-482e6b696361,v1.0*%
%TF.SameCoordinates,Original*%
%TF.FileFunction,Soldermask,Bot*%
%TF.FilePolarity,Negative*%
%FSLAX46Y46*%
G04 Gerber Fmt 4.6, Leading zero omitted, Abs format (unit mm)*
G04 Created by KiCad (PCBNEW 7.0.6-7.0.6~ubuntu22.04.1) date 2023-08-06 19:07:11*
%MOMM*%
%LPD*%
G01*
G04 APERTURE LIST*
G04 Aperture macros list*
%AMRoundRect*
0 Rectangle with rounded corners*
0 $1 Rounding radius*
0 $2 $3 $4 $5 $6 $7 $8 $9 X,Y pos of 4 corners*
0 Add a 4 corners polygon primitive as box body*
4,1,4,$2,$3,$4,$5,$6,$7,$8,$9,$2,$3,0*
0 Add four circle primitives for the rounded corners*
1,1,$1+$1,$2,$3*
1,1,$1+$1,$4,$5*
1,1,$1+$1,$6,$7*
1,1,$1+$1,$8,$9*
0 Add four rect primitives between the rounded corners*
20,1,$1+$1,$2,$3,$4,$5,0*
20,1,$1+$1,$4,$5,$6,$7,0*
20,1,$1+$1,$6,$7,$8,$9,0*
20,1,$1+$1,$8,$9,$2,$3,0*%
G04 Aperture macros list end*
%ADD10C,1.000000*%
%ADD11C,1.800000*%
%ADD12RoundRect,0.800000X0.800000X-0.800000X0.800000X0.800000X-0.800000X0.800000X-0.800000X-0.800000X0*%
G04 APERTURE END LIST*
D10*
%TO.C,J4*%
X162500000Y-115000000D03*
X162500000Y-110000000D03*
D11*
X157700000Y-115000000D03*
X166100000Y-110000000D03*
X160900000Y-106900000D03*
X167000000Y-115000000D03*
X164100000Y-106900000D03*
%TD*%
D10*
%TO.C,J6*%
X147500000Y-115000000D03*
X147500000Y-110000000D03*
D11*
X142700000Y-115000000D03*
X151100000Y-110000000D03*
X145900000Y-106900000D03*
X152000000Y-115000000D03*
X149100000Y-106900000D03*
%TD*%
D12*
%TO.C,J1*%
X162500000Y-93000000D03*
X167500000Y-93000000D03*
X172500000Y-93000000D03*
X177500000Y-93000000D03*
%TD*%
D10*
%TO.C,J7*%
X177500000Y-115000000D03*
X177500000Y-110000000D03*
D11*
X172700000Y-115000000D03*
X181100000Y-110000000D03*
X175900000Y-106900000D03*
X182000000Y-115000000D03*
X179100000Y-106900000D03*
%TD*%
D10*
%TO.C,J5*%
X192500000Y-115000000D03*
X192500000Y-110000000D03*
D11*
X187700000Y-115000000D03*
X196100000Y-110000000D03*
X190900000Y-106900000D03*
X197000000Y-115000000D03*
X194100000Y-106900000D03*
%TD*%
D12*
%TO.C,J3*%
X162500000Y-88200000D03*
X167500000Y-88200000D03*
X172500000Y-88200000D03*
X177500000Y-88200000D03*
%TD*%
%TO.C,J2*%
X162500000Y-97800000D03*
X167500000Y-97800000D03*
X172500000Y-97800000D03*
X177500000Y-97800000D03*
%TD*%
M02*
