%TF.GenerationSoftware,KiCad,Pcbnew,7.0.6-7.0.6~ubuntu22.04.1*%
%TF.CreationDate,2023-08-06T19:07:11+12:00*%
%TF.ProjectId,AUX_SWITCH,4155585f-5357-4495-9443-482e6b696361,v1.0*%
%TF.SameCoordinates,Original*%
%TF.FileFunction,Legend,Top*%
%TF.FilePolarity,Positive*%
%FSLAX46Y46*%
G04 Gerber Fmt 4.6, Leading zero omitted, Abs format (unit mm)*
G04 Created by KiCad (PCBNEW 7.0.6-7.0.6~ubuntu22.04.1) date 2023-08-06 19:07:11*
%MOMM*%
%LPD*%
G01*
G04 APERTURE LIST*
%ADD10C,0.300000*%
%ADD11C,0.100000*%
%ADD12C,0.150000*%
G04 APERTURE END LIST*
D10*
X190892856Y-105178328D02*
X190892856Y-103678328D01*
X190892856Y-103678328D02*
X191392856Y-104749757D01*
X191392856Y-104749757D02*
X191892856Y-103678328D01*
X191892856Y-103678328D02*
X191892856Y-105178328D01*
X192607142Y-105178328D02*
X192607142Y-103678328D01*
X194178571Y-105035471D02*
X194107143Y-105106900D01*
X194107143Y-105106900D02*
X193892857Y-105178328D01*
X193892857Y-105178328D02*
X193750000Y-105178328D01*
X193750000Y-105178328D02*
X193535714Y-105106900D01*
X193535714Y-105106900D02*
X193392857Y-104964042D01*
X193392857Y-104964042D02*
X193321428Y-104821185D01*
X193321428Y-104821185D02*
X193250000Y-104535471D01*
X193250000Y-104535471D02*
X193250000Y-104321185D01*
X193250000Y-104321185D02*
X193321428Y-104035471D01*
X193321428Y-104035471D02*
X193392857Y-103892614D01*
X193392857Y-103892614D02*
X193535714Y-103749757D01*
X193535714Y-103749757D02*
X193750000Y-103678328D01*
X193750000Y-103678328D02*
X193892857Y-103678328D01*
X193892857Y-103678328D02*
X194107143Y-103749757D01*
X194107143Y-103749757D02*
X194178571Y-103821185D01*
X160285714Y-103678328D02*
X160571428Y-103678328D01*
X160571428Y-103678328D02*
X160714285Y-103749757D01*
X160714285Y-103749757D02*
X160857142Y-103892614D01*
X160857142Y-103892614D02*
X160928571Y-104178328D01*
X160928571Y-104178328D02*
X160928571Y-104678328D01*
X160928571Y-104678328D02*
X160857142Y-104964042D01*
X160857142Y-104964042D02*
X160714285Y-105106900D01*
X160714285Y-105106900D02*
X160571428Y-105178328D01*
X160571428Y-105178328D02*
X160285714Y-105178328D01*
X160285714Y-105178328D02*
X160142857Y-105106900D01*
X160142857Y-105106900D02*
X159999999Y-104964042D01*
X159999999Y-104964042D02*
X159928571Y-104678328D01*
X159928571Y-104678328D02*
X159928571Y-104178328D01*
X159928571Y-104178328D02*
X159999999Y-103892614D01*
X159999999Y-103892614D02*
X160142857Y-103749757D01*
X160142857Y-103749757D02*
X160285714Y-103678328D01*
X161571428Y-103678328D02*
X161571428Y-104892614D01*
X161571428Y-104892614D02*
X161642857Y-105035471D01*
X161642857Y-105035471D02*
X161714286Y-105106900D01*
X161714286Y-105106900D02*
X161857143Y-105178328D01*
X161857143Y-105178328D02*
X162142857Y-105178328D01*
X162142857Y-105178328D02*
X162285714Y-105106900D01*
X162285714Y-105106900D02*
X162357143Y-105035471D01*
X162357143Y-105035471D02*
X162428571Y-104892614D01*
X162428571Y-104892614D02*
X162428571Y-103678328D01*
X162928572Y-103678328D02*
X163785715Y-103678328D01*
X163357143Y-105178328D02*
X163357143Y-103678328D01*
X165071429Y-105178328D02*
X164214286Y-105178328D01*
X164642857Y-105178328D02*
X164642857Y-103678328D01*
X164642857Y-103678328D02*
X164500000Y-103892614D01*
X164500000Y-103892614D02*
X164357143Y-104035471D01*
X164357143Y-104035471D02*
X164214286Y-104106900D01*
X143321428Y-105106900D02*
X143535714Y-105178328D01*
X143535714Y-105178328D02*
X143892856Y-105178328D01*
X143892856Y-105178328D02*
X144035714Y-105106900D01*
X144035714Y-105106900D02*
X144107142Y-105035471D01*
X144107142Y-105035471D02*
X144178571Y-104892614D01*
X144178571Y-104892614D02*
X144178571Y-104749757D01*
X144178571Y-104749757D02*
X144107142Y-104606900D01*
X144107142Y-104606900D02*
X144035714Y-104535471D01*
X144035714Y-104535471D02*
X143892856Y-104464042D01*
X143892856Y-104464042D02*
X143607142Y-104392614D01*
X143607142Y-104392614D02*
X143464285Y-104321185D01*
X143464285Y-104321185D02*
X143392856Y-104249757D01*
X143392856Y-104249757D02*
X143321428Y-104106900D01*
X143321428Y-104106900D02*
X143321428Y-103964042D01*
X143321428Y-103964042D02*
X143392856Y-103821185D01*
X143392856Y-103821185D02*
X143464285Y-103749757D01*
X143464285Y-103749757D02*
X143607142Y-103678328D01*
X143607142Y-103678328D02*
X143964285Y-103678328D01*
X143964285Y-103678328D02*
X144178571Y-103749757D01*
X145107142Y-103678328D02*
X145392856Y-103678328D01*
X145392856Y-103678328D02*
X145535713Y-103749757D01*
X145535713Y-103749757D02*
X145678570Y-103892614D01*
X145678570Y-103892614D02*
X145749999Y-104178328D01*
X145749999Y-104178328D02*
X145749999Y-104678328D01*
X145749999Y-104678328D02*
X145678570Y-104964042D01*
X145678570Y-104964042D02*
X145535713Y-105106900D01*
X145535713Y-105106900D02*
X145392856Y-105178328D01*
X145392856Y-105178328D02*
X145107142Y-105178328D01*
X145107142Y-105178328D02*
X144964285Y-105106900D01*
X144964285Y-105106900D02*
X144821427Y-104964042D01*
X144821427Y-104964042D02*
X144749999Y-104678328D01*
X144749999Y-104678328D02*
X144749999Y-104178328D01*
X144749999Y-104178328D02*
X144821427Y-103892614D01*
X144821427Y-103892614D02*
X144964285Y-103749757D01*
X144964285Y-103749757D02*
X145107142Y-103678328D01*
X146392856Y-103678328D02*
X146392856Y-104892614D01*
X146392856Y-104892614D02*
X146464285Y-105035471D01*
X146464285Y-105035471D02*
X146535714Y-105106900D01*
X146535714Y-105106900D02*
X146678571Y-105178328D01*
X146678571Y-105178328D02*
X146964285Y-105178328D01*
X146964285Y-105178328D02*
X147107142Y-105106900D01*
X147107142Y-105106900D02*
X147178571Y-105035471D01*
X147178571Y-105035471D02*
X147249999Y-104892614D01*
X147249999Y-104892614D02*
X147249999Y-103678328D01*
X148821428Y-105178328D02*
X148321428Y-104464042D01*
X147964285Y-105178328D02*
X147964285Y-103678328D01*
X147964285Y-103678328D02*
X148535714Y-103678328D01*
X148535714Y-103678328D02*
X148678571Y-103749757D01*
X148678571Y-103749757D02*
X148750000Y-103821185D01*
X148750000Y-103821185D02*
X148821428Y-103964042D01*
X148821428Y-103964042D02*
X148821428Y-104178328D01*
X148821428Y-104178328D02*
X148750000Y-104321185D01*
X148750000Y-104321185D02*
X148678571Y-104392614D01*
X148678571Y-104392614D02*
X148535714Y-104464042D01*
X148535714Y-104464042D02*
X147964285Y-104464042D01*
X150321428Y-105035471D02*
X150250000Y-105106900D01*
X150250000Y-105106900D02*
X150035714Y-105178328D01*
X150035714Y-105178328D02*
X149892857Y-105178328D01*
X149892857Y-105178328D02*
X149678571Y-105106900D01*
X149678571Y-105106900D02*
X149535714Y-104964042D01*
X149535714Y-104964042D02*
X149464285Y-104821185D01*
X149464285Y-104821185D02*
X149392857Y-104535471D01*
X149392857Y-104535471D02*
X149392857Y-104321185D01*
X149392857Y-104321185D02*
X149464285Y-104035471D01*
X149464285Y-104035471D02*
X149535714Y-103892614D01*
X149535714Y-103892614D02*
X149678571Y-103749757D01*
X149678571Y-103749757D02*
X149892857Y-103678328D01*
X149892857Y-103678328D02*
X150035714Y-103678328D01*
X150035714Y-103678328D02*
X150250000Y-103749757D01*
X150250000Y-103749757D02*
X150321428Y-103821185D01*
X150964285Y-104392614D02*
X151464285Y-104392614D01*
X151678571Y-105178328D02*
X150964285Y-105178328D01*
X150964285Y-105178328D02*
X150964285Y-103678328D01*
X150964285Y-103678328D02*
X151678571Y-103678328D01*
X175285714Y-103678328D02*
X175571428Y-103678328D01*
X175571428Y-103678328D02*
X175714285Y-103749757D01*
X175714285Y-103749757D02*
X175857142Y-103892614D01*
X175857142Y-103892614D02*
X175928571Y-104178328D01*
X175928571Y-104178328D02*
X175928571Y-104678328D01*
X175928571Y-104678328D02*
X175857142Y-104964042D01*
X175857142Y-104964042D02*
X175714285Y-105106900D01*
X175714285Y-105106900D02*
X175571428Y-105178328D01*
X175571428Y-105178328D02*
X175285714Y-105178328D01*
X175285714Y-105178328D02*
X175142857Y-105106900D01*
X175142857Y-105106900D02*
X174999999Y-104964042D01*
X174999999Y-104964042D02*
X174928571Y-104678328D01*
X174928571Y-104678328D02*
X174928571Y-104178328D01*
X174928571Y-104178328D02*
X174999999Y-103892614D01*
X174999999Y-103892614D02*
X175142857Y-103749757D01*
X175142857Y-103749757D02*
X175285714Y-103678328D01*
X176571428Y-103678328D02*
X176571428Y-104892614D01*
X176571428Y-104892614D02*
X176642857Y-105035471D01*
X176642857Y-105035471D02*
X176714286Y-105106900D01*
X176714286Y-105106900D02*
X176857143Y-105178328D01*
X176857143Y-105178328D02*
X177142857Y-105178328D01*
X177142857Y-105178328D02*
X177285714Y-105106900D01*
X177285714Y-105106900D02*
X177357143Y-105035471D01*
X177357143Y-105035471D02*
X177428571Y-104892614D01*
X177428571Y-104892614D02*
X177428571Y-103678328D01*
X177928572Y-103678328D02*
X178785715Y-103678328D01*
X178357143Y-105178328D02*
X178357143Y-103678328D01*
X179214286Y-103821185D02*
X179285714Y-103749757D01*
X179285714Y-103749757D02*
X179428572Y-103678328D01*
X179428572Y-103678328D02*
X179785714Y-103678328D01*
X179785714Y-103678328D02*
X179928572Y-103749757D01*
X179928572Y-103749757D02*
X180000000Y-103821185D01*
X180000000Y-103821185D02*
X180071429Y-103964042D01*
X180071429Y-103964042D02*
X180071429Y-104106900D01*
X180071429Y-104106900D02*
X180000000Y-104321185D01*
X180000000Y-104321185D02*
X179142857Y-105178328D01*
X179142857Y-105178328D02*
X180071429Y-105178328D01*
D11*
X162833333Y-113002580D02*
X162833333Y-112288295D01*
X162833333Y-112288295D02*
X162880952Y-112145438D01*
X162880952Y-112145438D02*
X162976190Y-112050200D01*
X162976190Y-112050200D02*
X163119047Y-112002580D01*
X163119047Y-112002580D02*
X163214285Y-112002580D01*
X161928571Y-112669247D02*
X161928571Y-112002580D01*
X162166666Y-113050200D02*
X162404761Y-112335914D01*
X162404761Y-112335914D02*
X161785714Y-112335914D01*
X147833333Y-113002580D02*
X147833333Y-112288295D01*
X147833333Y-112288295D02*
X147880952Y-112145438D01*
X147880952Y-112145438D02*
X147976190Y-112050200D01*
X147976190Y-112050200D02*
X148119047Y-112002580D01*
X148119047Y-112002580D02*
X148214285Y-112002580D01*
X146928571Y-113002580D02*
X147119047Y-113002580D01*
X147119047Y-113002580D02*
X147214285Y-112954961D01*
X147214285Y-112954961D02*
X147261904Y-112907342D01*
X147261904Y-112907342D02*
X147357142Y-112764485D01*
X147357142Y-112764485D02*
X147404761Y-112574009D01*
X147404761Y-112574009D02*
X147404761Y-112193057D01*
X147404761Y-112193057D02*
X147357142Y-112097819D01*
X147357142Y-112097819D02*
X147309523Y-112050200D01*
X147309523Y-112050200D02*
X147214285Y-112002580D01*
X147214285Y-112002580D02*
X147023809Y-112002580D01*
X147023809Y-112002580D02*
X146928571Y-112050200D01*
X146928571Y-112050200D02*
X146880952Y-112097819D01*
X146880952Y-112097819D02*
X146833333Y-112193057D01*
X146833333Y-112193057D02*
X146833333Y-112431152D01*
X146833333Y-112431152D02*
X146880952Y-112526390D01*
X146880952Y-112526390D02*
X146928571Y-112574009D01*
X146928571Y-112574009D02*
X147023809Y-112621628D01*
X147023809Y-112621628D02*
X147214285Y-112621628D01*
X147214285Y-112621628D02*
X147309523Y-112574009D01*
X147309523Y-112574009D02*
X147357142Y-112526390D01*
X147357142Y-112526390D02*
X147404761Y-112431152D01*
X177833333Y-113002580D02*
X177833333Y-112288295D01*
X177833333Y-112288295D02*
X177880952Y-112145438D01*
X177880952Y-112145438D02*
X177976190Y-112050200D01*
X177976190Y-112050200D02*
X178119047Y-112002580D01*
X178119047Y-112002580D02*
X178214285Y-112002580D01*
X177452380Y-113002580D02*
X176785714Y-113002580D01*
X176785714Y-113002580D02*
X177214285Y-112002580D01*
X192833333Y-113002580D02*
X192833333Y-112288295D01*
X192833333Y-112288295D02*
X192880952Y-112145438D01*
X192880952Y-112145438D02*
X192976190Y-112050200D01*
X192976190Y-112050200D02*
X193119047Y-112002580D01*
X193119047Y-112002580D02*
X193214285Y-112002580D01*
X191880952Y-113002580D02*
X192357142Y-113002580D01*
X192357142Y-113002580D02*
X192404761Y-112526390D01*
X192404761Y-112526390D02*
X192357142Y-112574009D01*
X192357142Y-112574009D02*
X192261904Y-112621628D01*
X192261904Y-112621628D02*
X192023809Y-112621628D01*
X192023809Y-112621628D02*
X191928571Y-112574009D01*
X191928571Y-112574009D02*
X191880952Y-112526390D01*
X191880952Y-112526390D02*
X191833333Y-112431152D01*
X191833333Y-112431152D02*
X191833333Y-112193057D01*
X191833333Y-112193057D02*
X191880952Y-112097819D01*
X191880952Y-112097819D02*
X191928571Y-112050200D01*
X191928571Y-112050200D02*
X192023809Y-112002580D01*
X192023809Y-112002580D02*
X192261904Y-112002580D01*
X192261904Y-112002580D02*
X192357142Y-112050200D01*
X192357142Y-112050200D02*
X192404761Y-112097819D01*
D12*
%TO.C,R1*%
X147522500Y-92762742D02*
X147522500Y-93237258D01*
X146477500Y-92762742D02*
X146477500Y-93237258D01*
%TO.C,R2*%
X147977500Y-93237258D02*
X147977500Y-92762742D01*
X149022500Y-93237258D02*
X149022500Y-92762742D01*
%TD*%
M02*
