%TF.GenerationSoftware,KiCad,Pcbnew,7.0.6-7.0.6~ubuntu22.04.1*%
%TF.CreationDate,2023-08-06T19:07:11+12:00*%
%TF.ProjectId,AUX_SWITCH,4155585f-5357-4495-9443-482e6b696361,v1.0*%
%TF.SameCoordinates,Original*%
%TF.FileFunction,Profile,NP*%
%FSLAX46Y46*%
G04 Gerber Fmt 4.6, Leading zero omitted, Abs format (unit mm)*
G04 Created by KiCad (PCBNEW 7.0.6-7.0.6~ubuntu22.04.1) date 2023-08-06 19:07:11*
%MOMM*%
%LPD*%
G01*
G04 APERTURE LIST*
%TA.AperFunction,Profile*%
%ADD10C,0.050000*%
%TD*%
G04 APERTURE END LIST*
D10*
X140000002Y-116900000D02*
G75*
G03*
X141000000Y-117900000I999998J-2D01*
G01*
X141000000Y-77900002D02*
G75*
G03*
X140000000Y-78900000I-2J-999998D01*
G01*
X199999998Y-78900000D02*
G75*
G03*
X199000000Y-77900000I-999999J1D01*
G01*
X199000000Y-117899998D02*
G75*
G03*
X200000000Y-116900000I3J999997D01*
G01*
X157000000Y-117900000D02*
X153000000Y-117900000D01*
X172000000Y-117900000D02*
X168000000Y-117900000D01*
X200000000Y-116900000D02*
X200000000Y-78900000D01*
X187000000Y-117900000D02*
X183000000Y-117900000D01*
X198000000Y-117900000D02*
X199000000Y-117900000D01*
X142000000Y-117900000D02*
X141000000Y-117900000D01*
X199000000Y-77900000D02*
X141000000Y-77900000D01*
X140000000Y-78900000D02*
X140000000Y-116900000D01*
%TO.C,J4*%
X164750000Y-117900000D02*
X168000000Y-117900000D01*
X164750000Y-117900000D02*
X164750000Y-116600000D01*
X164750000Y-116600000D02*
X160250000Y-116600000D01*
X160250000Y-117900000D02*
X157000000Y-117900000D01*
X160250000Y-116600000D02*
X160250000Y-117900000D01*
%TO.C,J6*%
X149750000Y-117900000D02*
X153000000Y-117900000D01*
X149750000Y-117900000D02*
X149750000Y-116600000D01*
X149750000Y-116600000D02*
X145250000Y-116600000D01*
X145250000Y-117900000D02*
X142000000Y-117900000D01*
X145250000Y-116600000D02*
X145250000Y-117900000D01*
%TO.C,J7*%
X179750000Y-117900000D02*
X183000000Y-117900000D01*
X179750000Y-117900000D02*
X179750000Y-116600000D01*
X179750000Y-116600000D02*
X175250000Y-116600000D01*
X175250000Y-117900000D02*
X172000000Y-117900000D01*
X175250000Y-116600000D02*
X175250000Y-117900000D01*
%TO.C,J5*%
X194750000Y-117900000D02*
X198000000Y-117900000D01*
X194750000Y-117900000D02*
X194750000Y-116600000D01*
X194750000Y-116600000D02*
X190250000Y-116600000D01*
X190250000Y-117900000D02*
X187000000Y-117900000D01*
X190250000Y-116600000D02*
X190250000Y-117900000D01*
%TD*%
M02*
